<svg width="412" height="917" viewBox="0 0 412 917" fill="none" xmlns="http://www.w3.org/2000/svg">
<g clip-path="url(#clip0_1_4)">
<rect width="412" height="917" fill="#302D43"/>
<path d="M42.1792 82.6562V81.4844C42.1792 81.1736 42.3026 80.8755 42.5224 80.6557C42.7422 80.436 43.0402 80.3125 43.351 80.3125H49.4448C49.7556 80.3125 50.0537 80.436 50.2734 80.6557C50.4932 80.8755 50.6167 81.1736 50.6167 81.4844V88.5156C50.6167 88.8264 50.4932 89.1245 50.2734 89.3443C50.0537 89.564 49.7556 89.6875 49.4448 89.6875H43.351C43.0402 89.6875 42.7422 89.564 42.5224 89.3443C42.3026 89.1245 42.1792 88.8264 42.1792 88.5156V87.3438" stroke="#7B8CDE" stroke-linecap="round" stroke-linejoin="round"/>
<path d="M44.9688 87.3438L47.3125 85L44.9688 82.6562M38.4062 85H46.8438" stroke="#7B8CDE" stroke-linecap="round" stroke-linejoin="round"/>
<path d="M59.3793 80.66V89H58.0113V80.66H59.3793ZM64.5114 82.28C65.0314 82.28 65.4954 82.388 65.9034 82.604C66.3194 82.82 66.6434 83.14 66.8754 83.564C67.1074 83.988 67.2234 84.5 67.2234 85.1V89H65.8674V85.304C65.8674 84.712 65.7194 84.26 65.4234 83.948C65.1274 83.628 64.7234 83.468 64.2114 83.468C63.6994 83.468 63.2914 83.628 62.9874 83.948C62.6914 84.26 62.5434 84.712 62.5434 85.304V89H61.1754V82.388H62.5434V83.144C62.7674 82.872 63.0514 82.66 63.3954 82.508C63.7474 82.356 64.1194 82.28 64.5114 82.28ZM69.6644 81.512C69.4164 81.512 69.2084 81.428 69.0404 81.26C68.8724 81.092 68.7884 80.884 68.7884 80.636C68.7884 80.388 68.8724 80.18 69.0404 80.012C69.2084 79.844 69.4164 79.76 69.6644 79.76C69.9044 79.76 70.1084 79.844 70.2764 80.012C70.4444 80.18 70.5284 80.388 70.5284 80.636C70.5284 80.884 70.4444 81.092 70.2764 81.26C70.1084 81.428 69.9044 81.512 69.6644 81.512ZM70.3364 82.388V89H68.9684V82.388H70.3364ZM71.6764 85.688C71.6764 85.008 71.8124 84.412 72.0844 83.9C72.3644 83.38 72.7484 82.98 73.2364 82.7C73.7244 82.42 74.2844 82.28 74.9164 82.28C75.7164 82.28 76.3764 82.472 76.8964 82.856C77.4244 83.232 77.7804 83.772 77.9644 84.476H76.4884C76.3684 84.148 76.1764 83.892 75.9124 83.708C75.6484 83.524 75.3164 83.432 74.9164 83.432C74.3564 83.432 73.9084 83.632 73.5724 84.032C73.2444 84.424 73.0804 84.976 73.0804 85.688C73.0804 86.4 73.2444 86.956 73.5724 87.356C73.9084 87.756 74.3564 87.956 74.9164 87.956C75.7084 87.956 76.2324 87.608 76.4884 86.912H77.9644C77.7724 87.584 77.4124 88.12 76.8844 88.52C76.3564 88.912 75.7004 89.108 74.9164 89.108C74.2844 89.108 73.7244 88.968 73.2364 88.688C72.7484 88.4 72.3644 88 72.0844 87.488C71.8124 86.968 71.6764 86.368 71.6764 85.688ZM80.0237 81.512C79.7757 81.512 79.5677 81.428 79.3997 81.26C79.2317 81.092 79.1477 80.884 79.1477 80.636C79.1477 80.388 79.2317 80.18 79.3997 80.012C79.5677 79.844 79.7757 79.76 80.0237 79.76C80.2637 79.76 80.4677 79.844 80.6357 80.012C80.8037 80.18 80.8877 80.388 80.8877 80.636C80.8877 80.884 80.8037 81.092 80.6357 81.26C80.4677 81.428 80.2637 81.512 80.0237 81.512ZM80.6957 82.388V89H79.3277V82.388H80.6957ZM82.0358 85.664C82.0358 85 82.1718 84.412 82.4438 83.9C82.7238 83.388 83.0998 82.992 83.5718 82.712C84.0518 82.424 84.5798 82.28 85.1558 82.28C85.6758 82.28 86.1278 82.384 86.5118 82.592C86.9038 82.792 87.2158 83.044 87.4478 83.348V82.388H88.8278V89H87.4478V88.016C87.2158 88.328 86.8998 88.588 86.4998 88.796C86.0998 89.004 85.6438 89.108 85.1318 89.108C84.5638 89.108 84.0438 88.964 83.5718 88.676C83.0998 88.38 82.7238 87.972 82.4438 87.452C82.1718 86.924 82.0358 86.328 82.0358 85.664ZM87.4478 85.688C87.4478 85.232 87.3518 84.836 87.1598 84.5C86.9758 84.164 86.7318 83.908 86.4278 83.732C86.1238 83.556 85.7958 83.468 85.4438 83.468C85.0918 83.468 84.7638 83.556 84.4598 83.732C84.1558 83.9 83.9078 84.152 83.7158 84.488C83.5318 84.816 83.4398 85.208 83.4398 85.664C83.4398 86.12 83.5318 86.52 83.7158 86.864C83.9078 87.208 84.1558 87.472 84.4598 87.656C84.7718 87.832 85.0998 87.92 85.4438 87.92C85.7958 87.92 86.1238 87.832 86.4278 87.656C86.7318 87.48 86.9758 87.224 87.1598 86.888C87.3518 86.544 87.4478 86.144 87.4478 85.688ZM91.9926 80.12V89H90.6246V80.12H91.9926Z" fill="#9A9AB5"/>
<path d="M35.232 116.5L33.312 113.164H32.268V116.5H30.9V108.16H33.78C34.42 108.16 34.96 108.272 35.4 108.496C35.848 108.72 36.18 109.02 36.396 109.396C36.62 109.772 36.732 110.192 36.732 110.656C36.732 111.2 36.572 111.696 36.252 112.144C35.94 112.584 35.456 112.884 34.8 113.044L36.864 116.5H35.232ZM32.268 112.072H33.78C34.292 112.072 34.676 111.944 34.932 111.688C35.196 111.432 35.328 111.088 35.328 110.656C35.328 110.224 35.2 109.888 34.944 109.648C34.688 109.4 34.3 109.276 33.78 109.276H32.268V112.072ZM44.11 114.124C44.11 114.524 44.01 114.9 43.81 115.252C43.618 115.604 43.33 115.9 42.946 116.14C42.57 116.38 42.122 116.524 41.602 116.572V117.544H40.822V116.572C40.07 116.5 39.462 116.264 38.998 115.864C38.534 115.464 38.302 114.936 38.302 114.28H39.766C39.79 114.592 39.89 114.852 40.066 115.06C40.242 115.26 40.494 115.388 40.822 115.444V112.804C40.286 112.668 39.85 112.532 39.514 112.396C39.178 112.252 38.89 112.028 38.65 111.724C38.418 111.42 38.302 111.004 38.302 110.476C38.302 109.812 38.534 109.264 38.998 108.832C39.462 108.392 40.07 108.136 40.822 108.064V107.092H41.602V108.064C42.306 108.128 42.87 108.352 43.294 108.736C43.726 109.112 43.97 109.632 44.026 110.296H42.562C42.538 110.048 42.442 109.828 42.274 109.636C42.106 109.436 41.882 109.3 41.602 109.228V111.82C42.138 111.948 42.574 112.084 42.91 112.228C43.246 112.364 43.53 112.584 43.762 112.888C43.994 113.184 44.11 113.596 44.11 114.124ZM39.694 110.404C39.694 110.732 39.79 110.988 39.982 111.172C40.182 111.356 40.462 111.504 40.822 111.616V109.192C40.478 109.232 40.202 109.356 39.994 109.564C39.794 109.772 39.694 110.052 39.694 110.404ZM41.602 115.444C41.954 115.388 42.23 115.248 42.43 115.024C42.63 114.792 42.73 114.516 42.73 114.196C42.73 113.876 42.63 113.628 42.43 113.452C42.238 113.268 41.962 113.12 41.602 113.008V115.444Z" fill="#9A9AB5"/>
<path d="M53.214 116.21C54.366 115.214 55.272 114.398 55.932 113.762C56.604 113.114 57.162 112.442 57.606 111.746C58.05 111.05 58.272 110.354 58.272 109.658C58.272 108.938 58.098 108.374 57.75 107.966C57.414 107.558 56.88 107.354 56.148 107.354C55.44 107.354 54.888 107.582 54.492 108.038C54.108 108.482 53.904 109.082 53.88 109.838H51.9C51.936 108.47 52.344 107.426 53.124 106.706C53.916 105.974 54.918 105.608 56.13 105.608C57.438 105.608 58.458 105.968 59.19 106.688C59.934 107.408 60.306 108.368 60.306 109.568C60.306 110.432 60.084 111.266 59.64 112.07C59.208 112.862 58.686 113.576 58.074 114.212C57.474 114.836 56.706 115.562 55.77 116.39L54.96 117.11H60.666V118.82H51.918V117.326L53.214 116.21ZM62.4327 109.118C62.5047 108.002 62.9307 107.132 63.7107 106.508C64.5027 105.884 65.5107 105.572 66.7347 105.572C67.5747 105.572 68.3007 105.722 68.9127 106.022C69.5247 106.322 69.9867 106.73 70.2987 107.246C70.6107 107.762 70.7667 108.344 70.7667 108.992C70.7667 109.736 70.5687 110.372 70.1727 110.9C69.7767 111.428 69.3027 111.782 68.7507 111.962V112.034C69.4587 112.25 70.0107 112.646 70.4067 113.222C70.8027 113.786 71.0007 114.512 71.0007 115.4C71.0007 116.108 70.8387 116.738 70.5147 117.29C70.1907 117.842 69.7107 118.28 69.0747 118.604C68.4387 118.916 67.6767 119.072 66.7887 119.072C65.4927 119.072 64.4247 118.742 63.5847 118.082C62.7567 117.41 62.3127 116.45 62.2527 115.202H64.2327C64.2807 115.838 64.5267 116.36 64.9707 116.768C65.4147 117.164 66.0147 117.362 66.7707 117.362C67.5027 117.362 68.0667 117.164 68.4627 116.768C68.8587 116.36 69.0567 115.838 69.0567 115.202C69.0567 114.362 68.7867 113.768 68.2467 113.42C67.7187 113.06 66.9027 112.88 65.7987 112.88H65.3307V111.188H65.8167C66.7887 111.176 67.5267 111.014 68.0307 110.702C68.5467 110.39 68.8047 109.898 68.8047 109.226C68.8047 108.65 68.6187 108.194 68.2467 107.858C67.8747 107.51 67.3467 107.336 66.6627 107.336C65.9907 107.336 65.4687 107.51 65.0967 107.858C64.7247 108.194 64.5027 108.614 64.4307 109.118H62.4327ZM75.6762 116.534L73.4982 121.502H72.1662L73.4442 116.534H75.6762ZM85.6591 107.642H79.6291V111.224C79.8811 110.888 80.2531 110.606 80.7451 110.378C81.2491 110.15 81.7831 110.036 82.3471 110.036C83.3551 110.036 84.1711 110.252 84.7951 110.684C85.4311 111.116 85.8811 111.662 86.1451 112.322C86.4211 112.982 86.5591 113.678 86.5591 114.41C86.5591 115.298 86.3851 116.09 86.0371 116.786C85.7011 117.47 85.1911 118.01 84.5071 118.406C83.8351 118.802 83.0071 119 82.0231 119C80.7151 119 79.6651 118.676 78.8731 118.028C78.0811 117.38 77.6071 116.522 77.4511 115.454H79.4491C79.5811 116.018 79.8751 116.468 80.3311 116.804C80.7871 117.128 81.3571 117.29 82.0411 117.29C82.8931 117.29 83.5291 117.032 83.9491 116.516C84.3811 116 84.5971 115.316 84.5971 114.464C84.5971 113.6 84.3811 112.94 83.9491 112.484C83.5171 112.016 82.8811 111.782 82.0411 111.782C81.4531 111.782 80.9551 111.932 80.5471 112.232C80.1511 112.52 79.8631 112.916 79.6831 113.42H77.7391V105.842H85.6591V107.642ZM97.1552 107.642H91.1252V111.224C91.3772 110.888 91.7492 110.606 92.2412 110.378C92.7452 110.15 93.2792 110.036 93.8432 110.036C94.8512 110.036 95.6672 110.252 96.2912 110.684C96.9272 111.116 97.3772 111.662 97.6412 112.322C97.9172 112.982 98.0552 113.678 98.0552 114.41C98.0552 115.298 97.8812 116.09 97.5332 116.786C97.1972 117.47 96.6872 118.01 96.0032 118.406C95.3312 118.802 94.5032 119 93.5192 119C92.2112 119 91.1612 118.676 90.3692 118.028C89.5772 117.38 89.1032 116.522 88.9472 115.454H90.9452C91.0772 116.018 91.3712 116.468 91.8272 116.804C92.2832 117.128 92.8532 117.29 93.5372 117.29C94.3892 117.29 95.0252 117.032 95.4452 116.516C95.8772 116 96.0932 115.316 96.0932 114.464C96.0932 113.6 95.8772 112.94 95.4452 112.484C95.0132 112.016 94.3772 111.782 93.5372 111.782C92.9492 111.782 92.4512 111.932 92.0432 112.232C91.6472 112.52 91.3592 112.916 91.1792 113.42H89.2352V105.842H97.1552V107.642Z" fill="#CFCFE4"/>
<path d="M38.6304 126.329C38.9566 126.114 39.3384 126 39.7288 126H94.2951C96.186 126 97.0209 128.381 95.5439 129.562L93.042 131.562C92.6875 131.846 92.2471 132 91.7932 132H36.6853C34.6996 132 33.9275 129.419 35.5869 128.329L38.6304 126.329Z" fill="#7B8CDE"/>
<path d="M185.688 70.7188H176.312C175.536 70.7188 174.906 71.3483 174.906 72.125V77.75C174.906 78.5267 175.536 79.1562 176.312 79.1562H185.688C186.464 79.1562 187.094 78.5267 187.094 77.75V72.125C187.094 71.3483 186.464 70.7188 185.688 70.7188Z" stroke="#3A86FF" stroke-linejoin="round"/>
<path d="M185.552 70.7188V69.8398C185.551 69.6243 185.504 69.4114 185.412 69.2164C185.32 69.0213 185.186 68.849 185.02 68.7116C184.854 68.5742 184.66 68.4751 184.451 68.4215C184.242 68.3679 184.024 68.361 183.812 68.4014L176.097 69.7183C175.762 69.7821 175.46 69.9609 175.242 70.2238C175.025 70.4866 174.906 70.8171 174.906 71.1582V72.5938" stroke="#3A86FF" stroke-linejoin="round"/>
<path d="M184.281 75.875C184.096 75.875 183.915 75.82 183.76 75.717C183.606 75.614 183.486 75.4676 183.415 75.2963C183.344 75.125 183.326 74.9365 183.362 74.7546C183.398 74.5727 183.487 74.4057 183.618 74.2746C183.749 74.1435 183.916 74.0542 184.098 74.018C184.28 73.9818 184.469 74.0004 184.64 74.0714C184.811 74.1423 184.958 74.2625 185.061 74.4167C185.164 74.5708 185.219 74.7521 185.219 74.9375C185.219 75.1861 185.12 75.4246 184.944 75.6004C184.768 75.7762 184.53 75.875 184.281 75.875Z" fill="#3A86FF"/>
<path d="M197.486 78.084C196.926 78.084 196.422 77.988 195.974 77.796C195.526 77.596 195.174 77.316 194.918 76.956C194.662 76.596 194.534 76.176 194.534 75.696H195.998C196.03 76.056 196.17 76.352 196.418 76.584C196.674 76.816 197.03 76.932 197.486 76.932C197.958 76.932 198.326 76.82 198.59 76.596C198.854 76.364 198.986 76.068 198.986 75.708C198.986 75.428 198.902 75.2 198.734 75.024C198.574 74.848 198.37 74.712 198.122 74.616C197.882 74.52 197.546 74.416 197.114 74.304C196.57 74.16 196.126 74.016 195.782 73.872C195.446 73.72 195.158 73.488 194.918 73.176C194.678 72.864 194.558 72.448 194.558 71.928C194.558 71.448 194.678 71.028 194.918 70.668C195.158 70.308 195.494 70.032 195.926 69.84C196.358 69.648 196.858 69.552 197.426 69.552C198.234 69.552 198.894 69.756 199.406 70.164C199.926 70.564 200.214 71.116 200.27 71.82H198.758C198.734 71.516 198.59 71.256 198.326 71.04C198.062 70.824 197.714 70.716 197.282 70.716C196.89 70.716 196.57 70.816 196.322 71.016C196.074 71.216 195.95 71.504 195.95 71.88C195.95 72.136 196.026 72.348 196.178 72.516C196.338 72.676 196.538 72.804 196.778 72.9C197.018 72.996 197.346 73.1 197.762 73.212C198.314 73.364 198.762 73.516 199.106 73.668C199.458 73.82 199.754 74.056 199.994 74.376C200.242 74.688 200.366 75.108 200.366 75.636C200.366 76.06 200.25 76.46 200.018 76.836C199.794 77.212 199.462 77.516 199.022 77.748C198.59 77.972 198.078 78.084 197.486 78.084ZM201.524 74.664C201.524 74 201.66 73.412 201.932 72.9C202.212 72.388 202.588 71.992 203.06 71.712C203.54 71.424 204.068 71.28 204.644 71.28C205.164 71.28 205.616 71.384 206 71.592C206.392 71.792 206.704 72.044 206.936 72.348V71.388H208.316V78H206.936V77.016C206.704 77.328 206.388 77.588 205.988 77.796C205.588 78.004 205.132 78.108 204.62 78.108C204.052 78.108 203.532 77.964 203.06 77.676C202.588 77.38 202.212 76.972 201.932 76.452C201.66 75.924 201.524 75.328 201.524 74.664ZM206.936 74.688C206.936 74.232 206.84 73.836 206.648 73.5C206.464 73.164 206.22 72.908 205.916 72.732C205.612 72.556 205.284 72.468 204.932 72.468C204.58 72.468 204.252 72.556 203.948 72.732C203.644 72.9 203.396 73.152 203.204 73.488C203.02 73.816 202.928 74.208 202.928 74.664C202.928 75.12 203.02 75.52 203.204 75.864C203.396 76.208 203.644 76.472 203.948 76.656C204.26 76.832 204.588 76.92 204.932 76.92C205.284 76.92 205.612 76.832 205.916 76.656C206.22 76.48 206.464 76.224 206.648 75.888C206.84 75.544 206.936 75.144 206.936 74.688ZM211.481 69.12V78H210.113V69.12H211.481ZM212.821 74.664C212.821 74 212.957 73.412 213.229 72.9C213.509 72.388 213.885 71.992 214.357 71.712C214.837 71.424 215.369 71.28 215.953 71.28C216.385 71.28 216.809 71.376 217.225 71.568C217.649 71.752 217.985 72 218.233 72.312V69.12H219.613V78H218.233V77.004C218.009 77.324 217.697 77.588 217.297 77.796C216.905 78.004 216.453 78.108 215.941 78.108C215.365 78.108 214.837 77.964 214.357 77.676C213.885 77.38 213.509 76.972 213.229 76.452C212.957 75.924 212.821 75.328 212.821 74.664ZM218.233 74.688C218.233 74.232 218.137 73.836 217.945 73.5C217.761 73.164 217.517 72.908 217.213 72.732C216.909 72.556 216.581 72.468 216.229 72.468C215.877 72.468 215.549 72.556 215.245 72.732C214.941 72.9 214.693 73.152 214.501 73.488C214.317 73.816 214.225 74.208 214.225 74.664C214.225 75.12 214.317 75.52 214.501 75.864C214.693 76.208 214.941 76.472 215.245 76.656C215.557 76.832 215.885 76.92 216.229 76.92C216.581 76.92 216.909 76.832 217.213 76.656C217.517 76.48 217.761 76.224 217.945 75.888C218.137 75.544 218.233 75.144 218.233 74.688ZM224.278 78.108C223.654 78.108 223.09 77.968 222.586 77.688C222.082 77.4 221.686 77 221.398 76.488C221.11 75.968 220.966 75.368 220.966 74.688C220.966 74.016 221.114 73.42 221.41 72.9C221.706 72.38 222.11 71.98 222.622 71.7C223.134 71.42 223.706 71.28 224.338 71.28C224.97 71.28 225.542 71.42 226.054 71.7C226.566 71.98 226.97 72.38 227.266 72.9C227.562 73.42 227.71 74.016 227.71 74.688C227.71 75.36 227.558 75.956 227.254 76.476C226.95 76.996 226.534 77.4 226.006 77.688C225.486 77.968 224.91 78.108 224.278 78.108ZM224.278 76.92C224.63 76.92 224.958 76.836 225.262 76.668C225.574 76.5 225.826 76.248 226.018 75.912C226.21 75.576 226.306 75.168 226.306 74.688C226.306 74.208 226.214 73.804 226.03 73.476C225.846 73.14 225.602 72.888 225.298 72.72C224.994 72.552 224.666 72.468 224.314 72.468C223.962 72.468 223.634 72.552 223.33 72.72C223.034 72.888 222.798 73.14 222.622 73.476C222.446 73.804 222.358 74.208 222.358 74.688C222.358 75.4 222.538 75.952 222.898 76.344C223.266 76.728 223.726 76.92 224.278 76.92Z" fill="#9A9AB5"/>
<path d="M140.848 112.5L137.968 107.496H136.402V112.5H134.35V99.99H138.67C139.63 99.99 140.44 100.158 141.1 100.494C141.772 100.83 142.27 101.28 142.594 101.844C142.93 102.408 143.098 103.038 143.098 103.734C143.098 104.55 142.858 105.294 142.378 105.966C141.91 106.626 141.184 107.076 140.2 107.316L143.296 112.5H140.848ZM136.402 105.858H138.67C139.438 105.858 140.014 105.666 140.398 105.282C140.794 104.898 140.992 104.382 140.992 103.734C140.992 103.086 140.8 102.582 140.416 102.222C140.032 101.85 139.45 101.664 138.67 101.664H136.402V105.858ZM154.165 108.936C154.165 109.536 154.015 110.1 153.715 110.628C153.427 111.156 152.995 111.6 152.419 111.96C151.855 112.32 151.183 112.536 150.403 112.608V114.066H149.233V112.608C148.105 112.5 147.193 112.146 146.497 111.546C145.801 110.946 145.453 110.154 145.453 109.17H147.649C147.685 109.638 147.835 110.028 148.099 110.34C148.363 110.64 148.741 110.832 149.233 110.916V106.956C148.429 106.752 147.775 106.548 147.271 106.344C146.767 106.128 146.335 105.792 145.975 105.336C145.627 104.88 145.453 104.256 145.453 103.464C145.453 102.468 145.801 101.646 146.497 100.998C147.193 100.338 148.105 99.954 149.233 99.846V98.388H150.403V99.846C151.459 99.942 152.305 100.278 152.941 100.854C153.589 101.418 153.955 102.198 154.039 103.194H151.843C151.807 102.822 151.663 102.492 151.411 102.204C151.159 101.904 150.823 101.7 150.403 101.592V105.48C151.207 105.672 151.861 105.876 152.365 106.092C152.869 106.296 153.295 106.626 153.643 107.082C153.991 107.526 154.165 108.144 154.165 108.936ZM147.541 103.356C147.541 103.848 147.685 104.232 147.973 104.508C148.273 104.784 148.693 105.006 149.233 105.174V101.538C148.717 101.598 148.303 101.784 147.991 102.096C147.691 102.408 147.541 102.828 147.541 103.356ZM150.403 110.916C150.931 110.832 151.345 110.622 151.645 110.286C151.945 109.938 152.095 109.524 152.095 109.044C152.095 108.564 151.945 108.192 151.645 107.928C151.357 107.652 150.943 107.43 150.403 107.262V110.916Z" fill="#9A9AB5"/>
<path d="M175.416 100.056H167.928V103.368C168.248 103.016 168.696 102.728 169.272 102.504C169.848 102.28 170.472 102.168 171.144 102.168C172.344 102.168 173.336 102.44 174.12 102.984C174.92 103.528 175.504 104.232 175.872 105.096C176.24 105.96 176.424 106.896 176.424 107.904C176.424 109.776 175.896 111.264 174.84 112.368C173.784 113.456 172.296 114 170.376 114C169.096 114 167.984 113.784 167.04 113.352C166.096 112.904 165.368 112.288 164.856 111.504C164.344 110.72 164.064 109.816 164.016 108.792H168.024C168.12 109.288 168.352 109.704 168.72 110.04C169.088 110.36 169.592 110.52 170.232 110.52C170.984 110.52 171.544 110.28 171.912 109.8C172.28 109.32 172.464 108.68 172.464 107.88C172.464 107.096 172.272 106.496 171.888 106.08C171.504 105.664 170.944 105.456 170.208 105.456C169.664 105.456 169.216 105.592 168.864 105.864C168.512 106.12 168.28 106.464 168.168 106.896H164.208V96.456H175.416V100.056ZM181.017 114.192C180.297 114.192 179.705 113.984 179.241 113.568C178.793 113.136 178.569 112.608 178.569 111.984C178.569 111.344 178.793 110.808 179.241 110.376C179.705 109.944 180.297 109.728 181.017 109.728C181.721 109.728 182.297 109.944 182.745 110.376C183.209 110.808 183.441 111.344 183.441 111.984C183.441 112.608 183.209 113.136 182.745 113.568C182.297 113.984 181.721 114.192 181.017 114.192ZM185.559 110.88V107.568L193.143 96.72H197.727V107.328H199.695V110.88H197.727V114H193.623V110.88H185.559ZM193.911 101.232L189.879 107.328H193.911V101.232ZM201.561 110.712C202.105 110.28 202.353 110.08 202.305 110.112C203.873 108.816 205.105 107.752 206.001 106.92C206.913 106.088 207.681 105.216 208.305 104.304C208.929 103.392 209.241 102.504 209.241 101.64C209.241 100.984 209.089 100.472 208.785 100.104C208.481 99.736 208.025 99.552 207.417 99.552C206.809 99.552 206.329 99.784 205.977 100.248C205.641 100.696 205.473 101.336 205.473 102.168H201.513C201.545 100.808 201.833 99.672 202.377 98.76C202.937 97.848 203.665 97.176 204.561 96.744C205.473 96.312 206.481 96.096 207.585 96.096C209.489 96.096 210.921 96.584 211.881 97.56C212.857 98.536 213.345 99.808 213.345 101.376C213.345 103.088 212.761 104.68 211.593 106.152C210.425 107.608 208.937 109.032 207.129 110.424H213.609V113.76H201.561V110.712ZM215.416 105C215.416 102.248 215.944 100.08 217 98.496C218.072 96.912 219.792 96.12 222.16 96.12C224.528 96.12 226.24 96.912 227.296 98.496C228.368 100.08 228.904 102.248 228.904 105C228.904 107.784 228.368 109.968 227.296 111.552C226.24 113.136 224.528 113.928 222.16 113.928C219.792 113.928 218.072 113.136 217 111.552C215.944 109.968 215.416 107.784 215.416 105ZM224.872 105C224.872 103.384 224.696 102.144 224.344 101.28C223.992 100.4 223.264 99.96 222.16 99.96C221.056 99.96 220.328 100.4 219.976 101.28C219.624 102.144 219.448 103.384 219.448 105C219.448 106.088 219.512 106.992 219.64 107.712C219.768 108.416 220.024 108.992 220.408 109.44C220.808 109.872 221.392 110.088 222.16 110.088C222.928 110.088 223.504 109.872 223.888 109.44C224.288 108.992 224.552 108.416 224.68 107.712C224.808 106.992 224.872 106.088 224.872 105ZM235.896 110.208L233.232 117.096H230.616L232.008 110.208H235.896ZM237.963 105C237.963 102.248 238.491 100.08 239.547 98.496C240.619 96.912 242.339 96.12 244.707 96.12C247.075 96.12 248.787 96.912 249.843 98.496C250.915 100.08 251.451 102.248 251.451 105C251.451 107.784 250.915 109.968 249.843 111.552C248.787 113.136 247.075 113.928 244.707 113.928C242.339 113.928 240.619 113.136 239.547 111.552C238.491 109.968 237.963 107.784 237.963 105ZM247.419 105C247.419 103.384 247.243 102.144 246.891 101.28C246.539 100.4 245.811 99.96 244.707 99.96C243.603 99.96 242.875 100.4 242.523 101.28C242.171 102.144 241.995 103.384 241.995 105C241.995 106.088 242.059 106.992 242.187 107.712C242.315 108.416 242.571 108.992 242.955 109.44C243.355 109.872 243.939 110.088 244.707 110.088C245.475 110.088 246.051 109.872 246.435 109.44C246.835 108.992 247.099 108.416 247.227 107.712C247.355 106.992 247.419 106.088 247.419 105ZM253.619 105C253.619 102.248 254.147 100.08 255.203 98.496C256.275 96.912 257.995 96.12 260.363 96.12C262.731 96.12 264.443 96.912 265.499 98.496C266.571 100.08 267.107 102.248 267.107 105C267.107 107.784 266.571 109.968 265.499 111.552C264.443 113.136 262.731 113.928 260.363 113.928C257.995 113.928 256.275 113.136 255.203 111.552C254.147 109.968 253.619 107.784 253.619 105ZM263.075 105C263.075 103.384 262.899 102.144 262.547 101.28C262.195 100.4 261.467 99.96 260.363 99.96C259.259 99.96 258.531 100.4 258.179 101.28C257.827 102.144 257.651 103.384 257.651 105C257.651 106.088 257.715 106.992 257.843 107.712C257.971 108.416 258.227 108.992 258.611 109.44C259.011 109.872 259.595 110.088 260.363 110.088C261.131 110.088 261.707 109.872 262.091 109.44C262.491 108.992 262.755 108.416 262.883 107.712C263.011 106.992 263.075 106.088 263.075 105Z" fill="white"/>
<path d="M150.347 124.177C150.605 124.06 150.886 124 151.169 124H261.196C263.266 124 263.973 126.758 262.158 127.753L254.867 131.753C254.572 131.915 254.241 132 253.905 132H142.3C140.146 132 139.514 129.062 141.477 128.177L150.347 124.177Z" fill="#5E60CE"/>
<path d="M312.406 87.3438V88.5156C312.406 88.8264 312.283 89.1245 312.063 89.3443C311.843 89.564 311.545 89.6875 311.234 89.6875H306.547C306.236 89.6875 305.938 89.564 305.718 89.3443C305.498 89.1245 305.375 88.8264 305.375 88.5156V81.4844C305.375 81.1736 305.498 80.8755 305.718 80.6557C305.938 80.436 306.236 80.3125 306.547 80.3125H311C311.647 80.3125 312.406 80.8372 312.406 81.4844V82.6562M314.281 87.3438L316.625 85L314.281 82.6562M308.656 85H316.156" stroke="#7B8CDE" stroke-linecap="round" stroke-linejoin="round"/>
<path d="M330.355 83.144C330.355 83.568 330.255 83.968 330.055 84.344C329.855 84.72 329.535 85.028 329.095 85.268C328.655 85.5 328.091 85.616 327.403 85.616H325.891V89H324.523V80.66H327.403C328.043 80.66 328.583 80.772 329.023 80.996C329.471 81.212 329.803 81.508 330.019 81.884C330.243 82.26 330.355 82.68 330.355 83.144ZM327.403 84.5C327.923 84.5 328.311 84.384 328.567 84.152C328.823 83.912 328.951 83.576 328.951 83.144C328.951 82.232 328.435 81.776 327.403 81.776H325.891V84.5H327.403ZM333.028 83.348C333.228 83.012 333.492 82.752 333.82 82.568C334.156 82.376 334.552 82.28 335.008 82.28V83.696H334.66C334.124 83.696 333.716 83.832 333.436 84.104C333.164 84.376 333.028 84.848 333.028 85.52V89H331.66V82.388H333.028V83.348ZM342.325 85.532C342.325 85.78 342.309 86.004 342.277 86.204H337.225C337.265 86.732 337.461 87.156 337.813 87.476C338.165 87.796 338.597 87.956 339.109 87.956C339.845 87.956 340.365 87.648 340.669 87.032H342.145C341.945 87.64 341.581 88.14 341.053 88.532C340.533 88.916 339.885 89.108 339.109 89.108C338.477 89.108 337.909 88.968 337.405 88.688C336.909 88.4 336.517 88 336.229 87.488C335.949 86.968 335.809 86.368 335.809 85.688C335.809 85.008 335.945 84.412 336.217 83.9C336.497 83.38 336.885 82.98 337.381 82.7C337.885 82.42 338.461 82.28 339.109 82.28C339.733 82.28 340.289 82.416 340.777 82.688C341.265 82.96 341.645 83.344 341.917 83.84C342.189 84.328 342.325 84.892 342.325 85.532ZM340.897 85.1C340.889 84.596 340.709 84.192 340.357 83.888C340.005 83.584 339.569 83.432 339.049 83.432C338.577 83.432 338.173 83.584 337.837 83.888C337.501 84.184 337.301 84.588 337.237 85.1H340.897ZM346.227 87.776L348.099 82.388H349.551L347.031 89H345.399L342.891 82.388H344.355L346.227 87.776ZM351.282 81.512C351.034 81.512 350.826 81.428 350.658 81.26C350.49 81.092 350.406 80.884 350.406 80.636C350.406 80.388 350.49 80.18 350.658 80.012C350.826 79.844 351.034 79.76 351.282 79.76C351.522 79.76 351.726 79.844 351.894 80.012C352.062 80.18 352.146 80.388 352.146 80.636C352.146 80.884 352.062 81.092 351.894 81.26C351.726 81.428 351.522 81.512 351.282 81.512ZM351.954 82.388V89H350.586V82.388H351.954ZM356.15 89.108C355.63 89.108 355.162 89.016 354.746 88.832C354.338 88.64 354.014 88.384 353.774 88.064C353.534 87.736 353.406 87.372 353.39 86.972H354.806C354.83 87.252 354.962 87.488 355.202 87.68C355.45 87.864 355.758 87.956 356.126 87.956C356.51 87.956 356.806 87.884 357.014 87.74C357.23 87.588 357.338 87.396 357.338 87.164C357.338 86.916 357.218 86.732 356.978 86.612C356.746 86.492 356.374 86.36 355.862 86.216C355.366 86.08 354.962 85.948 354.65 85.82C354.338 85.692 354.066 85.496 353.834 85.232C353.61 84.968 353.498 84.62 353.498 84.188C353.498 83.836 353.602 83.516 353.81 83.228C354.018 82.932 354.314 82.7 354.698 82.532C355.09 82.364 355.538 82.28 356.042 82.28C356.794 82.28 357.398 82.472 357.854 82.856C358.318 83.232 358.566 83.748 358.598 84.404H357.23C357.206 84.108 357.086 83.872 356.87 83.696C356.654 83.52 356.362 83.432 355.994 83.432C355.634 83.432 355.358 83.5 355.166 83.636C354.974 83.772 354.878 83.952 354.878 84.176C354.878 84.352 354.942 84.5 355.07 84.62C355.198 84.74 355.354 84.836 355.538 84.908C355.722 84.972 355.994 85.056 356.354 85.16C356.834 85.288 357.226 85.42 357.53 85.556C357.842 85.684 358.11 85.876 358.334 86.132C358.558 86.388 358.674 86.728 358.682 87.152C358.682 87.528 358.578 87.864 358.37 88.16C358.162 88.456 357.866 88.688 357.482 88.856C357.106 89.024 356.662 89.108 356.15 89.108ZM361.756 83.504V87.164C361.756 87.412 361.812 87.592 361.924 87.704C362.044 87.808 362.244 87.86 362.524 87.86H363.364V89H362.284C361.668 89 361.196 88.856 360.868 88.568C360.54 88.28 360.376 87.812 360.376 87.164V83.504H359.596V82.388H360.376V80.744H361.756V82.388H363.364V83.504H361.756ZM367.493 89.108C366.869 89.108 366.305 88.968 365.801 88.688C365.297 88.4 364.901 88 364.613 87.488C364.325 86.968 364.181 86.368 364.181 85.688C364.181 85.016 364.329 84.42 364.625 83.9C364.921 83.38 365.325 82.98 365.837 82.7C366.349 82.42 366.921 82.28 367.553 82.28C368.185 82.28 368.757 82.42 369.269 82.7C369.781 82.98 370.185 83.38 370.481 83.9C370.777 84.42 370.925 85.016 370.925 85.688C370.925 86.36 370.773 86.956 370.469 87.476C370.165 87.996 369.749 88.4 369.221 88.688C368.701 88.968 368.125 89.108 367.493 89.108ZM367.493 87.92C367.845 87.92 368.173 87.836 368.477 87.668C368.789 87.5 369.041 87.248 369.233 86.912C369.425 86.576 369.521 86.168 369.521 85.688C369.521 85.208 369.429 84.804 369.245 84.476C369.061 84.14 368.817 83.888 368.513 83.72C368.209 83.552 367.881 83.468 367.529 83.468C367.177 83.468 366.849 83.552 366.545 83.72C366.249 83.888 366.013 84.14 365.837 84.476C365.661 84.804 365.573 85.208 365.573 85.688C365.573 86.4 365.753 86.952 366.113 87.344C366.481 87.728 366.941 87.92 367.493 87.92Z" fill="#9A9AB5"/>
<path d="M307.232 116.5L305.312 113.164H304.268V116.5H302.9V108.16H305.78C306.42 108.16 306.96 108.272 307.4 108.496C307.848 108.72 308.18 109.02 308.396 109.396C308.62 109.772 308.732 110.192 308.732 110.656C308.732 111.2 308.572 111.696 308.252 112.144C307.94 112.584 307.456 112.884 306.8 113.044L308.864 116.5H307.232ZM304.268 112.072H305.78C306.292 112.072 306.676 111.944 306.932 111.688C307.196 111.432 307.328 111.088 307.328 110.656C307.328 110.224 307.2 109.888 306.944 109.648C306.688 109.4 306.3 109.276 305.78 109.276H304.268V112.072ZM316.11 114.124C316.11 114.524 316.01 114.9 315.81 115.252C315.618 115.604 315.33 115.9 314.946 116.14C314.57 116.38 314.122 116.524 313.602 116.572V117.544H312.822V116.572C312.07 116.5 311.462 116.264 310.998 115.864C310.534 115.464 310.302 114.936 310.302 114.28H311.766C311.79 114.592 311.89 114.852 312.066 115.06C312.242 115.26 312.494 115.388 312.822 115.444V112.804C312.286 112.668 311.85 112.532 311.514 112.396C311.178 112.252 310.89 112.028 310.65 111.724C310.418 111.42 310.302 111.004 310.302 110.476C310.302 109.812 310.534 109.264 310.998 108.832C311.462 108.392 312.07 108.136 312.822 108.064V107.092H313.602V108.064C314.306 108.128 314.87 108.352 315.294 108.736C315.726 109.112 315.97 109.632 316.026 110.296H314.562C314.538 110.048 314.442 109.828 314.274 109.636C314.106 109.436 313.882 109.3 313.602 109.228V111.82C314.138 111.948 314.574 112.084 314.91 112.228C315.246 112.364 315.53 112.584 315.762 112.888C315.994 113.184 316.11 113.596 316.11 114.124ZM311.694 110.404C311.694 110.732 311.79 110.988 311.982 111.172C312.182 111.356 312.462 111.504 312.822 111.616V109.192C312.478 109.232 312.202 109.356 311.994 109.564C311.794 109.772 311.694 110.052 311.694 110.404ZM313.602 115.444C313.954 115.388 314.23 115.248 314.43 115.024C314.63 114.792 314.73 114.516 314.73 114.196C314.73 113.876 314.63 113.628 314.43 113.452C314.238 113.268 313.962 113.12 313.602 113.008V115.444Z" fill="#9A9AB5"/>
<path d="M332.396 107.462L327.392 119H325.322L330.38 107.678H323.72V105.932H332.396V107.462ZM334.116 109.118C334.188 108.002 334.614 107.132 335.394 106.508C336.186 105.884 337.194 105.572 338.418 105.572C339.258 105.572 339.984 105.722 340.596 106.022C341.208 106.322 341.67 106.73 341.982 107.246C342.294 107.762 342.45 108.344 342.45 108.992C342.45 109.736 342.252 110.372 341.856 110.9C341.46 111.428 340.986 111.782 340.434 111.962V112.034C341.142 112.25 341.694 112.646 342.09 113.222C342.486 113.786 342.684 114.512 342.684 115.4C342.684 116.108 342.522 116.738 342.198 117.29C341.874 117.842 341.394 118.28 340.758 118.604C340.122 118.916 339.36 119.072 338.472 119.072C337.176 119.072 336.108 118.742 335.268 118.082C334.44 117.41 333.996 116.45 333.936 115.202H335.916C335.964 115.838 336.21 116.36 336.654 116.768C337.098 117.164 337.698 117.362 338.454 117.362C339.186 117.362 339.75 117.164 340.146 116.768C340.542 116.36 340.74 115.838 340.74 115.202C340.74 114.362 340.47 113.768 339.93 113.42C339.402 113.06 338.586 112.88 337.482 112.88H337.014V111.188H337.5C338.472 111.176 339.21 111.014 339.714 110.702C340.23 110.39 340.488 109.898 340.488 109.226C340.488 108.65 340.302 108.194 339.93 107.858C339.558 107.51 339.03 107.336 338.346 107.336C337.674 107.336 337.152 107.51 336.78 107.858C336.408 108.194 336.186 108.614 336.114 109.118H334.116ZM344.57 107.75V105.878H348.314V119H346.244V107.75H344.57ZM353.653 116.534L351.475 121.502H350.143L351.421 116.534H353.653ZM354.924 116.264V114.716L360.972 106.04H363.456V114.482H365.13V116.264H363.456V119H361.44V116.264H354.924ZM361.53 108.128L357.282 114.482H361.53V108.128ZM366.56 107.75V105.878H370.304V119H368.234V107.75H366.56Z" fill="#2EC27E"/>
<path d="M310.765 126.321C311.089 126.112 311.466 126 311.852 126H367.231C369.129 126 369.96 128.396 368.469 129.571L365.932 131.571C365.579 131.849 365.143 132 364.694 132H308.765C306.773 132 306.006 129.405 307.678 128.321L310.765 126.321Z" fill="#7B8CDE"/>
<g filter="url(#filter0_d_1_4)">
<rect x="30" y="152" width="166" height="70" rx="10" fill="#383550"/>
<path d="M65 174.5C58.0968 174.5 52.5 180.097 52.5 187C52.5 193.903 58.0968 199.5 65 199.5C71.9032 199.5 77.5 193.903 77.5 187C77.5 180.097 71.9032 174.5 65 174.5ZM69.8131 187.962L65.9615 184.141V193.13H64.0385V184.141L60.1869 187.962L58.8323 186.597L65 180.477L71.1677 186.597L69.8131 187.962Z" fill="#2EC27E"/>
<path d="M127.991 172.264V174.712H130.871V175.828H127.991V178.384H131.231V179.5H126.623V171.148H131.231V172.264H127.991ZM136.252 172.78C136.772 172.78 137.236 172.888 137.644 173.104C138.06 173.32 138.384 173.64 138.616 174.064C138.848 174.488 138.964 175 138.964 175.6V179.5H137.608V175.804C137.608 175.212 137.46 174.76 137.164 174.448C136.868 174.128 136.464 173.968 135.952 173.968C135.44 173.968 135.032 174.128 134.728 174.448C134.432 174.76 134.284 175.212 134.284 175.804V179.5H132.916V172.888H134.284V173.644C134.508 173.372 134.792 173.16 135.136 173.008C135.488 172.856 135.86 172.78 136.252 172.78ZM142.305 174.004V177.664C142.305 177.912 142.361 178.092 142.473 178.204C142.593 178.308 142.793 178.36 143.073 178.36H143.913V179.5H142.833C142.217 179.5 141.745 179.356 141.417 179.068C141.089 178.78 140.925 178.312 140.925 177.664V174.004H140.145V172.888H140.925V171.244H142.305V172.888H143.913V174.004H142.305ZM146.541 173.848C146.741 173.512 147.005 173.252 147.333 173.068C147.669 172.876 148.065 172.78 148.521 172.78V174.196H148.173C147.637 174.196 147.229 174.332 146.949 174.604C146.677 174.876 146.541 175.348 146.541 176.02V179.5H145.173V172.888H146.541V173.848ZM149.323 176.164C149.323 175.5 149.459 174.912 149.731 174.4C150.011 173.888 150.387 173.492 150.859 173.212C151.339 172.924 151.867 172.78 152.443 172.78C152.963 172.78 153.415 172.884 153.799 173.092C154.191 173.292 154.503 173.544 154.735 173.848V172.888H156.115V179.5H154.735V178.516C154.503 178.828 154.187 179.088 153.787 179.296C153.387 179.504 152.931 179.608 152.419 179.608C151.851 179.608 151.331 179.464 150.859 179.176C150.387 178.88 150.011 178.472 149.731 177.952C149.459 177.424 149.323 176.828 149.323 176.164ZM154.735 176.188C154.735 175.732 154.639 175.336 154.447 175C154.263 174.664 154.019 174.408 153.715 174.232C153.411 174.056 153.083 173.968 152.731 173.968C152.379 173.968 152.051 174.056 151.747 174.232C151.443 174.4 151.195 174.652 151.003 174.988C150.819 175.316 150.727 175.708 150.727 176.164C150.727 176.62 150.819 177.02 151.003 177.364C151.195 177.708 151.443 177.972 151.747 178.156C152.059 178.332 152.387 178.42 152.731 178.42C153.083 178.42 153.411 178.332 153.715 178.156C154.019 177.98 154.263 177.724 154.447 177.388C154.639 177.044 154.735 176.644 154.735 176.188ZM157.456 176.164C157.456 175.5 157.592 174.912 157.864 174.4C158.144 173.888 158.52 173.492 158.992 173.212C159.472 172.924 160.004 172.78 160.588 172.78C161.02 172.78 161.444 172.876 161.86 173.068C162.284 173.252 162.62 173.5 162.868 173.812V170.62H164.248V179.5H162.868V178.504C162.644 178.824 162.332 179.088 161.932 179.296C161.54 179.504 161.088 179.608 160.576 179.608C160 179.608 159.472 179.464 158.992 179.176C158.52 178.88 158.144 178.472 157.864 177.952C157.592 177.424 157.456 176.828 157.456 176.164ZM162.868 176.188C162.868 175.732 162.772 175.336 162.58 175C162.396 174.664 162.152 174.408 161.848 174.232C161.544 174.056 161.216 173.968 160.864 173.968C160.512 173.968 160.184 174.056 159.88 174.232C159.576 174.4 159.328 174.652 159.136 174.988C158.952 175.316 158.86 175.708 158.86 176.164C158.86 176.62 158.952 177.02 159.136 177.364C159.328 177.708 159.576 177.972 159.88 178.156C160.192 178.332 160.52 178.42 160.864 178.42C161.216 178.42 161.544 178.332 161.848 178.156C162.152 177.98 162.396 177.724 162.58 177.388C162.772 177.044 162.868 176.644 162.868 176.188ZM165.589 176.164C165.589 175.5 165.725 174.912 165.997 174.4C166.277 173.888 166.653 173.492 167.125 173.212C167.605 172.924 168.133 172.78 168.709 172.78C169.229 172.78 169.681 172.884 170.065 173.092C170.457 173.292 170.769 173.544 171.001 173.848V172.888H172.381V179.5H171.001V178.516C170.769 178.828 170.453 179.088 170.053 179.296C169.653 179.504 169.197 179.608 168.685 179.608C168.117 179.608 167.597 179.464 167.125 179.176C166.653 178.88 166.277 178.472 165.997 177.952C165.725 177.424 165.589 176.828 165.589 176.164ZM171.001 176.188C171.001 175.732 170.905 175.336 170.713 175C170.529 174.664 170.285 174.408 169.981 174.232C169.677 174.056 169.349 173.968 168.997 173.968C168.645 173.968 168.317 174.056 168.013 174.232C167.709 174.4 167.461 174.652 167.269 174.988C167.085 175.316 166.993 175.708 166.993 176.164C166.993 176.62 167.085 177.02 167.269 177.364C167.461 177.708 167.709 177.972 168.013 178.156C168.325 178.332 168.653 178.42 168.997 178.42C169.349 178.42 169.677 178.332 169.981 178.156C170.285 177.98 170.529 177.724 170.713 177.388C170.905 177.044 171.001 176.644 171.001 176.188Z" fill="#CFCFE4"/>
<path d="M98.604 201.5L96.364 197.608H95.146V201.5H93.55V191.77H96.91C97.6567 191.77 98.2867 191.901 98.8 192.162C99.3227 192.423 99.71 192.773 99.962 193.212C100.223 193.651 100.354 194.141 100.354 194.682C100.354 195.317 100.167 195.895 99.794 196.418C99.43 196.931 98.8653 197.281 98.1 197.468L100.508 201.5H98.604ZM95.146 196.334H96.91C97.5073 196.334 97.9553 196.185 98.254 195.886C98.562 195.587 98.716 195.186 98.716 194.682C98.716 194.178 98.5667 193.786 98.268 193.506C97.9693 193.217 97.5167 193.072 96.91 193.072H95.146V196.334ZM108.962 198.728C108.962 199.195 108.845 199.633 108.612 200.044C108.388 200.455 108.052 200.8 107.604 201.08C107.165 201.36 106.642 201.528 106.036 201.584V202.718H105.126V201.584C104.248 201.5 103.539 201.225 102.998 200.758C102.456 200.291 102.186 199.675 102.186 198.91H103.894C103.922 199.274 104.038 199.577 104.244 199.82C104.449 200.053 104.743 200.203 105.126 200.268V197.188C104.5 197.029 103.992 196.871 103.6 196.712C103.208 196.544 102.872 196.283 102.592 195.928C102.321 195.573 102.186 195.088 102.186 194.472C102.186 193.697 102.456 193.058 102.998 192.554C103.539 192.041 104.248 191.742 105.126 191.658V190.524H106.036V191.658C106.857 191.733 107.515 191.994 108.01 192.442C108.514 192.881 108.798 193.487 108.864 194.262H107.156C107.128 193.973 107.016 193.716 106.82 193.492C106.624 193.259 106.362 193.1 106.036 193.016V196.04C106.661 196.189 107.17 196.348 107.562 196.516C107.954 196.675 108.285 196.931 108.556 197.286C108.826 197.631 108.962 198.112 108.962 198.728ZM103.81 194.388C103.81 194.771 103.922 195.069 104.146 195.284C104.379 195.499 104.706 195.671 105.126 195.802V192.974C104.724 193.021 104.402 193.165 104.16 193.408C103.926 193.651 103.81 193.977 103.81 194.388ZM106.036 200.268C106.446 200.203 106.768 200.039 107.002 199.778C107.235 199.507 107.352 199.185 107.352 198.812C107.352 198.439 107.235 198.149 107.002 197.944C106.778 197.729 106.456 197.557 106.036 197.426V200.268ZM120.416 193.66C120.313 193.231 120.127 192.909 119.856 192.694C119.585 192.479 119.207 192.372 118.722 192.372C117.985 192.372 117.434 192.657 117.07 193.226C116.706 193.786 116.515 194.719 116.496 196.026C116.739 195.615 117.093 195.298 117.56 195.074C118.027 194.85 118.531 194.738 119.072 194.738C119.688 194.738 120.229 194.873 120.696 195.144C121.172 195.405 121.541 195.788 121.802 196.292C122.073 196.796 122.208 197.398 122.208 198.098C122.208 198.751 122.077 199.335 121.816 199.848C121.564 200.361 121.186 200.767 120.682 201.066C120.178 201.355 119.571 201.5 118.862 201.5C117.901 201.5 117.145 201.29 116.594 200.87C116.053 200.441 115.67 199.839 115.446 199.064C115.231 198.289 115.124 197.323 115.124 196.166C115.124 192.75 116.328 191.042 118.736 191.042C119.669 191.042 120.402 191.294 120.934 191.798C121.475 192.302 121.793 192.923 121.886 193.66H120.416ZM118.722 196.082C118.153 196.082 117.667 196.255 117.266 196.6C116.874 196.936 116.678 197.426 116.678 198.07C116.678 198.714 116.86 199.227 117.224 199.61C117.597 199.983 118.115 200.17 118.778 200.17C119.366 200.17 119.828 199.988 120.164 199.624C120.509 199.26 120.682 198.775 120.682 198.168C120.682 197.533 120.514 197.029 120.178 196.656C119.851 196.273 119.366 196.082 118.722 196.082ZM124.764 201.598C124.475 201.598 124.232 201.5 124.036 201.304C123.84 201.108 123.742 200.865 123.742 200.576C123.742 200.287 123.84 200.044 124.036 199.848C124.232 199.652 124.475 199.554 124.764 199.554C125.044 199.554 125.282 199.652 125.478 199.848C125.674 200.044 125.772 200.287 125.772 200.576C125.772 200.865 125.674 201.108 125.478 201.304C125.282 201.5 125.044 201.598 124.764 201.598ZM133.755 192.526L129.863 201.5H128.253L132.187 192.694H127.007V191.336H133.755V192.526ZM135.121 196.264C135.121 194.649 135.392 193.389 135.933 192.484C136.484 191.569 137.427 191.112 138.761 191.112C140.096 191.112 141.034 191.569 141.575 192.484C142.126 193.389 142.401 194.649 142.401 196.264C142.401 197.897 142.126 199.176 141.575 200.1C141.034 201.015 140.096 201.472 138.761 201.472C137.427 201.472 136.484 201.015 135.933 200.1C135.392 199.176 135.121 197.897 135.121 196.264ZM140.833 196.264C140.833 195.508 140.782 194.869 140.679 194.346C140.586 193.823 140.39 193.399 140.091 193.072C139.793 192.736 139.349 192.568 138.761 192.568C138.173 192.568 137.73 192.736 137.431 193.072C137.133 193.399 136.932 193.823 136.829 194.346C136.736 194.869 136.689 195.508 136.689 196.264C136.689 197.048 136.736 197.706 136.829 198.238C136.923 198.77 137.119 199.199 137.417 199.526C137.725 199.853 138.173 200.016 138.761 200.016C139.349 200.016 139.793 199.853 140.091 199.526C140.399 199.199 140.6 198.77 140.693 198.238C140.787 197.706 140.833 197.048 140.833 196.264ZM144.09 196.264C144.09 194.649 144.361 193.389 144.902 192.484C145.453 191.569 146.395 191.112 147.73 191.112C149.065 191.112 150.003 191.569 150.544 192.484C151.095 193.389 151.37 194.649 151.37 196.264C151.37 197.897 151.095 199.176 150.544 200.1C150.003 201.015 149.065 201.472 147.73 201.472C146.395 201.472 145.453 201.015 144.902 200.1C144.361 199.176 144.09 197.897 144.09 196.264ZM149.802 196.264C149.802 195.508 149.751 194.869 149.648 194.346C149.555 193.823 149.359 193.399 149.06 193.072C148.761 192.736 148.318 192.568 147.73 192.568C147.142 192.568 146.699 192.736 146.4 193.072C146.101 193.399 145.901 193.823 145.798 194.346C145.705 194.869 145.658 195.508 145.658 196.264C145.658 197.048 145.705 197.706 145.798 198.238C145.891 198.77 146.087 199.199 146.386 199.526C146.694 199.853 147.142 200.016 147.73 200.016C148.318 200.016 148.761 199.853 149.06 199.526C149.368 199.199 149.569 198.77 149.662 198.238C149.755 197.706 149.802 197.048 149.802 196.264ZM155.019 199.582L153.325 203.446H152.289L153.283 199.582H155.019ZM156.203 196.264C156.203 194.649 156.474 193.389 157.015 192.484C157.566 191.569 158.509 191.112 159.843 191.112C161.178 191.112 162.116 191.569 162.657 192.484C163.208 193.389 163.483 194.649 163.483 196.264C163.483 197.897 163.208 199.176 162.657 200.1C162.116 201.015 161.178 201.472 159.843 201.472C158.509 201.472 157.566 201.015 157.015 200.1C156.474 199.176 156.203 197.897 156.203 196.264ZM161.915 196.264C161.915 195.508 161.864 194.869 161.761 194.346C161.668 193.823 161.472 193.399 161.173 193.072C160.875 192.736 160.431 192.568 159.843 192.568C159.255 192.568 158.812 192.736 158.513 193.072C158.215 193.399 158.014 193.823 157.911 194.346C157.818 194.869 157.771 195.508 157.771 196.264C157.771 197.048 157.818 197.706 157.911 198.238C158.005 198.77 158.201 199.199 158.499 199.526C158.807 199.853 159.255 200.016 159.843 200.016C160.431 200.016 160.875 199.853 161.173 199.526C161.481 199.199 161.682 198.77 161.775 198.238C161.869 197.706 161.915 197.048 161.915 196.264ZM165.172 196.264C165.172 194.649 165.443 193.389 165.984 192.484C166.535 191.569 167.477 191.112 168.812 191.112C170.147 191.112 171.085 191.569 171.626 192.484C172.177 193.389 172.452 194.649 172.452 196.264C172.452 197.897 172.177 199.176 171.626 200.1C171.085 201.015 170.147 201.472 168.812 201.472C167.477 201.472 166.535 201.015 165.984 200.1C165.443 199.176 165.172 197.897 165.172 196.264ZM170.884 196.264C170.884 195.508 170.833 194.869 170.73 194.346C170.637 193.823 170.441 193.399 170.142 193.072C169.843 192.736 169.4 192.568 168.812 192.568C168.224 192.568 167.781 192.736 167.482 193.072C167.183 193.399 166.983 193.823 166.88 194.346C166.787 194.869 166.74 195.508 166.74 196.264C166.74 197.048 166.787 197.706 166.88 198.238C166.973 198.77 167.169 199.199 167.468 199.526C167.776 199.853 168.224 200.016 168.812 200.016C169.4 200.016 169.843 199.853 170.142 199.526C170.45 199.199 170.651 198.77 170.744 198.238C170.837 197.706 170.884 197.048 170.884 196.264Z" fill="white"/>
</g>
<g filter="url(#filter1_d_1_4)">
<rect x="216" y="152" width="166" height="70" rx="10" fill="#383550"/>
<path d="M237.648 178.584C237.088 178.584 236.584 178.488 236.136 178.296C235.688 178.096 235.336 177.816 235.08 177.456C234.824 177.096 234.696 176.676 234.696 176.196H236.16C236.192 176.556 236.332 176.852 236.58 177.084C236.836 177.316 237.192 177.432 237.648 177.432C238.12 177.432 238.488 177.32 238.752 177.096C239.016 176.864 239.148 176.568 239.148 176.208C239.148 175.928 239.064 175.7 238.896 175.524C238.736 175.348 238.532 175.212 238.284 175.116C238.044 175.02 237.708 174.916 237.276 174.804C236.732 174.66 236.288 174.516 235.944 174.372C235.608 174.22 235.32 173.988 235.08 173.676C234.84 173.364 234.72 172.948 234.72 172.428C234.72 171.948 234.84 171.528 235.08 171.168C235.32 170.808 235.656 170.532 236.088 170.34C236.52 170.148 237.02 170.052 237.588 170.052C238.396 170.052 239.056 170.256 239.568 170.664C240.088 171.064 240.376 171.616 240.432 172.32H238.92C238.896 172.016 238.752 171.756 238.488 171.54C238.224 171.324 237.876 171.216 237.444 171.216C237.052 171.216 236.732 171.316 236.484 171.516C236.236 171.716 236.112 172.004 236.112 172.38C236.112 172.636 236.188 172.848 236.34 173.016C236.5 173.176 236.7 173.304 236.94 173.4C237.18 173.496 237.508 173.6 237.924 173.712C238.476 173.864 238.924 174.016 239.268 174.168C239.62 174.32 239.916 174.556 240.156 174.876C240.404 175.188 240.528 175.608 240.528 176.136C240.528 176.56 240.412 176.96 240.18 177.336C239.956 177.712 239.624 178.016 239.184 178.248C238.752 178.472 238.24 178.584 237.648 178.584ZM241.686 175.164C241.686 174.5 241.822 173.912 242.094 173.4C242.374 172.888 242.75 172.492 243.222 172.212C243.702 171.924 244.23 171.78 244.806 171.78C245.326 171.78 245.778 171.884 246.162 172.092C246.554 172.292 246.866 172.544 247.098 172.848V171.888H248.478V178.5H247.098V177.516C246.866 177.828 246.55 178.088 246.15 178.296C245.75 178.504 245.294 178.608 244.782 178.608C244.214 178.608 243.694 178.464 243.222 178.176C242.75 177.88 242.374 177.472 242.094 176.952C241.822 176.424 241.686 175.828 241.686 175.164ZM247.098 175.188C247.098 174.732 247.002 174.336 246.81 174C246.626 173.664 246.382 173.408 246.078 173.232C245.774 173.056 245.446 172.968 245.094 172.968C244.742 172.968 244.414 173.056 244.11 173.232C243.806 173.4 243.558 173.652 243.366 173.988C243.182 174.316 243.09 174.708 243.09 175.164C243.09 175.62 243.182 176.02 243.366 176.364C243.558 176.708 243.806 176.972 244.11 177.156C244.422 177.332 244.75 177.42 245.094 177.42C245.446 177.42 245.774 177.332 246.078 177.156C246.382 176.98 246.626 176.724 246.81 176.388C247.002 176.044 247.098 175.644 247.098 175.188ZM251.643 171.888V178.5H250.275V171.888H251.643ZM252.195 170.112L249.543 171.42V170.412L252.195 168.948V170.112ZM252.983 175.164C252.983 174.5 253.119 173.912 253.391 173.4C253.671 172.888 254.047 172.492 254.519 172.212C254.999 171.924 255.531 171.78 256.115 171.78C256.547 171.78 256.971 171.876 257.387 172.068C257.811 172.252 258.147 172.5 258.395 172.812V169.62H259.775V178.5H258.395V177.504C258.171 177.824 257.859 178.088 257.459 178.296C257.067 178.504 256.615 178.608 256.103 178.608C255.527 178.608 254.999 178.464 254.519 178.176C254.047 177.88 253.671 177.472 253.391 176.952C253.119 176.424 252.983 175.828 252.983 175.164ZM258.395 175.188C258.395 174.732 258.299 174.336 258.107 174C257.923 173.664 257.679 173.408 257.375 173.232C257.071 173.056 256.743 172.968 256.391 172.968C256.039 172.968 255.711 173.056 255.407 173.232C255.103 173.4 254.855 173.652 254.663 173.988C254.479 174.316 254.387 174.708 254.387 175.164C254.387 175.62 254.479 176.02 254.663 176.364C254.855 176.708 255.103 176.972 255.407 177.156C255.719 177.332 256.047 177.42 256.391 177.42C256.743 177.42 257.071 177.332 257.375 177.156C257.679 176.98 257.923 176.724 258.107 176.388C258.299 176.044 258.395 175.644 258.395 175.188ZM261.116 175.164C261.116 174.5 261.252 173.912 261.524 173.4C261.804 172.888 262.18 172.492 262.652 172.212C263.132 171.924 263.66 171.78 264.236 171.78C264.756 171.78 265.208 171.884 265.592 172.092C265.984 172.292 266.296 172.544 266.528 172.848V171.888H267.908V178.5H266.528V177.516C266.296 177.828 265.98 178.088 265.58 178.296C265.18 178.504 264.724 178.608 264.212 178.608C263.644 178.608 263.124 178.464 262.652 178.176C262.18 177.88 261.804 177.472 261.524 176.952C261.252 176.424 261.116 175.828 261.116 175.164ZM266.528 175.188C266.528 174.732 266.432 174.336 266.24 174C266.056 173.664 265.812 173.408 265.508 173.232C265.204 173.056 264.876 172.968 264.524 172.968C264.172 172.968 263.844 173.056 263.54 173.232C263.236 173.4 262.988 173.652 262.796 173.988C262.612 174.316 262.52 174.708 262.52 175.164C262.52 175.62 262.612 176.02 262.796 176.364C262.988 176.708 263.236 176.972 263.54 177.156C263.852 177.332 264.18 177.42 264.524 177.42C264.876 177.42 265.204 177.332 265.508 177.156C265.812 176.98 266.056 176.724 266.24 176.388C266.432 176.044 266.528 175.644 266.528 175.188Z" fill="#CFCFE4"/>
<path d="M240.104 202.5L237.864 198.608H236.646V202.5H235.05V192.77H238.41C239.157 192.77 239.787 192.901 240.3 193.162C240.823 193.423 241.21 193.773 241.462 194.212C241.723 194.651 241.854 195.141 241.854 195.682C241.854 196.317 241.667 196.895 241.294 197.418C240.93 197.931 240.365 198.281 239.6 198.468L242.008 202.5H240.104ZM236.646 197.334H238.41C239.007 197.334 239.455 197.185 239.754 196.886C240.062 196.587 240.216 196.186 240.216 195.682C240.216 195.178 240.067 194.786 239.768 194.506C239.469 194.217 239.017 194.072 238.41 194.072H236.646V197.334ZM250.462 199.728C250.462 200.195 250.345 200.633 250.112 201.044C249.888 201.455 249.552 201.8 249.104 202.08C248.665 202.36 248.142 202.528 247.536 202.584V203.718H246.626V202.584C245.748 202.5 245.039 202.225 244.498 201.758C243.956 201.291 243.686 200.675 243.686 199.91H245.394C245.422 200.274 245.538 200.577 245.744 200.82C245.949 201.053 246.243 201.203 246.626 201.268V198.188C246 198.029 245.492 197.871 245.1 197.712C244.708 197.544 244.372 197.283 244.092 196.928C243.821 196.573 243.686 196.088 243.686 195.472C243.686 194.697 243.956 194.058 244.498 193.554C245.039 193.041 245.748 192.742 246.626 192.658V191.524H247.536V192.658C248.357 192.733 249.015 192.994 249.51 193.442C250.014 193.881 250.298 194.487 250.364 195.262H248.656C248.628 194.973 248.516 194.716 248.32 194.492C248.124 194.259 247.862 194.1 247.536 194.016V197.04C248.161 197.189 248.67 197.348 249.062 197.516C249.454 197.675 249.785 197.931 250.056 198.286C250.326 198.631 250.462 199.112 250.462 199.728ZM245.31 195.388C245.31 195.771 245.422 196.069 245.646 196.284C245.879 196.499 246.206 196.671 246.626 196.802V193.974C246.224 194.021 245.902 194.165 245.66 194.408C245.426 194.651 245.31 194.977 245.31 195.388ZM247.536 201.268C247.946 201.203 248.268 201.039 248.502 200.778C248.735 200.507 248.852 200.185 248.852 199.812C248.852 199.439 248.735 199.149 248.502 198.944C248.278 198.729 247.956 198.557 247.536 198.426V201.268ZM261.916 194.66C261.813 194.231 261.627 193.909 261.356 193.694C261.085 193.479 260.707 193.372 260.222 193.372C259.485 193.372 258.934 193.657 258.57 194.226C258.206 194.786 258.015 195.719 257.996 197.026C258.239 196.615 258.593 196.298 259.06 196.074C259.527 195.85 260.031 195.738 260.572 195.738C261.188 195.738 261.729 195.873 262.196 196.144C262.672 196.405 263.041 196.788 263.302 197.292C263.573 197.796 263.708 198.398 263.708 199.098C263.708 199.751 263.577 200.335 263.316 200.848C263.064 201.361 262.686 201.767 262.182 202.066C261.678 202.355 261.071 202.5 260.362 202.5C259.401 202.5 258.645 202.29 258.094 201.87C257.553 201.441 257.17 200.839 256.946 200.064C256.731 199.289 256.624 198.323 256.624 197.166C256.624 193.75 257.828 192.042 260.236 192.042C261.169 192.042 261.902 192.294 262.434 192.798C262.975 193.302 263.293 193.923 263.386 194.66H261.916ZM260.222 197.082C259.653 197.082 259.167 197.255 258.766 197.6C258.374 197.936 258.178 198.426 258.178 199.07C258.178 199.714 258.36 200.227 258.724 200.61C259.097 200.983 259.615 201.17 260.278 201.17C260.866 201.17 261.328 200.988 261.664 200.624C262.009 200.26 262.182 199.775 262.182 199.168C262.182 198.533 262.014 198.029 261.678 197.656C261.351 197.273 260.866 197.082 260.222 197.082ZM266.264 202.598C265.975 202.598 265.732 202.5 265.536 202.304C265.34 202.108 265.242 201.865 265.242 201.576C265.242 201.287 265.34 201.044 265.536 200.848C265.732 200.652 265.975 200.554 266.264 200.554C266.544 200.554 266.782 200.652 266.978 200.848C267.174 201.044 267.272 201.287 267.272 201.576C267.272 201.865 267.174 202.108 266.978 202.304C266.782 202.5 266.544 202.598 266.264 202.598ZM268.591 200.372V199.168L273.295 192.42H275.227V198.986H276.529V200.372H275.227V202.5H273.659V200.372H268.591ZM273.729 194.044L270.425 198.986H273.729V194.044ZM277.656 200.372V199.168L282.36 192.42H284.292V198.986H285.594V200.372H284.292V202.5H282.724V200.372H277.656ZM282.794 194.044L279.49 198.986H282.794V194.044ZM287.798 200.33C288.694 199.555 289.399 198.921 289.912 198.426C290.435 197.922 290.869 197.399 291.214 196.858C291.56 196.317 291.732 195.775 291.732 195.234C291.732 194.674 291.597 194.235 291.326 193.918C291.065 193.601 290.65 193.442 290.08 193.442C289.53 193.442 289.1 193.619 288.792 193.974C288.494 194.319 288.335 194.786 288.316 195.374H286.776C286.804 194.31 287.122 193.498 287.728 192.938C288.344 192.369 289.124 192.084 290.066 192.084C291.084 192.084 291.877 192.364 292.446 192.924C293.025 193.484 293.314 194.231 293.314 195.164C293.314 195.836 293.142 196.485 292.796 197.11C292.46 197.726 292.054 198.281 291.578 198.776C291.112 199.261 290.514 199.826 289.786 200.47L289.156 201.03H293.594V202.36H286.79V201.198L287.798 200.33ZM296.956 200.582L295.262 204.446H294.226L295.22 200.582H296.956ZM297.931 193.75V192.294H300.843V202.5H299.233V193.75H297.931ZM302.839 200.372V199.168L307.543 192.42H309.475V198.986H310.777V200.372H309.475V202.5H307.907V200.372H302.839ZM307.977 194.044L304.673 198.986H307.977V194.044Z" fill="white"/>
<path d="M351.5 199.5C358.403 199.5 364 193.903 364 187C364 180.097 358.403 174.5 351.5 174.5C344.597 174.5 339 180.097 339 187C339 193.903 344.597 199.5 351.5 199.5ZM346.687 186.038L350.538 189.859V180.87H352.462V189.859L356.313 186.038L357.668 187.403L351.5 193.523L345.332 187.403L346.687 186.038Z" fill="#EF476F"/>
</g>
<g clip-path="url(#clip1_1_4)">
<path d="M125.728 244.27C126.764 244.27 127.669 244.471 128.444 244.872C129.228 245.264 129.83 245.833 130.25 246.58C130.679 247.317 130.894 248.181 130.894 249.17C130.894 250.159 130.679 251.018 130.25 251.746C129.83 252.474 129.228 253.034 128.444 253.426C127.669 253.809 126.764 254 125.728 254H122.55V244.27H125.728ZM125.728 252.698C126.867 252.698 127.739 252.39 128.346 251.774C128.953 251.158 129.256 250.29 129.256 249.17C129.256 248.041 128.953 247.159 128.346 246.524C127.739 245.889 126.867 245.572 125.728 245.572H124.146V252.698H125.728ZM139.546 249.954C139.546 250.243 139.527 250.505 139.49 250.738H133.596C133.642 251.354 133.871 251.849 134.282 252.222C134.692 252.595 135.196 252.782 135.794 252.782C136.652 252.782 137.259 252.423 137.614 251.704H139.336C139.102 252.413 138.678 252.997 138.062 253.454C137.455 253.902 136.699 254.126 135.794 254.126C135.056 254.126 134.394 253.963 133.806 253.636C133.227 253.3 132.77 252.833 132.434 252.236C132.107 251.629 131.944 250.929 131.944 250.136C131.944 249.343 132.102 248.647 132.42 248.05C132.746 247.443 133.199 246.977 133.778 246.65C134.366 246.323 135.038 246.16 135.794 246.16C136.522 246.16 137.17 246.319 137.74 246.636C138.309 246.953 138.752 247.401 139.07 247.98C139.387 248.549 139.546 249.207 139.546 249.954ZM137.88 249.45C137.87 248.862 137.66 248.391 137.25 248.036C136.839 247.681 136.33 247.504 135.724 247.504C135.173 247.504 134.702 247.681 134.31 248.036C133.918 248.381 133.684 248.853 133.61 249.45H137.88ZM143.916 254.126C143.31 254.126 142.764 254.019 142.278 253.804C141.802 253.58 141.424 253.281 141.144 252.908C140.864 252.525 140.715 252.101 140.696 251.634H142.348C142.376 251.961 142.53 252.236 142.81 252.46C143.1 252.675 143.459 252.782 143.888 252.782C144.336 252.782 144.682 252.698 144.924 252.53C145.176 252.353 145.302 252.129 145.302 251.858C145.302 251.569 145.162 251.354 144.882 251.214C144.612 251.074 144.178 250.92 143.58 250.752C143.002 250.593 142.53 250.439 142.166 250.29C141.802 250.141 141.485 249.912 141.214 249.604C140.953 249.296 140.822 248.89 140.822 248.386C140.822 247.975 140.944 247.602 141.186 247.266C141.429 246.921 141.774 246.65 142.222 246.454C142.68 246.258 143.202 246.16 143.79 246.16C144.668 246.16 145.372 246.384 145.904 246.832C146.446 247.271 146.735 247.873 146.772 248.638H145.176C145.148 248.293 145.008 248.017 144.756 247.812C144.504 247.607 144.164 247.504 143.734 247.504C143.314 247.504 142.992 247.583 142.768 247.742C142.544 247.901 142.432 248.111 142.432 248.372C142.432 248.577 142.507 248.75 142.656 248.89C142.806 249.03 142.988 249.142 143.202 249.226C143.417 249.301 143.734 249.399 144.154 249.52C144.714 249.669 145.172 249.823 145.526 249.982C145.89 250.131 146.203 250.355 146.464 250.654C146.726 250.953 146.861 251.349 146.87 251.844C146.87 252.283 146.749 252.675 146.506 253.02C146.264 253.365 145.918 253.636 145.47 253.832C145.032 254.028 144.514 254.126 143.916 254.126ZM150.191 247.42C150.462 247.065 150.83 246.767 151.297 246.524C151.764 246.281 152.291 246.16 152.879 246.16C153.551 246.16 154.162 246.328 154.713 246.664C155.273 246.991 155.712 247.453 156.029 248.05C156.346 248.647 156.505 249.333 156.505 250.108C156.505 250.883 156.346 251.578 156.029 252.194C155.712 252.801 155.273 253.277 154.713 253.622C154.162 253.958 153.551 254.126 152.879 254.126C152.291 254.126 151.768 254.009 151.311 253.776C150.854 253.533 150.48 253.235 150.191 252.88V257.668H148.595V246.286H150.191V247.42ZM154.881 250.108C154.881 249.576 154.769 249.119 154.545 248.736C154.33 248.344 154.041 248.05 153.677 247.854C153.322 247.649 152.94 247.546 152.529 247.546C152.128 247.546 151.745 247.649 151.381 247.854C151.026 248.059 150.737 248.358 150.513 248.75C150.298 249.142 150.191 249.604 150.191 250.136C150.191 250.668 150.298 251.135 150.513 251.536C150.737 251.928 151.026 252.227 151.381 252.432C151.745 252.637 152.128 252.74 152.529 252.74C152.94 252.74 153.322 252.637 153.677 252.432C154.041 252.217 154.33 251.909 154.545 251.508C154.769 251.107 154.881 250.64 154.881 250.108ZM165.153 249.954C165.153 250.243 165.135 250.505 165.097 250.738H159.203C159.25 251.354 159.479 251.849 159.889 252.222C160.3 252.595 160.804 252.782 161.401 252.782C162.26 252.782 162.867 252.423 163.221 251.704H164.943C164.71 252.413 164.285 252.997 163.669 253.454C163.063 253.902 162.307 254.126 161.401 254.126C160.664 254.126 160.001 253.963 159.413 253.636C158.835 253.3 158.377 252.833 158.041 252.236C157.715 251.629 157.551 250.929 157.551 250.136C157.551 249.343 157.71 248.647 158.027 248.05C158.354 247.443 158.807 246.977 159.385 246.65C159.973 246.323 160.645 246.16 161.401 246.16C162.129 246.16 162.778 246.319 163.347 246.636C163.917 246.953 164.36 247.401 164.677 247.98C164.995 248.549 165.153 249.207 165.153 249.954ZM163.487 249.45C163.478 248.862 163.268 248.391 162.857 248.036C162.447 247.681 161.938 247.504 161.331 247.504C160.781 247.504 160.309 247.681 159.917 248.036C159.525 248.381 159.292 248.853 159.217 249.45H163.487ZM169.524 254.126C168.917 254.126 168.371 254.019 167.886 253.804C167.41 253.58 167.032 253.281 166.752 252.908C166.472 252.525 166.322 252.101 166.304 251.634H167.956C167.984 251.961 168.138 252.236 168.418 252.46C168.707 252.675 169.066 252.782 169.496 252.782C169.944 252.782 170.289 252.698 170.532 252.53C170.784 252.353 170.91 252.129 170.91 251.858C170.91 251.569 170.77 251.354 170.49 251.214C170.219 251.074 169.785 250.92 169.188 250.752C168.609 250.593 168.138 250.439 167.774 250.29C167.41 250.141 167.092 249.912 166.822 249.604C166.56 249.296 166.43 248.89 166.43 248.386C166.43 247.975 166.551 247.602 166.794 247.266C167.036 246.921 167.382 246.65 167.83 246.454C168.287 246.258 168.81 246.16 169.398 246.16C170.275 246.16 170.98 246.384 171.512 246.832C172.053 247.271 172.342 247.873 172.38 248.638H170.784C170.756 248.293 170.616 248.017 170.364 247.812C170.112 247.607 169.771 247.504 169.342 247.504C168.922 247.504 168.6 247.583 168.376 247.742C168.152 247.901 168.04 248.111 168.04 248.372C168.04 248.577 168.114 248.75 168.264 248.89C168.413 249.03 168.595 249.142 168.81 249.226C169.024 249.301 169.342 249.399 169.762 249.52C170.322 249.669 170.779 249.823 171.134 249.982C171.498 250.131 171.81 250.355 172.072 250.654C172.333 250.953 172.468 251.349 172.478 251.844C172.478 252.283 172.356 252.675 172.114 253.02C171.871 253.365 171.526 253.636 171.078 253.832C170.639 254.028 170.121 254.126 169.524 254.126ZM173.67 250.108C173.67 249.333 173.829 248.647 174.146 248.05C174.473 247.453 174.912 246.991 175.462 246.664C176.022 246.328 176.638 246.16 177.31 246.16C177.917 246.16 178.444 246.281 178.892 246.524C179.35 246.757 179.714 247.051 179.984 247.406V246.286H181.594V254H179.984V252.852C179.714 253.216 179.345 253.519 178.878 253.762C178.412 254.005 177.88 254.126 177.282 254.126C176.62 254.126 176.013 253.958 175.462 253.622C174.912 253.277 174.473 252.801 174.146 252.194C173.829 251.578 173.67 250.883 173.67 250.108ZM179.984 250.136C179.984 249.604 179.872 249.142 179.648 248.75C179.434 248.358 179.149 248.059 178.794 247.854C178.44 247.649 178.057 247.546 177.646 247.546C177.236 247.546 176.853 247.649 176.498 247.854C176.144 248.05 175.854 248.344 175.63 248.736C175.416 249.119 175.308 249.576 175.308 250.108C175.308 250.64 175.416 251.107 175.63 251.508C175.854 251.909 176.144 252.217 176.498 252.432C176.862 252.637 177.245 252.74 177.646 252.74C178.057 252.74 178.44 252.637 178.794 252.432C179.149 252.227 179.434 251.928 179.648 251.536C179.872 251.135 179.984 250.668 179.984 250.136ZM186.491 254.126C185.884 254.126 185.338 254.019 184.853 253.804C184.377 253.58 183.999 253.281 183.719 252.908C183.439 252.525 183.289 252.101 183.271 251.634H184.923C184.951 251.961 185.105 252.236 185.385 252.46C185.674 252.675 186.033 252.782 186.463 252.782C186.911 252.782 187.256 252.698 187.499 252.53C187.751 252.353 187.877 252.129 187.877 251.858C187.877 251.569 187.737 251.354 187.457 251.214C187.186 251.074 186.752 250.92 186.155 250.752C185.576 250.593 185.105 250.439 184.741 250.29C184.377 250.141 184.059 249.912 183.789 249.604C183.527 249.296 183.397 248.89 183.397 248.386C183.397 247.975 183.518 247.602 183.761 247.266C184.003 246.921 184.349 246.65 184.797 246.454C185.254 246.258 185.777 246.16 186.365 246.16C187.242 246.16 187.947 246.384 188.479 246.832C189.02 247.271 189.309 247.873 189.347 248.638H187.751C187.723 248.293 187.583 248.017 187.331 247.812C187.079 247.607 186.738 247.504 186.309 247.504C185.889 247.504 185.567 247.583 185.343 247.742C185.119 247.901 185.007 248.111 185.007 248.372C185.007 248.577 185.081 248.75 185.231 248.89C185.38 249.03 185.562 249.142 185.777 249.226C185.991 249.301 186.309 249.399 186.729 249.52C187.289 249.669 187.746 249.823 188.101 249.982C188.465 250.131 188.777 250.355 189.039 250.654C189.3 250.953 189.435 251.349 189.445 251.844C189.445 252.283 189.323 252.675 189.081 253.02C188.838 253.365 188.493 253.636 188.045 253.832C187.606 254.028 187.088 254.126 186.491 254.126ZM196.402 247.42C196.673 247.065 197.041 246.767 197.508 246.524C197.975 246.281 198.502 246.16 199.09 246.16C199.762 246.16 200.373 246.328 200.924 246.664C201.484 246.991 201.923 247.453 202.24 248.05C202.557 248.647 202.716 249.333 202.716 250.108C202.716 250.883 202.557 251.578 202.24 252.194C201.923 252.801 201.484 253.277 200.924 253.622C200.373 253.958 199.762 254.126 199.09 254.126C198.502 254.126 197.979 254.009 197.522 253.776C197.065 253.533 196.691 253.235 196.402 252.88V257.668H194.806V246.286H196.402V247.42ZM201.092 250.108C201.092 249.576 200.98 249.119 200.756 248.736C200.541 248.344 200.252 248.05 199.888 247.854C199.533 247.649 199.151 247.546 198.74 247.546C198.339 247.546 197.956 247.649 197.592 247.854C197.237 248.059 196.948 248.358 196.724 248.75C196.509 249.142 196.402 249.604 196.402 250.136C196.402 250.668 196.509 251.135 196.724 251.536C196.948 251.928 197.237 252.227 197.592 252.432C197.956 252.637 198.339 252.74 198.74 252.74C199.151 252.74 199.533 252.637 199.888 252.432C200.252 252.217 200.541 251.909 200.756 251.508C200.98 251.107 201.092 250.64 201.092 250.108ZM207.64 254.126C206.912 254.126 206.254 253.963 205.666 253.636C205.078 253.3 204.616 252.833 204.28 252.236C203.944 251.629 203.776 250.929 203.776 250.136C203.776 249.352 203.949 248.657 204.294 248.05C204.639 247.443 205.111 246.977 205.708 246.65C206.305 246.323 206.973 246.16 207.71 246.16C208.447 246.16 209.115 246.323 209.712 246.65C210.309 246.977 210.781 247.443 211.126 248.05C211.471 248.657 211.644 249.352 211.644 250.136C211.644 250.92 211.467 251.615 211.112 252.222C210.757 252.829 210.272 253.3 209.656 253.636C209.049 253.963 208.377 254.126 207.64 254.126ZM207.64 252.74C208.051 252.74 208.433 252.642 208.788 252.446C209.152 252.25 209.446 251.956 209.67 251.564C209.894 251.172 210.006 250.696 210.006 250.136C210.006 249.576 209.899 249.105 209.684 248.722C209.469 248.33 209.185 248.036 208.83 247.84C208.475 247.644 208.093 247.546 207.682 247.546C207.271 247.546 206.889 247.644 206.534 247.84C206.189 248.036 205.913 248.33 205.708 248.722C205.503 249.105 205.4 249.576 205.4 250.136C205.4 250.967 205.61 251.611 206.03 252.068C206.459 252.516 206.996 252.74 207.64 252.74ZM214.818 247.406C215.051 247.014 215.359 246.711 215.742 246.496C216.134 246.272 216.596 246.16 217.128 246.16V247.812H216.722C216.097 247.812 215.621 247.971 215.294 248.288C214.977 248.605 214.818 249.156 214.818 249.94V254H213.222V246.286H214.818V247.406ZM221.7 250.136C221.7 249.343 221.858 248.647 222.176 248.05C222.502 247.443 222.95 246.977 223.52 246.65C224.089 246.323 224.742 246.16 225.48 246.16C226.413 246.16 227.183 246.384 227.79 246.832C228.406 247.271 228.821 247.901 229.036 248.722H227.314C227.174 248.339 226.95 248.041 226.642 247.826C226.334 247.611 225.946 247.504 225.48 247.504C224.826 247.504 224.304 247.737 223.912 248.204C223.529 248.661 223.338 249.305 223.338 250.136C223.338 250.967 223.529 251.615 223.912 252.082C224.304 252.549 224.826 252.782 225.48 252.782C226.404 252.782 227.015 252.376 227.314 251.564H229.036C228.812 252.348 228.392 252.973 227.776 253.44C227.16 253.897 226.394 254.126 225.48 254.126C224.742 254.126 224.089 253.963 223.52 253.636C222.95 253.3 222.502 252.833 222.176 252.236C221.858 251.629 221.7 250.929 221.7 250.136ZM230.094 250.108C230.094 249.333 230.253 248.647 230.57 248.05C230.897 247.453 231.336 246.991 231.886 246.664C232.446 246.328 233.062 246.16 233.734 246.16C234.341 246.16 234.868 246.281 235.316 246.524C235.774 246.757 236.138 247.051 236.408 247.406V246.286H238.018V254H236.408V252.852C236.138 253.216 235.769 253.519 235.302 253.762C234.836 254.005 234.304 254.126 233.706 254.126C233.044 254.126 232.437 253.958 231.886 253.622C231.336 253.277 230.897 252.801 230.57 252.194C230.253 251.578 230.094 250.883 230.094 250.108ZM236.408 250.136C236.408 249.604 236.296 249.142 236.072 248.75C235.858 248.358 235.573 248.059 235.218 247.854C234.864 247.649 234.481 247.546 234.07 247.546C233.66 247.546 233.277 247.649 232.922 247.854C232.568 248.05 232.278 248.344 232.054 248.736C231.84 249.119 231.732 249.576 231.732 250.108C231.732 250.64 231.84 251.107 232.054 251.508C232.278 251.909 232.568 252.217 232.922 252.432C233.286 252.637 233.669 252.74 234.07 252.74C234.481 252.74 234.864 252.637 235.218 252.432C235.573 252.227 235.858 251.928 236.072 251.536C236.296 251.135 236.408 250.668 236.408 250.136ZM241.976 247.588V251.858C241.976 252.147 242.042 252.357 242.172 252.488C242.312 252.609 242.546 252.67 242.872 252.67H243.852V254H242.592C241.874 254 241.323 253.832 240.94 253.496C240.558 253.16 240.366 252.614 240.366 251.858V247.588H239.456V246.286H240.366V244.368H241.976V246.286H243.852V247.588H241.976ZM252.393 249.954C252.393 250.243 252.375 250.505 252.337 250.738H246.443C246.49 251.354 246.719 251.849 247.129 252.222C247.54 252.595 248.044 252.782 248.641 252.782C249.5 252.782 250.107 252.423 250.461 251.704H252.183C251.95 252.413 251.525 252.997 250.909 253.454C250.303 253.902 249.547 254.126 248.641 254.126C247.904 254.126 247.241 253.963 246.653 253.636C246.075 253.3 245.617 252.833 245.281 252.236C244.955 251.629 244.791 250.929 244.791 250.136C244.791 249.343 244.95 248.647 245.267 248.05C245.594 247.443 246.047 246.977 246.625 246.65C247.213 246.323 247.885 246.16 248.641 246.16C249.369 246.16 250.018 246.319 250.587 246.636C251.157 246.953 251.6 247.401 251.917 247.98C252.235 248.549 252.393 249.207 252.393 249.954ZM250.727 249.45C250.718 248.862 250.508 248.391 250.097 248.036C249.687 247.681 249.178 247.504 248.571 247.504C248.021 247.504 247.549 247.681 247.157 248.036C246.765 248.381 246.532 248.853 246.457 249.45H250.727ZM257.072 246.16C257.669 246.16 258.197 246.281 258.654 246.524C259.121 246.757 259.485 247.051 259.746 247.406V246.286H261.356V254.126C261.356 254.835 261.207 255.465 260.908 256.016C260.609 256.576 260.175 257.015 259.606 257.332C259.046 257.649 258.374 257.808 257.59 257.808C256.545 257.808 255.677 257.561 254.986 257.066C254.295 256.581 253.903 255.918 253.81 255.078H255.392C255.513 255.479 255.77 255.801 256.162 256.044C256.563 256.296 257.039 256.422 257.59 256.422C258.234 256.422 258.752 256.226 259.144 255.834C259.545 255.442 259.746 254.873 259.746 254.126V252.838C259.475 253.202 259.107 253.51 258.64 253.762C258.183 254.005 257.66 254.126 257.072 254.126C256.4 254.126 255.784 253.958 255.224 253.622C254.673 253.277 254.235 252.801 253.908 252.194C253.591 251.578 253.432 250.883 253.432 250.108C253.432 249.333 253.591 248.647 253.908 248.05C254.235 247.453 254.673 246.991 255.224 246.664C255.784 246.328 256.4 246.16 257.072 246.16ZM259.746 250.136C259.746 249.604 259.634 249.142 259.41 248.75C259.195 248.358 258.911 248.059 258.556 247.854C258.201 247.649 257.819 247.546 257.408 247.546C256.997 247.546 256.615 247.649 256.26 247.854C255.905 248.05 255.616 248.344 255.392 248.736C255.177 249.119 255.07 249.576 255.07 250.108C255.07 250.64 255.177 251.107 255.392 251.508C255.616 251.909 255.905 252.217 256.26 252.432C256.624 252.637 257.007 252.74 257.408 252.74C257.819 252.74 258.201 252.637 258.556 252.432C258.911 252.227 259.195 251.928 259.41 251.536C259.634 251.135 259.746 250.668 259.746 250.136ZM266.798 254.126C266.07 254.126 265.412 253.963 264.824 253.636C264.236 253.3 263.774 252.833 263.438 252.236C263.102 251.629 262.934 250.929 262.934 250.136C262.934 249.352 263.107 248.657 263.452 248.05C263.798 247.443 264.269 246.977 264.866 246.65C265.464 246.323 266.131 246.16 266.868 246.16C267.606 246.16 268.273 246.323 268.87 246.65C269.468 246.977 269.939 247.443 270.284 248.05C270.63 248.657 270.802 249.352 270.802 250.136C270.802 250.92 270.625 251.615 270.27 252.222C269.916 252.829 269.43 253.3 268.814 253.636C268.208 253.963 267.536 254.126 266.798 254.126ZM266.798 252.74C267.209 252.74 267.592 252.642 267.946 252.446C268.31 252.25 268.604 251.956 268.828 251.564C269.052 251.172 269.164 250.696 269.164 250.136C269.164 249.576 269.057 249.105 268.842 248.722C268.628 248.33 268.343 248.036 267.988 247.84C267.634 247.644 267.251 247.546 266.84 247.546C266.43 247.546 266.047 247.644 265.692 247.84C265.347 248.036 265.072 248.33 264.866 248.722C264.661 249.105 264.558 249.576 264.558 250.136C264.558 250.967 264.768 251.611 265.188 252.068C265.618 252.516 266.154 252.74 266.798 252.74ZM273.976 247.406C274.209 247.014 274.517 246.711 274.9 246.496C275.292 246.272 275.754 246.16 276.286 246.16V247.812H275.88C275.255 247.812 274.779 247.971 274.452 248.288C274.135 248.605 273.976 249.156 273.976 249.94V254H272.38V246.286H273.976V247.406ZM278.565 245.264C278.276 245.264 278.033 245.166 277.837 244.97C277.641 244.774 277.543 244.531 277.543 244.242C277.543 243.953 277.641 243.71 277.837 243.514C278.033 243.318 278.276 243.22 278.565 243.22C278.845 243.22 279.083 243.318 279.279 243.514C279.475 243.71 279.573 243.953 279.573 244.242C279.573 244.531 279.475 244.774 279.279 244.97C279.083 245.166 278.845 245.264 278.565 245.264ZM279.349 246.286V254H277.753V246.286H279.349ZM280.913 250.108C280.913 249.333 281.071 248.647 281.389 248.05C281.715 247.453 282.154 246.991 282.705 246.664C283.265 246.328 283.881 246.16 284.553 246.16C285.159 246.16 285.687 246.281 286.135 246.524C286.592 246.757 286.956 247.051 287.227 247.406V246.286H288.837V254H287.227V252.852C286.956 253.216 286.587 253.519 286.121 253.762C285.654 254.005 285.122 254.126 284.525 254.126C283.862 254.126 283.255 253.958 282.705 253.622C282.154 253.277 281.715 252.801 281.389 252.194C281.071 251.578 280.913 250.883 280.913 250.108ZM287.227 250.136C287.227 249.604 287.115 249.142 286.891 248.75C286.676 248.358 286.391 248.059 286.037 247.854C285.682 247.649 285.299 247.546 284.889 247.546C284.478 247.546 284.095 247.649 283.741 247.854C283.386 248.05 283.097 248.344 282.873 248.736C282.658 249.119 282.551 249.576 282.551 250.108C282.551 250.64 282.658 251.107 282.873 251.508C283.097 251.909 283.386 252.217 283.741 252.432C284.105 252.637 284.487 252.74 284.889 252.74C285.299 252.74 285.682 252.637 286.037 252.432C286.391 252.227 286.676 251.928 286.891 251.536C287.115 251.135 287.227 250.668 287.227 250.136Z" fill="#9A9AB5"/>
<circle cx="142.706" cy="389.57" r="100" fill="#7B8CDE"/>
<path d="M218.706 454.57L194.206 425.07L171.206 333.07L156.206 331.57L143.206 326.57L144.206 289.57L159.206 290.57L174.206 294.57L181.206 297.07L188.706 300.57L195.706 304.57L201.706 308.57L207.206 313.07L213.706 319.07L219.706 325.57L225.206 332.57L230.206 340.57L233.706 348.07L237.206 356.57L239.706 365.07L241.706 374.07L242.706 383.57V393.07L242.206 402.57L240.206 412.07L237.706 421.57L234.206 430.57L229.706 439.07L224.706 447.07L218.706 454.57Z" fill="#2EC27E"/>
<path d="M144.206 289.624L143.354 326.418L82.0679 408.989L91.6123 420.658L132.706 450.625L126.414 488.285L116.914 486.293L105.914 482.793L87.9143 473.793L71.7058 461.647L60.4577 447.57L52.6836 434.131L49.5041 427.411L46.6793 419.629L44.5621 411.847L43.1519 404.772L42.4494 397.696L42.102 388.851L42.4622 380.006L43.53 371.16L45.6595 361.959L48.4957 354.173L52.0399 345.679L56.2913 337.893L61.2502 330.105L67.2703 322.671L73.9976 315.944L81.0783 309.57L89.2198 304.257L97.7148 299.297L106.563 295.399L115.764 292.562L124.964 290.433L144.206 289.624Z" fill="#FFE6B5"/>
<circle cx="143.206" cy="389.07" r="62.5" fill="#302D43"/>
<circle cx="296" cy="357" r="4" fill="#7B8CDE"/>
<path d="M314.704 361.084C313.928 361.084 313.212 360.904 312.556 360.544C311.908 360.176 311.392 359.668 311.008 359.02C310.632 358.364 310.444 357.628 310.444 356.812C310.444 355.996 310.632 355.264 311.008 354.616C311.392 353.968 311.908 353.464 312.556 353.104C313.212 352.736 313.928 352.552 314.704 352.552C315.488 352.552 316.204 352.736 316.852 353.104C317.508 353.464 318.024 353.968 318.4 354.616C318.776 355.264 318.964 355.996 318.964 356.812C318.964 357.628 318.776 358.364 318.4 359.02C318.024 359.668 317.508 360.176 316.852 360.544C316.204 360.904 315.488 361.084 314.704 361.084ZM314.704 359.896C315.256 359.896 315.748 359.772 316.18 359.524C316.612 359.268 316.948 358.908 317.188 358.444C317.436 357.972 317.56 357.428 317.56 356.812C317.56 356.196 317.436 355.656 317.188 355.192C316.948 354.728 316.612 354.372 316.18 354.124C315.748 353.876 315.256 353.752 314.704 353.752C314.152 353.752 313.66 353.876 313.228 354.124C312.796 354.372 312.456 354.728 312.208 355.192C311.968 355.656 311.848 356.196 311.848 356.812C311.848 357.428 311.968 357.972 312.208 358.444C312.456 358.908 312.796 359.268 313.228 359.524C313.66 359.772 314.152 359.896 314.704 359.896ZM326.298 354.388V361H324.93V360.22C324.714 360.492 324.43 360.708 324.078 360.868C323.734 361.02 323.366 361.096 322.974 361.096C322.454 361.096 321.986 360.988 321.57 360.772C321.162 360.556 320.838 360.236 320.598 359.812C320.366 359.388 320.25 358.876 320.25 358.276V354.388H321.606V358.072C321.606 358.664 321.754 359.12 322.05 359.44C322.346 359.752 322.75 359.908 323.262 359.908C323.774 359.908 324.178 359.752 324.474 359.44C324.778 359.12 324.93 358.664 324.93 358.072V354.388H326.298ZM329.699 355.504V359.164C329.699 359.412 329.755 359.592 329.867 359.704C329.987 359.808 330.187 359.86 330.467 359.86H331.307V361H330.227C329.611 361 329.139 360.856 328.811 360.568C328.483 360.28 328.319 359.812 328.319 359.164V355.504H327.539V354.388H328.319V352.744H329.699V354.388H331.307V355.504H329.699ZM333.936 355.348C334.136 355.012 334.4 354.752 334.728 354.568C335.064 354.376 335.46 354.28 335.916 354.28V355.696H335.568C335.032 355.696 334.624 355.832 334.344 356.104C334.072 356.376 333.936 356.848 333.936 357.52V361H332.568V354.388H333.936V355.348ZM340.041 361.108C339.417 361.108 338.853 360.968 338.349 360.688C337.845 360.4 337.449 360 337.161 359.488C336.873 358.968 336.729 358.368 336.729 357.688C336.729 357.016 336.877 356.42 337.173 355.9C337.469 355.38 337.873 354.98 338.385 354.7C338.897 354.42 339.469 354.28 340.101 354.28C340.733 354.28 341.305 354.42 341.817 354.7C342.329 354.98 342.733 355.38 343.029 355.9C343.325 356.42 343.473 357.016 343.473 357.688C343.473 358.36 343.321 358.956 343.017 359.476C342.713 359.996 342.297 360.4 341.769 360.688C341.249 360.968 340.673 361.108 340.041 361.108ZM340.041 359.92C340.393 359.92 340.721 359.836 341.025 359.668C341.337 359.5 341.589 359.248 341.781 358.912C341.973 358.576 342.069 358.168 342.069 357.688C342.069 357.208 341.977 356.804 341.793 356.476C341.609 356.14 341.365 355.888 341.061 355.72C340.757 355.552 340.429 355.468 340.077 355.468C339.725 355.468 339.397 355.552 339.093 355.72C338.797 355.888 338.561 356.14 338.385 356.476C338.209 356.804 338.121 357.208 338.121 357.688C338.121 358.4 338.301 358.952 338.661 359.344C339.029 359.728 339.489 359.92 340.041 359.92ZM347.226 361.108C346.706 361.108 346.238 361.016 345.822 360.832C345.414 360.64 345.09 360.384 344.85 360.064C344.61 359.736 344.482 359.372 344.466 358.972H345.882C345.906 359.252 346.038 359.488 346.278 359.68C346.526 359.864 346.834 359.956 347.202 359.956C347.586 359.956 347.882 359.884 348.09 359.74C348.306 359.588 348.414 359.396 348.414 359.164C348.414 358.916 348.294 358.732 348.054 358.612C347.822 358.492 347.45 358.36 346.938 358.216C346.442 358.08 346.038 357.948 345.726 357.82C345.414 357.692 345.142 357.496 344.91 357.232C344.686 356.968 344.574 356.62 344.574 356.188C344.574 355.836 344.678 355.516 344.886 355.228C345.094 354.932 345.39 354.7 345.774 354.532C346.166 354.364 346.614 354.28 347.118 354.28C347.87 354.28 348.474 354.472 348.93 354.856C349.394 355.232 349.642 355.748 349.674 356.404H348.306C348.282 356.108 348.162 355.872 347.946 355.696C347.73 355.52 347.438 355.432 347.07 355.432C346.71 355.432 346.434 355.5 346.242 355.636C346.05 355.772 345.954 355.952 345.954 356.176C345.954 356.352 346.018 356.5 346.146 356.62C346.274 356.74 346.43 356.836 346.614 356.908C346.798 356.972 347.07 357.056 347.43 357.16C347.91 357.288 348.302 357.42 348.606 357.556C348.918 357.684 349.186 357.876 349.41 358.132C349.634 358.388 349.75 358.728 349.758 359.152C349.758 359.528 349.654 359.864 349.446 360.16C349.238 360.456 348.942 360.688 348.558 360.856C348.182 361.024 347.738 361.108 347.226 361.108Z" fill="white"/>
<circle cx="296" cy="385" r="4" fill="#FFE6B5"/>
<path d="M310.444 384.812C310.444 383.996 310.632 383.264 311.008 382.616C311.392 381.968 311.908 381.464 312.556 381.104C313.212 380.736 313.928 380.552 314.704 380.552C315.592 380.552 316.38 380.772 317.068 381.212C317.764 381.644 318.268 382.26 318.58 383.06H316.936C316.72 382.62 316.42 382.292 316.036 382.076C315.652 381.86 315.208 381.752 314.704 381.752C314.152 381.752 313.66 381.876 313.228 382.124C312.796 382.372 312.456 382.728 312.208 383.192C311.968 383.656 311.848 384.196 311.848 384.812C311.848 385.428 311.968 385.968 312.208 386.432C312.456 386.896 312.796 387.256 313.228 387.512C313.66 387.76 314.152 387.884 314.704 387.884C315.208 387.884 315.652 387.776 316.036 387.56C316.42 387.344 316.72 387.016 316.936 386.576H318.58C318.268 387.376 317.764 387.992 317.068 388.424C316.38 388.856 315.592 389.072 314.704 389.072C313.92 389.072 313.204 388.892 312.556 388.532C311.908 388.164 311.392 387.656 311.008 387.008C310.632 386.36 310.444 385.628 310.444 384.812ZM323.049 389.108C322.425 389.108 321.861 388.968 321.357 388.688C320.853 388.4 320.457 388 320.169 387.488C319.881 386.968 319.737 386.368 319.737 385.688C319.737 385.016 319.885 384.42 320.181 383.9C320.477 383.38 320.881 382.98 321.393 382.7C321.905 382.42 322.477 382.28 323.109 382.28C323.741 382.28 324.313 382.42 324.825 382.7C325.337 382.98 325.741 383.38 326.037 383.9C326.333 384.42 326.481 385.016 326.481 385.688C326.481 386.36 326.329 386.956 326.025 387.476C325.721 387.996 325.305 388.4 324.777 388.688C324.257 388.968 323.681 389.108 323.049 389.108ZM323.049 387.92C323.401 387.92 323.729 387.836 324.033 387.668C324.345 387.5 324.597 387.248 324.789 386.912C324.981 386.576 325.077 386.168 325.077 385.688C325.077 385.208 324.985 384.804 324.801 384.476C324.617 384.14 324.373 383.888 324.069 383.72C323.765 383.552 323.437 383.468 323.085 383.468C322.733 383.468 322.405 383.552 322.101 383.72C321.805 383.888 321.569 384.14 321.393 384.476C321.217 384.804 321.129 385.208 321.129 385.688C321.129 386.4 321.309 386.952 321.669 387.344C322.037 387.728 322.497 387.92 323.049 387.92ZM335.838 382.28C336.358 382.28 336.822 382.388 337.23 382.604C337.646 382.82 337.97 383.14 338.202 383.564C338.442 383.988 338.562 384.5 338.562 385.1V389H337.206V385.304C337.206 384.712 337.058 384.26 336.762 383.948C336.466 383.628 336.062 383.468 335.55 383.468C335.038 383.468 334.63 383.628 334.326 383.948C334.03 384.26 333.882 384.712 333.882 385.304V389H332.526V385.304C332.526 384.712 332.378 384.26 332.082 383.948C331.786 383.628 331.382 383.468 330.87 383.468C330.358 383.468 329.95 383.628 329.646 383.948C329.35 384.26 329.202 384.712 329.202 385.304V389H327.834V382.388H329.202V383.144C329.426 382.872 329.71 382.66 330.054 382.508C330.398 382.356 330.766 382.28 331.158 382.28C331.686 382.28 332.158 382.392 332.574 382.616C332.99 382.84 333.31 383.164 333.534 383.588C333.734 383.188 334.046 382.872 334.47 382.64C334.894 382.4 335.35 382.28 335.838 382.28ZM341.67 383.36C341.902 383.056 342.218 382.8 342.618 382.592C343.018 382.384 343.47 382.28 343.974 382.28C344.55 382.28 345.074 382.424 345.546 382.712C346.026 382.992 346.402 383.388 346.674 383.9C346.946 384.412 347.082 385 347.082 385.664C347.082 386.328 346.946 386.924 346.674 387.452C346.402 387.972 346.026 388.38 345.546 388.676C345.074 388.964 344.55 389.108 343.974 389.108C343.47 389.108 343.022 389.008 342.63 388.808C342.238 388.6 341.918 388.344 341.67 388.04V392.144H340.302V382.388H341.67V383.36ZM345.69 385.664C345.69 385.208 345.594 384.816 345.402 384.488C345.218 384.152 344.97 383.9 344.658 383.732C344.354 383.556 344.026 383.468 343.674 383.468C343.33 383.468 343.002 383.556 342.69 383.732C342.386 383.908 342.138 384.164 341.946 384.5C341.762 384.836 341.67 385.232 341.67 385.688C341.67 386.144 341.762 386.544 341.946 386.888C342.138 387.224 342.386 387.48 342.69 387.656C343.002 387.832 343.33 387.92 343.674 387.92C344.026 387.92 344.354 387.832 344.658 387.656C344.97 387.472 345.218 387.208 345.402 386.864C345.594 386.52 345.69 386.12 345.69 385.664ZM349.803 383.348C350.003 383.012 350.267 382.752 350.595 382.568C350.931 382.376 351.327 382.28 351.783 382.28V383.696H351.435C350.899 383.696 350.491 383.832 350.211 384.104C349.939 384.376 349.803 384.848 349.803 385.52V389H348.435V382.388H349.803V383.348ZM352.585 385.664C352.585 385 352.721 384.412 352.993 383.9C353.273 383.388 353.649 382.992 354.121 382.712C354.601 382.424 355.129 382.28 355.705 382.28C356.225 382.28 356.677 382.384 357.061 382.592C357.453 382.792 357.765 383.044 357.997 383.348V382.388H359.377V389H357.997V388.016C357.765 388.328 357.449 388.588 357.049 388.796C356.649 389.004 356.193 389.108 355.681 389.108C355.113 389.108 354.593 388.964 354.121 388.676C353.649 388.38 353.273 387.972 352.993 387.452C352.721 386.924 352.585 386.328 352.585 385.664ZM357.997 385.688C357.997 385.232 357.901 384.836 357.709 384.5C357.525 384.164 357.281 383.908 356.977 383.732C356.673 383.556 356.345 383.468 355.993 383.468C355.641 383.468 355.313 383.556 355.009 383.732C354.705 383.9 354.457 384.152 354.265 384.488C354.081 384.816 353.989 385.208 353.989 385.664C353.989 386.12 354.081 386.52 354.265 386.864C354.457 387.208 354.705 387.472 355.009 387.656C355.321 387.832 355.649 387.92 355.993 387.92C356.345 387.92 356.673 387.832 356.977 387.656C357.281 387.48 357.525 387.224 357.709 386.888C357.901 386.544 357.997 386.144 357.997 385.688ZM363.573 389.108C363.053 389.108 362.585 389.016 362.169 388.832C361.761 388.64 361.437 388.384 361.197 388.064C360.957 387.736 360.829 387.372 360.813 386.972H362.229C362.253 387.252 362.385 387.488 362.625 387.68C362.873 387.864 363.181 387.956 363.549 387.956C363.933 387.956 364.229 387.884 364.437 387.74C364.653 387.588 364.761 387.396 364.761 387.164C364.761 386.916 364.641 386.732 364.401 386.612C364.169 386.492 363.797 386.36 363.285 386.216C362.789 386.08 362.385 385.948 362.073 385.82C361.761 385.692 361.489 385.496 361.257 385.232C361.033 384.968 360.921 384.62 360.921 384.188C360.921 383.836 361.025 383.516 361.233 383.228C361.441 382.932 361.737 382.7 362.121 382.532C362.513 382.364 362.961 382.28 363.465 382.28C364.217 382.28 364.821 382.472 365.277 382.856C365.741 383.232 365.989 383.748 366.021 384.404H364.653C364.629 384.108 364.509 383.872 364.293 383.696C364.077 383.52 363.785 383.432 363.417 383.432C363.057 383.432 362.781 383.5 362.589 383.636C362.397 383.772 362.301 383.952 362.301 384.176C362.301 384.352 362.365 384.5 362.493 384.62C362.621 384.74 362.777 384.836 362.961 384.908C363.145 384.972 363.417 385.056 363.777 385.16C364.257 385.288 364.649 385.42 364.953 385.556C365.265 385.684 365.533 385.876 365.757 386.132C365.981 386.388 366.097 386.728 366.105 387.152C366.105 387.528 366.001 387.864 365.793 388.16C365.585 388.456 365.289 388.688 364.905 388.856C364.529 389.024 364.085 389.108 363.573 389.108Z" fill="white"/>
<circle cx="296" cy="413" r="4" fill="#2EC27E"/>
<path d="M312.268 415.896H315.088V417H310.9V408.66H312.268V415.896ZM315.776 413.664C315.776 413 315.912 412.412 316.184 411.9C316.464 411.388 316.84 410.992 317.312 410.712C317.792 410.424 318.32 410.28 318.896 410.28C319.416 410.28 319.868 410.384 320.252 410.592C320.644 410.792 320.956 411.044 321.188 411.348V410.388H322.568V417H321.188V416.016C320.956 416.328 320.64 416.588 320.24 416.796C319.84 417.004 319.384 417.108 318.872 417.108C318.304 417.108 317.784 416.964 317.312 416.676C316.84 416.38 316.464 415.972 316.184 415.452C315.912 414.924 315.776 414.328 315.776 413.664ZM321.188 413.688C321.188 413.232 321.092 412.836 320.9 412.5C320.716 412.164 320.472 411.908 320.168 411.732C319.864 411.556 319.536 411.468 319.184 411.468C318.832 411.468 318.504 411.556 318.2 411.732C317.896 411.9 317.648 412.152 317.456 412.488C317.272 412.816 317.18 413.208 317.18 413.664C317.18 414.12 317.272 414.52 317.456 414.864C317.648 415.208 317.896 415.472 318.2 415.656C318.512 415.832 318.84 415.92 319.184 415.92C319.536 415.92 319.864 415.832 320.168 415.656C320.472 415.48 320.716 415.224 320.9 414.888C321.092 414.544 321.188 414.144 321.188 413.688ZM325.577 415.884H328.577V417H323.993V415.884L327.005 411.504H323.993V410.388H328.577V411.504L325.577 415.884ZM336.073 413.532C336.073 413.78 336.057 414.004 336.025 414.204H330.973C331.013 414.732 331.209 415.156 331.561 415.476C331.913 415.796 332.345 415.956 332.857 415.956C333.593 415.956 334.113 415.648 334.417 415.032H335.893C335.693 415.64 335.329 416.14 334.801 416.532C334.281 416.916 333.633 417.108 332.857 417.108C332.225 417.108 331.657 416.968 331.153 416.688C330.657 416.4 330.265 416 329.977 415.488C329.697 414.968 329.557 414.368 329.557 413.688C329.557 413.008 329.693 412.412 329.965 411.9C330.245 411.38 330.633 410.98 331.129 410.7C331.633 410.42 332.209 410.28 332.857 410.28C333.481 410.28 334.037 410.416 334.525 410.688C335.013 410.96 335.393 411.344 335.665 411.84C335.937 412.328 336.073 412.892 336.073 413.532ZM334.645 413.1C334.637 412.596 334.457 412.192 334.105 411.888C333.753 411.584 333.317 411.432 332.797 411.432C332.325 411.432 331.921 411.584 331.585 411.888C331.249 412.184 331.049 412.588 330.985 413.1H334.645ZM338.788 411.348C338.988 411.012 339.252 410.752 339.58 410.568C339.916 410.376 340.312 410.28 340.768 410.28V411.696H340.42C339.884 411.696 339.476 411.832 339.196 412.104C338.924 412.376 338.788 412.848 338.788 413.52V417H337.42V410.388H338.788V411.348Z" fill="white"/>
</g>
<g filter="url(#filter2_d_1_4)">
<path d="M0 0H412V43C412 44.1046 411.105 45 410 45H2.00001C0.895436 45 0 44.1046 0 43V0Z" fill="#302D43" shape-rendering="crispEdges"/>
<path d="M366.5 25.4062C368.105 25.4062 369.406 24.1051 369.406 22.5C369.406 20.8949 368.105 19.5938 366.5 19.5938C364.895 19.5938 363.594 20.8949 363.594 22.5C363.594 24.1051 364.895 25.4062 366.5 25.4062Z" fill="white"/>
<path d="M376.188 25.4062C377.793 25.4062 379.094 24.1051 379.094 22.5C379.094 20.8949 377.793 19.5938 376.188 19.5938C374.582 19.5938 373.281 20.8949 373.281 22.5C373.281 24.1051 374.582 25.4062 376.188 25.4062Z" fill="white"/>
<path d="M356.812 25.4062C358.418 25.4062 359.719 24.1051 359.719 22.5C359.719 20.8949 358.418 19.5938 356.812 19.5938C355.207 19.5938 353.906 20.8949 353.906 22.5C353.906 24.1051 355.207 25.4062 356.812 25.4062Z" fill="white"/>
</g>
</g>
<defs>
<filter id="filter0_d_1_4" x="23" y="147" width="180" height="84" filterUnits="userSpaceOnUse" color-interpolation-filters="sRGB">
<feFlood flood-opacity="0" result="BackgroundImageFix"/>
<feColorMatrix in="SourceAlpha" type="matrix" values="0 0 0 0 0 0 0 0 0 0 0 0 0 0 0 0 0 0 127 0" result="hardAlpha"/>
<feOffset dy="2"/>
<feGaussianBlur stdDeviation="3.5"/>
<feComposite in2="hardAlpha" operator="out"/>
<feColorMatrix type="matrix" values="0 0 0 0 0 0 0 0 0 0 0 0 0 0 0 0 0 0 0.15 0"/>
<feBlend mode="normal" in2="BackgroundImageFix" result="effect1_dropShadow_1_4"/>
<feBlend mode="normal" in="SourceGraphic" in2="effect1_dropShadow_1_4" result="shape"/>
</filter>
<filter id="filter1_d_1_4" x="209" y="147" width="180" height="84" filterUnits="userSpaceOnUse" color-interpolation-filters="sRGB">
<feFlood flood-opacity="0" result="BackgroundImageFix"/>
<feColorMatrix in="SourceAlpha" type="matrix" values="0 0 0 0 0 0 0 0 0 0 0 0 0 0 0 0 0 0 127 0" result="hardAlpha"/>
<feOffset dy="2"/>
<feGaussianBlur stdDeviation="3.5"/>
<feComposite in2="hardAlpha" operator="out"/>
<feColorMatrix type="matrix" values="0 0 0 0 0 0 0 0 0 0 0 0 0 0 0 0 0 0 0.15 0"/>
<feBlend mode="normal" in2="BackgroundImageFix" result="effect1_dropShadow_1_4"/>
<feBlend mode="normal" in="SourceGraphic" in2="effect1_dropShadow_1_4" result="shape"/>
</filter>
<filter id="filter2_d_1_4" x="-6" y="-4" width="424" height="57" filterUnits="userSpaceOnUse" color-interpolation-filters="sRGB">
<feFlood flood-opacity="0" result="BackgroundImageFix"/>
<feColorMatrix in="SourceAlpha" type="matrix" values="0 0 0 0 0 0 0 0 0 0 0 0 0 0 0 0 0 0 127 0" result="hardAlpha"/>
<feOffset dy="2"/>
<feGaussianBlur stdDeviation="3"/>
<feComposite in2="hardAlpha" operator="out"/>
<feColorMatrix type="matrix" values="0 0 0 0 0 0 0 0 0 0 0 0 0 0 0 0 0 0 0.15 0"/>
<feBlend mode="normal" in2="BackgroundImageFix" result="effect1_dropShadow_1_4"/>
<feBlend mode="normal" in="SourceGraphic" in2="effect1_dropShadow_1_4" result="shape"/>
</filter>
<clipPath id="clip0_1_4">
<rect width="412" height="917" fill="white"/>
</clipPath>
<clipPath id="clip1_1_4">
<rect width="412" height="265" fill="white" transform="translate(0 242)"/>
</clipPath>
</defs>
</svg>
