<svg width="412" height="917" viewBox="0 0 412 917" fill="none" xmlns="http://www.w3.org/2000/svg">
<g clip-path="url(#clip0_36_304)">
<rect width="412" height="917" fill="#302D43"/>
<g clip-path="url(#clip1_36_304)">
<path d="M52.6562 187.25L41.7188 199.75L37.0312 195.062M37.0312 199.75L32.3438 195.062M47.9688 187.25L41.3281 194.867" stroke="#2EC27E" stroke-width="2" stroke-linecap="round" stroke-linejoin="round"/>
<path d="M74.256 192.098C73.6027 192.098 73.0147 191.986 72.492 191.762C71.9693 191.529 71.5587 191.202 71.26 190.782C70.9613 190.362 70.812 189.872 70.812 189.312H72.52C72.5573 189.732 72.7207 190.077 73.01 190.348C73.3087 190.619 73.724 190.754 74.256 190.754C74.8067 190.754 75.236 190.623 75.544 190.362C75.852 190.091 76.006 189.746 76.006 189.326C76.006 188.999 75.908 188.733 75.712 188.528C75.5253 188.323 75.2873 188.164 74.998 188.052C74.718 187.94 74.326 187.819 73.822 187.688C73.1873 187.52 72.6693 187.352 72.268 187.184C71.876 187.007 71.54 186.736 71.26 186.372C70.98 186.008 70.84 185.523 70.84 184.916C70.84 184.356 70.98 183.866 71.26 183.446C71.54 183.026 71.932 182.704 72.436 182.48C72.94 182.256 73.5233 182.144 74.186 182.144C75.1287 182.144 75.8987 182.382 76.496 182.858C77.1027 183.325 77.4387 183.969 77.504 184.79H75.74C75.712 184.435 75.544 184.132 75.236 183.88C74.928 183.628 74.522 183.502 74.018 183.502C73.5607 183.502 73.1873 183.619 72.898 183.852C72.6087 184.085 72.464 184.421 72.464 184.86C72.464 185.159 72.5527 185.406 72.73 185.602C72.9167 185.789 73.15 185.938 73.43 186.05C73.71 186.162 74.0927 186.283 74.578 186.414C75.222 186.591 75.7447 186.769 76.146 186.946C76.5567 187.123 76.902 187.399 77.182 187.772C77.4713 188.136 77.616 188.626 77.616 189.242C77.616 189.737 77.4807 190.203 77.21 190.642C76.9487 191.081 76.5613 191.435 76.048 191.706C75.544 191.967 74.9467 192.098 74.256 192.098ZM78.9672 188.108C78.9672 187.333 79.1259 186.647 79.4432 186.05C79.7699 185.453 80.2086 184.991 80.7592 184.664C81.3192 184.328 81.9352 184.16 82.6072 184.16C83.2139 184.16 83.7412 184.281 84.1892 184.524C84.6466 184.757 85.0106 185.051 85.2812 185.406V184.286H86.8912V192H85.2812V190.852C85.0106 191.216 84.6419 191.519 84.1752 191.762C83.7086 192.005 83.1766 192.126 82.5792 192.126C81.9166 192.126 81.3099 191.958 80.7592 191.622C80.2086 191.277 79.7699 190.801 79.4432 190.194C79.1259 189.578 78.9672 188.883 78.9672 188.108ZM85.2812 188.136C85.2812 187.604 85.1692 187.142 84.9452 186.75C84.7306 186.358 84.4459 186.059 84.0912 185.854C83.7366 185.649 83.3539 185.546 82.9432 185.546C82.5326 185.546 82.1499 185.649 81.7952 185.854C81.4406 186.05 81.1512 186.344 80.9272 186.736C80.7126 187.119 80.6052 187.576 80.6052 188.108C80.6052 188.64 80.7126 189.107 80.9272 189.508C81.1512 189.909 81.4406 190.217 81.7952 190.432C82.1592 190.637 82.5419 190.74 82.9432 190.74C83.3539 190.74 83.7366 190.637 84.0912 190.432C84.4459 190.227 84.7306 189.928 84.9452 189.536C85.1692 189.135 85.2812 188.668 85.2812 188.136ZM90.5835 181.64V192H88.9875V181.64H90.5835ZM92.1469 188.108C92.1469 187.333 92.3056 186.647 92.6229 186.05C92.9496 185.453 93.3882 184.991 93.9389 184.664C94.4989 184.328 95.1149 184.16 95.7869 184.16C96.3936 184.16 96.9209 184.281 97.3689 184.524C97.8262 184.757 98.1902 185.051 98.4609 185.406V184.286H100.071V192H98.4609V190.852C98.1902 191.216 97.8216 191.519 97.3549 191.762C96.8882 192.005 96.3562 192.126 95.7589 192.126C95.0962 192.126 94.4896 191.958 93.9389 191.622C93.3882 191.277 92.9496 190.801 92.6229 190.194C92.3056 189.578 92.1469 188.883 92.1469 188.108ZM98.4609 188.136C98.4609 187.604 98.3489 187.142 98.1249 186.75C97.9102 186.358 97.6256 186.059 97.2709 185.854C96.9162 185.649 96.5336 185.546 96.1229 185.546C95.7122 185.546 95.3296 185.649 94.9749 185.854C94.6202 186.05 94.3309 186.344 94.1069 186.736C93.8922 187.119 93.7849 187.576 93.7849 188.108C93.7849 188.64 93.8922 189.107 94.1069 189.508C94.3309 189.909 94.6202 190.217 94.9749 190.432C95.3389 190.637 95.7216 190.74 96.1229 190.74C96.5336 190.74 96.9162 190.637 97.2709 190.432C97.6256 190.227 97.9102 189.928 98.1249 189.536C98.3489 189.135 98.4609 188.668 98.4609 188.136ZM97.8169 182.214L94.7229 183.74V182.564L97.8169 180.856V182.214ZM103.763 185.406C103.997 185.014 104.305 184.711 104.687 184.496C105.079 184.272 105.541 184.16 106.073 184.16V185.812H105.667C105.042 185.812 104.566 185.971 104.239 186.288C103.922 186.605 103.763 187.156 103.763 187.94V192H102.167V184.286H103.763V185.406ZM108.352 183.264C108.063 183.264 107.82 183.166 107.624 182.97C107.428 182.774 107.33 182.531 107.33 182.242C107.33 181.953 107.428 181.71 107.624 181.514C107.82 181.318 108.063 181.22 108.352 181.22C108.632 181.22 108.87 181.318 109.066 181.514C109.262 181.71 109.36 181.953 109.36 182.242C109.36 182.531 109.262 182.774 109.066 182.97C108.87 183.166 108.632 183.264 108.352 183.264ZM109.136 184.286V192H107.54V184.286H109.136ZM114.578 192.126C113.85 192.126 113.192 191.963 112.604 191.636C112.016 191.3 111.554 190.833 111.218 190.236C110.882 189.629 110.714 188.929 110.714 188.136C110.714 187.352 110.886 186.657 111.232 186.05C111.577 185.443 112.048 184.977 112.646 184.65C113.243 184.323 113.91 184.16 114.648 184.16C115.385 184.16 116.052 184.323 116.65 184.65C117.247 184.977 117.718 185.443 118.064 186.05C118.409 186.657 118.582 187.352 118.582 188.136C118.582 188.92 118.404 189.615 118.05 190.222C117.695 190.829 117.21 191.3 116.594 191.636C115.987 191.963 115.315 192.126 114.578 192.126ZM114.578 190.74C114.988 190.74 115.371 190.642 115.726 190.446C116.09 190.25 116.384 189.956 116.608 189.564C116.832 189.172 116.944 188.696 116.944 188.136C116.944 187.576 116.836 187.105 116.622 186.722C116.407 186.33 116.122 186.036 115.768 185.84C115.413 185.644 115.03 185.546 114.62 185.546C114.209 185.546 113.826 185.644 113.472 185.84C113.126 186.036 112.851 186.33 112.646 186.722C112.44 187.105 112.338 187.576 112.338 188.136C112.338 188.967 112.548 189.611 112.968 190.068C113.397 190.516 113.934 190.74 114.578 190.74Z" fill="white"/>
<rect x="70" y="204" width="40" height="12" rx="6" fill="#2EC27E"/>
<path d="M83.768 207.424V208.016H81.344V209.896H83.312V210.488H81.344V213H80.616V207.424H83.768ZM85.0233 207.904C84.8846 207.904 84.7673 207.856 84.6713 207.76C84.5753 207.664 84.5273 207.547 84.5273 207.408C84.5273 207.269 84.5753 207.152 84.6713 207.056C84.7673 206.96 84.8846 206.912 85.0233 206.912C85.1566 206.912 85.2686 206.96 85.3593 207.056C85.4553 207.152 85.5033 207.269 85.5033 207.408C85.5033 207.547 85.4553 207.664 85.3593 207.76C85.2686 207.856 85.1566 207.904 85.0233 207.904ZM85.3753 208.616V213H84.6473V208.616H85.3753ZM88.904 213L87.864 211.368L86.864 213H86.104L87.52 210.824L86.104 208.616H86.928L87.968 210.24L88.96 208.616H89.72L88.312 210.784L89.728 213H88.904ZM92.3561 213.072C91.9455 213.072 91.5721 212.979 91.2361 212.792C90.9055 212.605 90.6441 212.341 90.4521 212C90.2655 211.653 90.1721 211.253 90.1721 210.8C90.1721 210.352 90.2681 209.957 90.4601 209.616C90.6575 209.269 90.9241 209.005 91.2601 208.824C91.5961 208.637 91.9721 208.544 92.3881 208.544C92.8041 208.544 93.1801 208.637 93.5161 208.824C93.8521 209.005 94.1161 209.267 94.3081 209.608C94.5055 209.949 94.6041 210.347 94.6041 210.8C94.6041 211.253 94.5028 211.653 94.3001 212C94.1028 212.341 93.8335 212.605 93.4921 212.792C93.1508 212.979 92.7721 213.072 92.3561 213.072ZM92.3561 212.432C92.6175 212.432 92.8628 212.371 93.0921 212.248C93.3215 212.125 93.5055 211.941 93.6441 211.696C93.7881 211.451 93.8601 211.152 93.8601 210.8C93.8601 210.448 93.7908 210.149 93.6521 209.904C93.5135 209.659 93.3321 209.477 93.1081 209.36C92.8841 209.237 92.6415 209.176 92.3801 209.176C92.1135 209.176 91.8681 209.237 91.6441 209.36C91.4255 209.477 91.2495 209.659 91.1161 209.904C90.9828 210.149 90.9161 210.448 90.9161 210.8C90.9161 211.157 90.9801 211.459 91.1081 211.704C91.2415 211.949 91.4175 212.133 91.6361 212.256C91.8548 212.373 92.0948 212.432 92.3561 212.432ZM97.1133 213.072C96.7773 213.072 96.476 213.016 96.2093 212.904C95.9426 212.787 95.732 212.627 95.5773 212.424C95.4226 212.216 95.3373 211.979 95.3213 211.712H96.0733C96.0946 211.931 96.196 212.109 96.3773 212.248C96.564 212.387 96.8066 212.456 97.1053 212.456C97.3826 212.456 97.6013 212.395 97.7613 212.272C97.9213 212.149 98.0013 211.995 98.0013 211.808C98.0013 211.616 97.916 211.475 97.7453 211.384C97.5746 211.288 97.3106 211.195 96.9533 211.104C96.628 211.019 96.3613 210.933 96.1533 210.848C95.9506 210.757 95.7746 210.627 95.6253 210.456C95.4813 210.28 95.4093 210.051 95.4093 209.768C95.4093 209.544 95.476 209.339 95.6093 209.152C95.7426 208.965 95.932 208.819 96.1773 208.712C96.4226 208.6 96.7026 208.544 97.0173 208.544C97.5026 208.544 97.8946 208.667 98.1933 208.912C98.492 209.157 98.652 209.493 98.6733 209.92H97.9453C97.9293 209.691 97.836 209.507 97.6653 209.368C97.5 209.229 97.276 209.16 96.9933 209.16C96.732 209.16 96.524 209.216 96.3693 209.328C96.2146 209.44 96.1373 209.587 96.1373 209.768C96.1373 209.912 96.1826 210.032 96.2733 210.128C96.3693 210.219 96.4866 210.293 96.6253 210.352C96.7693 210.405 96.9666 210.467 97.2173 210.536C97.532 210.621 97.788 210.707 97.9853 210.792C98.1826 210.872 98.3506 210.995 98.4893 211.16C98.6333 211.325 98.708 211.541 98.7133 211.808C98.7133 212.048 98.6466 212.264 98.5133 212.456C98.38 212.648 98.1906 212.8 97.9453 212.912C97.7053 213.019 97.428 213.072 97.1133 213.072Z" fill="#1F1C2E"/>
<path d="M335.496 184.548C335.496 183.631 335.645 182.916 335.944 182.404C336.243 181.887 336.765 181.628 337.512 181.628C338.253 181.628 338.773 181.887 339.072 182.404C339.371 182.916 339.52 183.631 339.52 184.548C339.52 185.481 339.371 186.207 339.072 186.724C338.773 187.241 338.253 187.5 337.512 187.5C336.765 187.5 336.243 187.241 335.944 186.724C335.645 186.207 335.496 185.481 335.496 184.548ZM338.8 184.548C338.8 184.084 338.768 183.692 338.704 183.372C338.645 183.047 338.52 182.785 338.328 182.588C338.141 182.391 337.869 182.292 337.512 182.292C337.149 182.292 336.872 182.391 336.68 182.588C336.493 182.785 336.368 183.047 336.304 183.372C336.245 183.692 336.216 184.084 336.216 184.548C336.216 185.028 336.245 185.431 336.304 185.756C336.368 186.081 336.493 186.343 336.68 186.54C336.872 186.737 337.149 186.836 337.512 186.836C337.869 186.836 338.141 186.737 338.328 186.54C338.52 186.343 338.645 186.081 338.704 185.756C338.768 185.431 338.8 185.028 338.8 184.548ZM344.207 182.348H341.399V184.172C341.522 184.001 341.703 183.863 341.943 183.756C342.183 183.644 342.442 183.588 342.719 183.588C343.162 183.588 343.522 183.681 343.799 183.868C344.077 184.049 344.274 184.287 344.391 184.58C344.514 184.868 344.575 185.175 344.575 185.5C344.575 185.884 344.503 186.228 344.359 186.532C344.215 186.836 343.994 187.076 343.695 187.252C343.402 187.428 343.037 187.516 342.599 187.516C342.039 187.516 341.586 187.372 341.239 187.084C340.893 186.796 340.682 186.412 340.607 185.932H341.319C341.389 186.236 341.535 186.473 341.759 186.644C341.983 186.815 342.266 186.9 342.607 186.9C343.029 186.9 343.346 186.775 343.559 186.524C343.773 186.268 343.879 185.932 343.879 185.516C343.879 185.1 343.773 184.78 343.559 184.556C343.346 184.327 343.031 184.212 342.615 184.212C342.333 184.212 342.085 184.281 341.871 184.42C341.663 184.553 341.511 184.737 341.415 184.972H340.727V181.708H344.207V182.348ZM348.383 179.964L346.191 188.86H345.471L347.655 179.964H348.383ZM349.348 184.548C349.348 183.631 349.497 182.916 349.796 182.404C350.094 181.887 350.617 181.628 351.364 181.628C352.105 181.628 352.625 181.887 352.924 182.404C353.222 182.916 353.372 183.631 353.372 184.548C353.372 185.481 353.222 186.207 352.924 186.724C352.625 187.241 352.105 187.5 351.364 187.5C350.617 187.5 350.094 187.241 349.796 186.724C349.497 186.207 349.348 185.481 349.348 184.548ZM352.652 184.548C352.652 184.084 352.62 183.692 352.556 183.372C352.497 183.047 352.372 182.785 352.18 182.588C351.993 182.391 351.721 182.292 351.364 182.292C351.001 182.292 350.724 182.391 350.532 182.588C350.345 182.785 350.22 183.047 350.156 183.372C350.097 183.692 350.068 184.084 350.068 184.548C350.068 185.028 350.097 185.431 350.156 185.756C350.22 186.081 350.345 186.343 350.532 186.54C350.724 186.737 351.001 186.836 351.364 186.836C351.721 186.836 351.993 186.737 352.18 186.54C352.372 186.343 352.497 186.081 352.556 185.756C352.62 185.431 352.652 185.028 352.652 184.548ZM355.427 184.492C355.128 184.375 354.899 184.204 354.739 183.98C354.579 183.756 354.499 183.484 354.499 183.164C354.499 182.876 354.571 182.617 354.715 182.388C354.859 182.153 355.072 181.969 355.355 181.836C355.643 181.697 355.99 181.628 356.395 181.628C356.8 181.628 357.144 181.697 357.427 181.836C357.715 181.969 357.931 182.153 358.075 182.388C358.224 182.617 358.299 182.876 358.299 183.164C358.299 183.473 358.216 183.745 358.051 183.98C357.886 184.209 357.659 184.38 357.371 184.492C357.702 184.593 357.963 184.772 358.155 185.028C358.352 185.279 358.451 185.583 358.451 185.94C358.451 186.287 358.366 186.591 358.195 186.852C358.024 187.108 357.782 187.308 357.467 187.452C357.158 187.591 356.8 187.66 356.395 187.66C355.99 187.66 355.632 187.591 355.323 187.452C355.019 187.308 354.782 187.108 354.611 186.852C354.44 186.591 354.355 186.287 354.355 185.94C354.355 185.583 354.451 185.276 354.643 185.02C354.835 184.764 355.096 184.588 355.427 184.492ZM357.595 183.252C357.595 182.927 357.488 182.676 357.275 182.5C357.062 182.324 356.768 182.236 356.395 182.236C356.027 182.236 355.736 182.324 355.523 182.5C355.31 182.676 355.203 182.929 355.203 183.26C355.203 183.559 355.312 183.799 355.531 183.98C355.755 184.161 356.043 184.252 356.395 184.252C356.752 184.252 357.04 184.161 357.259 183.98C357.483 183.793 357.595 183.551 357.595 183.252ZM356.395 184.812C356 184.812 355.678 184.905 355.427 185.092C355.176 185.273 355.051 185.548 355.051 185.916C355.051 186.257 355.171 186.532 355.411 186.74C355.656 186.948 355.984 187.052 356.395 187.052C356.806 187.052 357.131 186.948 357.371 186.74C357.611 186.532 357.731 186.257 357.731 185.916C357.731 185.559 357.608 185.287 357.363 185.1C357.118 184.908 356.795 184.812 356.395 184.812ZM362.258 179.964L360.066 188.86H359.346L361.53 179.964H362.258ZM363.135 186.916C363.812 186.372 364.343 185.927 364.727 185.58C365.111 185.228 365.433 184.863 365.695 184.484C365.961 184.1 366.095 183.724 366.095 183.356C366.095 183.009 366.009 182.737 365.839 182.54C365.673 182.337 365.404 182.236 365.031 182.236C364.668 182.236 364.385 182.351 364.183 182.58C363.985 182.804 363.879 183.105 363.863 183.484H363.159C363.18 182.887 363.361 182.425 363.703 182.1C364.044 181.775 364.484 181.612 365.023 181.612C365.572 181.612 366.007 181.764 366.327 182.068C366.652 182.372 366.815 182.791 366.815 183.324C366.815 183.767 366.681 184.199 366.415 184.62C366.153 185.036 365.855 185.404 365.519 185.724C365.183 186.039 364.753 186.407 364.231 186.828H366.983V187.436H363.135V186.916ZM367.824 184.548C367.824 183.631 367.973 182.916 368.272 182.404C368.571 181.887 369.093 181.628 369.84 181.628C370.581 181.628 371.101 181.887 371.4 182.404C371.699 182.916 371.848 183.631 371.848 184.548C371.848 185.481 371.699 186.207 371.4 186.724C371.101 187.241 370.581 187.5 369.84 187.5C369.093 187.5 368.571 187.241 368.272 186.724C367.973 186.207 367.824 185.481 367.824 184.548ZM371.128 184.548C371.128 184.084 371.096 183.692 371.032 183.372C370.973 183.047 370.848 182.785 370.656 182.588C370.469 182.391 370.197 182.292 369.84 182.292C369.477 182.292 369.2 182.391 369.008 182.588C368.821 182.785 368.696 183.047 368.632 183.372C368.573 183.692 368.544 184.084 368.544 184.548C368.544 185.028 368.573 185.431 368.632 185.756C368.696 186.081 368.821 186.343 369.008 186.54C369.2 186.737 369.477 186.836 369.84 186.836C370.197 186.836 370.469 186.737 370.656 186.54C370.848 186.343 370.973 186.081 371.032 185.756C371.096 185.431 371.128 185.028 371.128 184.548ZM372.76 186.916C373.437 186.372 373.968 185.927 374.352 185.58C374.736 185.228 375.058 184.863 375.32 184.484C375.586 184.1 375.72 183.724 375.72 183.356C375.72 183.009 375.634 182.737 375.464 182.54C375.298 182.337 375.029 182.236 374.656 182.236C374.293 182.236 374.01 182.351 373.808 182.58C373.61 182.804 373.504 183.105 373.488 183.484H372.784C372.805 182.887 372.986 182.425 373.328 182.1C373.669 181.775 374.109 181.612 374.648 181.612C375.197 181.612 375.632 181.764 375.952 182.068C376.277 182.372 376.44 182.791 376.44 183.324C376.44 183.767 376.306 184.199 376.04 184.62C375.778 185.036 375.48 185.404 375.144 185.724C374.808 186.039 374.378 186.407 373.856 186.828H376.608V187.436H372.76V186.916ZM381.137 182.348H378.329V184.172C378.452 184.001 378.633 183.863 378.873 183.756C379.113 183.644 379.372 183.588 379.649 183.588C380.092 183.588 380.452 183.681 380.729 183.868C381.006 184.049 381.204 184.287 381.321 184.58C381.444 184.868 381.505 185.175 381.505 185.5C381.505 185.884 381.433 186.228 381.289 186.532C381.145 186.836 380.924 187.076 380.625 187.252C380.332 187.428 379.966 187.516 379.529 187.516C378.969 187.516 378.516 187.372 378.169 187.084C377.822 186.796 377.612 186.412 377.537 185.932H378.249C378.318 186.236 378.465 186.473 378.689 186.644C378.913 186.815 379.196 186.9 379.537 186.9C379.958 186.9 380.276 186.775 380.489 186.524C380.702 186.268 380.809 185.932 380.809 185.516C380.809 185.1 380.702 184.78 380.489 184.556C380.276 184.327 379.961 184.212 379.545 184.212C379.262 184.212 379.014 184.281 378.801 184.42C378.593 184.553 378.441 184.737 378.345 184.972H377.657V181.708H381.137V182.348Z" fill="#9A9AB5"/>
<path d="M319.552 202.5L318.224 200.22H317.344V202.5H316.616V196.924H318.416C318.837 196.924 319.192 196.996 319.48 197.14C319.773 197.284 319.992 197.479 320.136 197.724C320.28 197.969 320.352 198.249 320.352 198.564C320.352 198.948 320.24 199.287 320.016 199.58C319.797 199.873 319.467 200.068 319.024 200.164L320.424 202.5H319.552ZM317.344 199.636H318.416C318.811 199.636 319.107 199.54 319.304 199.348C319.501 199.151 319.6 198.889 319.6 198.564C319.6 198.233 319.501 197.977 319.304 197.796C319.112 197.615 318.816 197.524 318.416 197.524H317.344V199.636ZM325.083 200.972C325.083 201.228 325.019 201.473 324.891 201.708C324.763 201.937 324.574 202.129 324.323 202.284C324.078 202.439 323.782 202.527 323.435 202.548V203.196H323.003V202.548C322.518 202.505 322.123 202.351 321.819 202.084C321.515 201.812 321.361 201.468 321.355 201.052H322.131C322.153 201.276 322.235 201.471 322.379 201.636C322.529 201.801 322.737 201.905 323.003 201.948V199.948C322.646 199.857 322.358 199.764 322.139 199.668C321.921 199.572 321.734 199.423 321.579 199.22C321.425 199.017 321.347 198.745 321.347 198.404C321.347 197.972 321.497 197.615 321.795 197.332C322.099 197.049 322.502 196.892 323.003 196.86V196.196H323.435V196.86C323.889 196.897 324.254 197.044 324.531 197.3C324.809 197.551 324.969 197.879 325.011 198.284H324.235C324.209 198.097 324.126 197.929 323.987 197.78C323.849 197.625 323.665 197.524 323.435 197.476V199.428C323.787 199.519 324.073 199.612 324.291 199.708C324.515 199.799 324.702 199.945 324.851 200.148C325.006 200.351 325.083 200.625 325.083 200.972ZM322.091 198.364C322.091 198.625 322.169 198.825 322.323 198.964C322.478 199.103 322.705 199.217 323.003 199.308V197.46C322.726 197.487 322.505 197.577 322.339 197.732C322.174 197.881 322.091 198.092 322.091 198.364ZM323.435 201.956C323.723 201.924 323.947 201.82 324.107 201.644C324.273 201.468 324.355 201.257 324.355 201.012C324.355 200.751 324.275 200.551 324.115 200.412C323.955 200.268 323.729 200.153 323.435 200.068V201.956Z" fill="#9A9AB5"/>
<path d="M337.36 195.928H333.34V198.316C333.508 198.092 333.756 197.904 334.084 197.752C334.42 197.6 334.776 197.524 335.152 197.524C335.824 197.524 336.368 197.668 336.784 197.956C337.208 198.244 337.508 198.608 337.684 199.048C337.868 199.488 337.96 199.952 337.96 200.44C337.96 201.032 337.844 201.56 337.612 202.024C337.388 202.48 337.048 202.84 336.592 203.104C336.144 203.368 335.592 203.5 334.936 203.5C334.064 203.5 333.364 203.284 332.836 202.852C332.308 202.42 331.992 201.848 331.888 201.136H333.22C333.308 201.512 333.504 201.812 333.808 202.036C334.112 202.252 334.492 202.36 334.948 202.36C335.516 202.36 335.94 202.188 336.22 201.844C336.508 201.5 336.652 201.044 336.652 200.476C336.652 199.9 336.508 199.46 336.22 199.156C335.932 198.844 335.508 198.688 334.948 198.688C334.556 198.688 334.224 198.788 333.952 198.988C333.688 199.18 333.496 199.444 333.376 199.78H332.08V194.728H337.36V195.928ZM340.116 203.584C339.868 203.584 339.66 203.5 339.492 203.332C339.324 203.164 339.24 202.956 339.24 202.708C339.24 202.46 339.324 202.252 339.492 202.084C339.66 201.916 339.868 201.832 340.116 201.832C340.356 201.832 340.56 201.916 340.728 202.084C340.896 202.252 340.98 202.46 340.98 202.708C340.98 202.956 340.896 203.164 340.728 203.332C340.56 203.5 340.356 203.584 340.116 203.584ZM347.823 195.808L344.487 203.5H343.107L346.479 195.952H342.039V194.788H347.823V195.808ZM348.993 199.012C348.993 197.628 349.225 196.548 349.689 195.772C350.161 194.988 350.969 194.596 352.113 194.596C353.257 194.596 354.061 194.988 354.525 195.772C354.997 196.548 355.233 197.628 355.233 199.012C355.233 200.412 354.997 201.508 354.525 202.3C354.061 203.084 353.257 203.476 352.113 203.476C350.969 203.476 350.161 203.084 349.689 202.3C349.225 201.508 348.993 200.412 348.993 199.012ZM353.889 199.012C353.889 198.364 353.845 197.816 353.757 197.368C353.677 196.92 353.509 196.556 353.253 196.276C352.997 195.988 352.617 195.844 352.113 195.844C351.609 195.844 351.229 195.988 350.973 196.276C350.717 196.556 350.545 196.92 350.457 197.368C350.377 197.816 350.337 198.364 350.337 199.012C350.337 199.684 350.377 200.248 350.457 200.704C350.537 201.16 350.705 201.528 350.961 201.808C351.225 202.088 351.609 202.228 352.113 202.228C352.617 202.228 352.997 202.088 353.253 201.808C353.517 201.528 353.689 201.16 353.769 200.704C353.849 200.248 353.889 199.684 353.889 199.012ZM356.681 199.012C356.681 197.628 356.913 196.548 357.377 195.772C357.849 194.988 358.657 194.596 359.801 194.596C360.945 194.596 361.749 194.988 362.213 195.772C362.685 196.548 362.921 197.628 362.921 199.012C362.921 200.412 362.685 201.508 362.213 202.3C361.749 203.084 360.945 203.476 359.801 203.476C358.657 203.476 357.849 203.084 357.377 202.3C356.913 201.508 356.681 200.412 356.681 199.012ZM361.577 199.012C361.577 198.364 361.533 197.816 361.445 197.368C361.365 196.92 361.197 196.556 360.941 196.276C360.685 195.988 360.305 195.844 359.801 195.844C359.297 195.844 358.917 195.988 358.661 196.276C358.405 196.556 358.233 196.92 358.145 197.368C358.065 197.816 358.025 198.364 358.025 199.012C358.025 199.684 358.065 200.248 358.145 200.704C358.225 201.16 358.393 201.528 358.649 201.808C358.913 202.088 359.297 202.228 359.801 202.228C360.305 202.228 360.685 202.088 360.941 201.808C361.205 201.528 361.377 201.16 361.457 200.704C361.537 200.248 361.577 199.684 361.577 199.012ZM366.048 201.856L364.596 205.168H363.708L364.56 201.856H366.048ZM367.064 199.012C367.064 197.628 367.296 196.548 367.76 195.772C368.232 194.988 369.04 194.596 370.184 194.596C371.328 194.596 372.132 194.988 372.596 195.772C373.068 196.548 373.304 197.628 373.304 199.012C373.304 200.412 373.068 201.508 372.596 202.3C372.132 203.084 371.328 203.476 370.184 203.476C369.04 203.476 368.232 203.084 367.76 202.3C367.296 201.508 367.064 200.412 367.064 199.012ZM371.96 199.012C371.96 198.364 371.916 197.816 371.828 197.368C371.748 196.92 371.58 196.556 371.324 196.276C371.068 195.988 370.688 195.844 370.184 195.844C369.68 195.844 369.3 195.988 369.044 196.276C368.788 196.556 368.616 196.92 368.528 197.368C368.448 197.816 368.408 198.364 368.408 199.012C368.408 199.684 368.448 200.248 368.528 200.704C368.608 201.16 368.776 201.528 369.032 201.808C369.296 202.088 369.68 202.228 370.184 202.228C370.688 202.228 371.068 202.088 371.324 201.808C371.588 201.528 371.76 201.16 371.84 200.704C371.92 200.248 371.96 199.684 371.96 199.012ZM374.751 199.012C374.751 197.628 374.983 196.548 375.447 195.772C375.919 194.988 376.727 194.596 377.871 194.596C379.015 194.596 379.819 194.988 380.283 195.772C380.755 196.548 380.991 197.628 380.991 199.012C380.991 200.412 380.755 201.508 380.283 202.3C379.819 203.084 379.015 203.476 377.871 203.476C376.727 203.476 375.919 203.084 375.447 202.3C374.983 201.508 374.751 200.412 374.751 199.012ZM379.647 199.012C379.647 198.364 379.603 197.816 379.515 197.368C379.435 196.92 379.267 196.556 379.011 196.276C378.755 195.988 378.375 195.844 377.871 195.844C377.367 195.844 376.987 195.988 376.731 196.276C376.475 196.556 376.303 196.92 376.215 197.368C376.135 197.816 376.095 198.364 376.095 199.012C376.095 199.684 376.135 200.248 376.215 200.704C376.295 201.16 376.463 201.528 376.719 201.808C376.983 202.088 377.367 202.228 377.871 202.228C378.375 202.228 378.755 202.088 379.011 201.808C379.275 201.528 379.447 201.16 379.527 200.704C379.607 200.248 379.647 199.684 379.647 199.012Z" fill="white"/>
</g>
<rect x="30" y="226" width="352" height="1" rx="0.5" fill="#44425F"/>
<g clip-path="url(#clip2_36_304)">
<path d="M37.1099 269.656H47.8901C48.8569 269.656 49.626 268.861 49.522 267.944C48.8506 262.039 44.8438 262.137 44.8438 259.5C44.8438 256.863 48.9019 257.01 49.5215 251.056C49.6191 250.139 48.8569 249.344 47.8901 249.344H37.1099C36.1431 249.344 35.3828 250.139 35.4785 251.056C36.0981 257.01 40.1563 256.814 40.1563 259.5C40.1563 262.186 36.1494 262.039 35.4785 267.944C35.374 268.861 36.1431 269.656 37.1099 269.656Z" stroke="#9A9AB5" stroke-width="2" stroke-linecap="round" stroke-linejoin="round"/>
<path d="M46.7627 268.094H38.2583C37.4966 268.094 37.2818 267.215 37.8159 266.67C39.1089 265.359 41.7188 264.421 41.7188 262.918V257.938C41.7188 256.968 39.8633 256.229 38.7154 254.656C38.5259 254.397 38.5449 254.031 39.0264 254.031H45.9956C46.4063 254.031 46.4951 254.394 46.3081 254.654C45.1768 256.229 43.2813 256.963 43.2813 257.938V262.918C43.2813 264.409 46.0015 265.213 47.2071 266.671C47.6929 267.259 47.523 268.094 46.7627 268.094Z" fill="#9A9AB5"/>
<path d="M74.228 248.27C75.264 248.27 76.1693 248.471 76.944 248.872C77.728 249.264 78.33 249.833 78.75 250.58C79.1793 251.317 79.394 252.181 79.394 253.17C79.394 254.159 79.1793 255.018 78.75 255.746C78.33 256.474 77.728 257.034 76.944 257.426C76.1693 257.809 75.264 258 74.228 258H71.05V248.27H74.228ZM74.228 256.698C75.3667 256.698 76.2393 256.39 76.846 255.774C77.4527 255.158 77.756 254.29 77.756 253.17C77.756 252.041 77.4527 251.159 76.846 250.524C76.2393 249.889 75.3667 249.572 74.228 249.572H72.646V256.698H74.228ZM88.0458 253.954C88.0458 254.243 88.0271 254.505 87.9898 254.738H82.0958C82.1424 255.354 82.3711 255.849 82.7818 256.222C83.1924 256.595 83.6964 256.782 84.2938 256.782C85.1524 256.782 85.7591 256.423 86.1138 255.704H87.8358C87.6024 256.413 87.1778 256.997 86.5618 257.454C85.9551 257.902 85.1991 258.126 84.2938 258.126C83.5564 258.126 82.8938 257.963 82.3058 257.636C81.7271 257.3 81.2698 256.833 80.9338 256.236C80.6071 255.629 80.4438 254.929 80.4438 254.136C80.4438 253.343 80.6024 252.647 80.9198 252.05C81.2464 251.443 81.6991 250.977 82.2778 250.65C82.8658 250.323 83.5378 250.16 84.2938 250.16C85.0218 250.16 85.6704 250.319 86.2398 250.636C86.8091 250.953 87.2524 251.401 87.5698 251.98C87.8871 252.549 88.0458 253.207 88.0458 253.954ZM86.3798 253.45C86.3704 252.862 86.1604 252.391 85.7498 252.036C85.3391 251.681 84.8304 251.504 84.2238 251.504C83.6731 251.504 83.2018 251.681 82.8098 252.036C82.4178 252.381 82.1844 252.853 82.1098 253.45H86.3798ZM92.4164 258.126C91.8097 258.126 91.2637 258.019 90.7784 257.804C90.3024 257.58 89.9244 257.281 89.6444 256.908C89.3644 256.525 89.2151 256.101 89.1964 255.634H90.8484C90.8764 255.961 91.0304 256.236 91.3104 256.46C91.5997 256.675 91.9591 256.782 92.3884 256.782C92.8364 256.782 93.1817 256.698 93.4244 256.53C93.6764 256.353 93.8024 256.129 93.8024 255.858C93.8024 255.569 93.6624 255.354 93.3824 255.214C93.1117 255.074 92.6777 254.92 92.0804 254.752C91.5017 254.593 91.0304 254.439 90.6664 254.29C90.3024 254.141 89.9851 253.912 89.7144 253.604C89.4531 253.296 89.3224 252.89 89.3224 252.386C89.3224 251.975 89.4437 251.602 89.6864 251.266C89.9291 250.921 90.2744 250.65 90.7224 250.454C91.1797 250.258 91.7024 250.16 92.2904 250.16C93.1677 250.16 93.8724 250.384 94.4044 250.832C94.9457 251.271 95.2351 251.873 95.2724 252.638H93.6764C93.6484 252.293 93.5084 252.017 93.2564 251.812C93.0044 251.607 92.6637 251.504 92.2344 251.504C91.8144 251.504 91.4924 251.583 91.2684 251.742C91.0444 251.901 90.9324 252.111 90.9324 252.372C90.9324 252.577 91.0071 252.75 91.1564 252.89C91.3057 253.03 91.4877 253.142 91.7024 253.226C91.9171 253.301 92.2344 253.399 92.6544 253.52C93.2144 253.669 93.6717 253.823 94.0264 253.982C94.3904 254.131 94.7031 254.355 94.9644 254.654C95.2257 254.953 95.3611 255.349 95.3704 255.844C95.3704 256.283 95.2491 256.675 95.0064 257.02C94.7637 257.365 94.4184 257.636 93.9704 257.832C93.5317 258.028 93.0137 258.126 92.4164 258.126ZM96.5629 254.136C96.5629 253.343 96.7216 252.647 97.0389 252.05C97.3656 251.443 97.8136 250.977 98.3829 250.65C98.9523 250.323 99.6056 250.16 100.343 250.16C101.276 250.16 102.046 250.384 102.653 250.832C103.269 251.271 103.684 251.901 103.899 252.722H102.177C102.037 252.339 101.813 252.041 101.505 251.826C101.197 251.611 100.81 251.504 100.343 251.504C99.6896 251.504 99.1669 251.737 98.7749 252.204C98.3923 252.661 98.2009 253.305 98.2009 254.136C98.2009 254.967 98.3923 255.615 98.7749 256.082C99.1669 256.549 99.6896 256.782 100.343 256.782C101.267 256.782 101.878 256.376 102.177 255.564H103.899C103.675 256.348 103.255 256.973 102.639 257.44C102.023 257.897 101.258 258.126 100.343 258.126C99.6056 258.126 98.9523 257.963 98.3829 257.636C97.8136 257.3 97.3656 256.833 97.0389 256.236C96.7216 255.629 96.5629 254.929 96.5629 254.136ZM107.085 251.406C107.319 251.014 107.627 250.711 108.009 250.496C108.401 250.272 108.863 250.16 109.395 250.16V251.812H108.989C108.364 251.812 107.888 251.971 107.561 252.288C107.244 252.605 107.085 253.156 107.085 253.94V258H105.489V250.286H107.085V251.406ZM111.675 249.264C111.385 249.264 111.143 249.166 110.947 248.97C110.751 248.774 110.653 248.531 110.653 248.242C110.653 247.953 110.751 247.71 110.947 247.514C111.143 247.318 111.385 247.22 111.675 247.22C111.955 247.22 112.193 247.318 112.389 247.514C112.585 247.71 112.683 247.953 112.683 248.242C112.683 248.531 112.585 248.774 112.389 248.97C112.193 249.166 111.955 249.264 111.675 249.264ZM112.459 250.286V258H110.863V250.286H112.459ZM116.15 251.42C116.421 251.065 116.789 250.767 117.256 250.524C117.723 250.281 118.25 250.16 118.838 250.16C119.51 250.16 120.121 250.328 120.672 250.664C121.232 250.991 121.671 251.453 121.988 252.05C122.305 252.647 122.464 253.333 122.464 254.108C122.464 254.883 122.305 255.578 121.988 256.194C121.671 256.801 121.232 257.277 120.672 257.622C120.121 257.958 119.51 258.126 118.838 258.126C118.25 258.126 117.727 258.009 117.27 257.776C116.813 257.533 116.439 257.235 116.15 256.88V261.668H114.554V250.286H116.15V251.42ZM120.84 254.108C120.84 253.576 120.728 253.119 120.504 252.736C120.289 252.344 120 252.05 119.636 251.854C119.281 251.649 118.899 251.546 118.488 251.546C118.087 251.546 117.704 251.649 117.34 251.854C116.985 252.059 116.696 252.358 116.472 252.75C116.257 253.142 116.15 253.604 116.15 254.136C116.15 254.668 116.257 255.135 116.472 255.536C116.696 255.928 116.985 256.227 117.34 256.432C117.704 256.637 118.087 256.74 118.488 256.74C118.899 256.74 119.281 256.637 119.636 256.432C120 256.217 120.289 255.909 120.504 255.508C120.728 255.107 120.84 254.64 120.84 254.108ZM125.904 251.588V255.858C125.904 256.147 125.97 256.357 126.1 256.488C126.24 256.609 126.474 256.67 126.8 256.67H127.78V258H126.52C125.802 258 125.251 257.832 124.868 257.496C124.486 257.16 124.294 256.614 124.294 255.858V251.588H123.384V250.286H124.294V248.368H125.904V250.286H127.78V251.588H125.904ZM130.063 249.264C129.774 249.264 129.531 249.166 129.335 248.97C129.139 248.774 129.041 248.531 129.041 248.242C129.041 247.953 129.139 247.71 129.335 247.514C129.531 247.318 129.774 247.22 130.063 247.22C130.343 247.22 130.581 247.318 130.777 247.514C130.973 247.71 131.071 247.953 131.071 248.242C131.071 248.531 130.973 248.774 130.777 248.97C130.581 249.166 130.343 249.264 130.063 249.264ZM130.847 250.286V258H129.251V250.286H130.847ZM136.289 258.126C135.561 258.126 134.903 257.963 134.315 257.636C133.727 257.3 133.265 256.833 132.929 256.236C132.593 255.629 132.425 254.929 132.425 254.136C132.425 253.352 132.597 252.657 132.943 252.05C133.288 251.443 133.759 250.977 134.357 250.65C134.954 250.323 135.621 250.16 136.359 250.16C137.096 250.16 137.763 250.323 138.361 250.65C138.958 250.977 139.429 251.443 139.775 252.05C140.12 252.657 140.293 253.352 140.293 254.136C140.293 254.92 140.115 255.615 139.761 256.222C139.406 256.829 138.921 257.3 138.305 257.636C137.698 257.963 137.026 258.126 136.289 258.126ZM136.289 256.74C136.699 256.74 137.082 256.642 137.437 256.446C137.801 256.25 138.095 255.956 138.319 255.564C138.543 255.172 138.655 254.696 138.655 254.136C138.655 253.576 138.547 253.105 138.333 252.722C138.118 252.33 137.833 252.036 137.479 251.84C137.124 251.644 136.741 251.546 136.331 251.546C135.92 251.546 135.537 251.644 135.183 251.84C134.837 252.036 134.562 252.33 134.357 252.722C134.151 253.105 134.049 253.576 134.049 254.136C134.049 254.967 134.259 255.611 134.679 256.068C135.108 256.516 135.645 256.74 136.289 256.74ZM145.762 250.16C146.369 250.16 146.91 250.286 147.386 250.538C147.872 250.79 148.25 251.163 148.52 251.658C148.791 252.153 148.926 252.75 148.926 253.45V258H147.344V253.688C147.344 252.997 147.172 252.47 146.826 252.106C146.481 251.733 146.01 251.546 145.412 251.546C144.815 251.546 144.339 251.733 143.984 252.106C143.639 252.47 143.466 252.997 143.466 253.688V258H141.87V250.286H143.466V251.168C143.728 250.851 144.059 250.603 144.46 250.426C144.871 250.249 145.305 250.16 145.762 250.16Z" fill="white"/>
<rect x="70" y="270" width="40" height="12" rx="6" fill="#2EC27E"/>
<path d="M83.768 273.424V274.016H81.344V275.896H83.312V276.488H81.344V279H80.616V273.424H83.768ZM85.0233 273.904C84.8846 273.904 84.7673 273.856 84.6713 273.76C84.5753 273.664 84.5273 273.547 84.5273 273.408C84.5273 273.269 84.5753 273.152 84.6713 273.056C84.7673 272.96 84.8846 272.912 85.0233 272.912C85.1566 272.912 85.2686 272.96 85.3593 273.056C85.4553 273.152 85.5033 273.269 85.5033 273.408C85.5033 273.547 85.4553 273.664 85.3593 273.76C85.2686 273.856 85.1566 273.904 85.0233 273.904ZM85.3753 274.616V279H84.6473V274.616H85.3753ZM88.904 279L87.864 277.368L86.864 279H86.104L87.52 276.824L86.104 274.616H86.928L87.968 276.24L88.96 274.616H89.72L88.312 276.784L89.728 279H88.904ZM92.3561 279.072C91.9455 279.072 91.5721 278.979 91.2361 278.792C90.9055 278.605 90.6441 278.341 90.4521 278C90.2655 277.653 90.1721 277.253 90.1721 276.8C90.1721 276.352 90.2681 275.957 90.4601 275.616C90.6575 275.269 90.9241 275.005 91.2601 274.824C91.5961 274.637 91.9721 274.544 92.3881 274.544C92.8041 274.544 93.1801 274.637 93.5161 274.824C93.8521 275.005 94.1161 275.267 94.3081 275.608C94.5055 275.949 94.6041 276.347 94.6041 276.8C94.6041 277.253 94.5028 277.653 94.3001 278C94.1028 278.341 93.8335 278.605 93.4921 278.792C93.1508 278.979 92.7721 279.072 92.3561 279.072ZM92.3561 278.432C92.6175 278.432 92.8628 278.371 93.0921 278.248C93.3215 278.125 93.5055 277.941 93.6441 277.696C93.7881 277.451 93.8601 277.152 93.8601 276.8C93.8601 276.448 93.7908 276.149 93.6521 275.904C93.5135 275.659 93.3321 275.477 93.1081 275.36C92.8841 275.237 92.6415 275.176 92.3801 275.176C92.1135 275.176 91.8681 275.237 91.6441 275.36C91.4255 275.477 91.2495 275.659 91.1161 275.904C90.9828 276.149 90.9161 276.448 90.9161 276.8C90.9161 277.157 90.9801 277.459 91.1081 277.704C91.2415 277.949 91.4175 278.133 91.6361 278.256C91.8548 278.373 92.0948 278.432 92.3561 278.432ZM97.1133 279.072C96.7773 279.072 96.476 279.016 96.2093 278.904C95.9426 278.787 95.732 278.627 95.5773 278.424C95.4226 278.216 95.3373 277.979 95.3213 277.712H96.0733C96.0946 277.931 96.196 278.109 96.3773 278.248C96.564 278.387 96.8066 278.456 97.1053 278.456C97.3826 278.456 97.6013 278.395 97.7613 278.272C97.9213 278.149 98.0013 277.995 98.0013 277.808C98.0013 277.616 97.916 277.475 97.7453 277.384C97.5746 277.288 97.3106 277.195 96.9533 277.104C96.628 277.019 96.3613 276.933 96.1533 276.848C95.9506 276.757 95.7746 276.627 95.6253 276.456C95.4813 276.28 95.4093 276.051 95.4093 275.768C95.4093 275.544 95.476 275.339 95.6093 275.152C95.7426 274.965 95.932 274.819 96.1773 274.712C96.4226 274.6 96.7026 274.544 97.0173 274.544C97.5026 274.544 97.8946 274.667 98.1933 274.912C98.492 275.157 98.652 275.493 98.6733 275.92H97.9453C97.9293 275.691 97.836 275.507 97.6653 275.368C97.5 275.229 97.276 275.16 96.9933 275.16C96.732 275.16 96.524 275.216 96.3693 275.328C96.2146 275.44 96.1373 275.587 96.1373 275.768C96.1373 275.912 96.1826 276.032 96.2733 276.128C96.3693 276.219 96.4866 276.293 96.6253 276.352C96.7693 276.405 96.9666 276.467 97.2173 276.536C97.532 276.621 97.788 276.707 97.9853 276.792C98.1826 276.872 98.3506 276.995 98.4893 277.16C98.6333 277.325 98.708 277.541 98.7133 277.808C98.7133 278.048 98.6466 278.264 98.5133 278.456C98.38 278.648 98.1906 278.8 97.9453 278.912C97.7053 279.019 97.428 279.072 97.1133 279.072Z" fill="#1F1C2E"/>
<path d="M335.408 252.916C336.085 252.372 336.616 251.927 337 251.58C337.384 251.228 337.707 250.863 337.968 250.484C338.235 250.1 338.368 249.724 338.368 249.356C338.368 249.009 338.283 248.737 338.112 248.54C337.947 248.337 337.677 248.236 337.304 248.236C336.941 248.236 336.659 248.351 336.456 248.58C336.259 248.804 336.152 249.105 336.136 249.484H335.432C335.453 248.887 335.635 248.425 335.976 248.1C336.317 247.775 336.757 247.612 337.296 247.612C337.845 247.612 338.28 247.764 338.6 248.068C338.925 248.372 339.088 248.791 339.088 249.324C339.088 249.767 338.955 250.199 338.688 250.62C338.427 251.036 338.128 251.404 337.792 251.724C337.456 252.039 337.027 252.407 336.504 252.828H339.256V253.436H335.408V252.916ZM343.786 248.348H340.978V250.172C341.1 250.001 341.282 249.863 341.522 249.756C341.762 249.644 342.02 249.588 342.298 249.588C342.74 249.588 343.1 249.681 343.378 249.868C343.655 250.049 343.852 250.287 343.97 250.58C344.092 250.868 344.154 251.175 344.154 251.5C344.154 251.884 344.082 252.228 343.938 252.532C343.794 252.836 343.572 253.076 343.274 253.252C342.98 253.428 342.615 253.516 342.178 253.516C341.618 253.516 341.164 253.372 340.818 253.084C340.471 252.796 340.26 252.412 340.186 251.932H340.898C340.967 252.236 341.114 252.473 341.338 252.644C341.562 252.815 341.844 252.9 342.186 252.9C342.607 252.9 342.924 252.775 343.138 252.524C343.351 252.268 343.458 251.932 343.458 251.516C343.458 251.1 343.351 250.78 343.138 250.556C342.924 250.327 342.61 250.212 342.194 250.212C341.911 250.212 341.663 250.281 341.45 250.42C341.242 250.553 341.09 250.737 340.994 250.972H340.306V247.708H343.786V248.348ZM347.961 245.964L345.769 254.86H345.049L347.233 245.964H347.961ZM348.926 250.548C348.926 249.631 349.075 248.916 349.374 248.404C349.672 247.887 350.195 247.628 350.942 247.628C351.683 247.628 352.203 247.887 352.502 248.404C352.8 248.916 352.95 249.631 352.95 250.548C352.95 251.481 352.8 252.207 352.502 252.724C352.203 253.241 351.683 253.5 350.942 253.5C350.195 253.5 349.672 253.241 349.374 252.724C349.075 252.207 348.926 251.481 348.926 250.548ZM352.23 250.548C352.23 250.084 352.198 249.692 352.134 249.372C352.075 249.047 351.95 248.785 351.758 248.588C351.571 248.391 351.299 248.292 350.942 248.292C350.579 248.292 350.302 248.391 350.11 248.588C349.923 248.785 349.798 249.047 349.734 249.372C349.675 249.692 349.646 250.084 349.646 250.548C349.646 251.028 349.675 251.431 349.734 251.756C349.798 252.081 349.923 252.343 350.11 252.54C350.302 252.737 350.579 252.836 350.942 252.836C351.299 252.836 351.571 252.737 351.758 252.54C351.95 252.343 352.075 252.081 352.134 251.756C352.198 251.431 352.23 251.028 352.23 250.548ZM355.005 250.492C354.706 250.375 354.477 250.204 354.317 249.98C354.157 249.756 354.077 249.484 354.077 249.164C354.077 248.876 354.149 248.617 354.293 248.388C354.437 248.153 354.65 247.969 354.933 247.836C355.221 247.697 355.568 247.628 355.973 247.628C356.378 247.628 356.722 247.697 357.005 247.836C357.293 247.969 357.509 248.153 357.653 248.388C357.802 248.617 357.877 248.876 357.877 249.164C357.877 249.473 357.794 249.745 357.629 249.98C357.464 250.209 357.237 250.38 356.949 250.492C357.28 250.593 357.541 250.772 357.733 251.028C357.93 251.279 358.029 251.583 358.029 251.94C358.029 252.287 357.944 252.591 357.773 252.852C357.602 253.108 357.36 253.308 357.045 253.452C356.736 253.591 356.378 253.66 355.973 253.66C355.568 253.66 355.21 253.591 354.901 253.452C354.597 253.308 354.36 253.108 354.189 252.852C354.018 252.591 353.933 252.287 353.933 251.94C353.933 251.583 354.029 251.276 354.221 251.02C354.413 250.764 354.674 250.588 355.005 250.492ZM357.173 249.252C357.173 248.927 357.066 248.676 356.853 248.5C356.64 248.324 356.346 248.236 355.973 248.236C355.605 248.236 355.314 248.324 355.101 248.5C354.888 248.676 354.781 248.929 354.781 249.26C354.781 249.559 354.89 249.799 355.109 249.98C355.333 250.161 355.621 250.252 355.973 250.252C356.33 250.252 356.618 250.161 356.837 249.98C357.061 249.793 357.173 249.551 357.173 249.252ZM355.973 250.812C355.578 250.812 355.256 250.905 355.005 251.092C354.754 251.273 354.629 251.548 354.629 251.916C354.629 252.257 354.749 252.532 354.989 252.74C355.234 252.948 355.562 253.052 355.973 253.052C356.384 253.052 356.709 252.948 356.949 252.74C357.189 252.532 357.309 252.257 357.309 251.916C357.309 251.559 357.186 251.287 356.941 251.1C356.696 250.908 356.373 250.812 355.973 250.812ZM361.836 245.964L359.644 254.86H358.924L361.108 245.964H361.836ZM362.713 252.916C363.39 252.372 363.921 251.927 364.305 251.58C364.689 251.228 365.011 250.863 365.273 250.484C365.539 250.1 365.673 249.724 365.673 249.356C365.673 249.009 365.587 248.737 365.417 248.54C365.251 248.337 364.982 248.236 364.609 248.236C364.246 248.236 363.963 248.351 363.761 248.58C363.563 248.804 363.457 249.105 363.441 249.484H362.737C362.758 248.887 362.939 248.425 363.281 248.1C363.622 247.775 364.062 247.612 364.601 247.612C365.15 247.612 365.585 247.764 365.905 248.068C366.23 248.372 366.393 248.791 366.393 249.324C366.393 249.767 366.259 250.199 365.993 250.62C365.731 251.036 365.433 251.404 365.097 251.724C364.761 252.039 364.331 252.407 363.809 252.828H366.561V253.436H362.713V252.916ZM367.402 250.548C367.402 249.631 367.552 248.916 367.85 248.404C368.149 247.887 368.672 247.628 369.418 247.628C370.16 247.628 370.68 247.887 370.978 248.404C371.277 248.916 371.426 249.631 371.426 250.548C371.426 251.481 371.277 252.207 370.978 252.724C370.68 253.241 370.16 253.5 369.418 253.5C368.672 253.5 368.149 253.241 367.85 252.724C367.552 252.207 367.402 251.481 367.402 250.548ZM370.706 250.548C370.706 250.084 370.674 249.692 370.61 249.372C370.552 249.047 370.426 248.785 370.234 248.588C370.048 248.391 369.776 248.292 369.418 248.292C369.056 248.292 368.778 248.391 368.586 248.588C368.4 248.785 368.274 249.047 368.21 249.372C368.152 249.692 368.122 250.084 368.122 250.548C368.122 251.028 368.152 251.431 368.21 251.756C368.274 252.081 368.4 252.343 368.586 252.54C368.778 252.737 369.056 252.836 369.418 252.836C369.776 252.836 370.048 252.737 370.234 252.54C370.426 252.343 370.552 252.081 370.61 251.756C370.674 251.431 370.706 251.028 370.706 250.548ZM372.338 252.916C373.015 252.372 373.546 251.927 373.93 251.58C374.314 251.228 374.636 250.863 374.898 250.484C375.164 250.1 375.298 249.724 375.298 249.356C375.298 249.009 375.212 248.737 375.042 248.54C374.876 248.337 374.607 248.236 374.234 248.236C373.871 248.236 373.588 248.351 373.386 248.58C373.188 248.804 373.082 249.105 373.066 249.484H372.362C372.383 248.887 372.564 248.425 372.906 248.1C373.247 247.775 373.687 247.612 374.226 247.612C374.775 247.612 375.21 247.764 375.53 248.068C375.855 248.372 376.018 248.791 376.018 249.324C376.018 249.767 375.884 250.199 375.618 250.62C375.356 251.036 375.058 251.404 374.722 251.724C374.386 252.039 373.956 252.407 373.434 252.828H376.186V253.436H372.338V252.916ZM380.715 248.348H377.907V250.172C378.03 250.001 378.211 249.863 378.451 249.756C378.691 249.644 378.95 249.588 379.227 249.588C379.67 249.588 380.03 249.681 380.307 249.868C380.585 250.049 380.782 250.287 380.899 250.58C381.022 250.868 381.083 251.175 381.083 251.5C381.083 251.884 381.011 252.228 380.867 252.532C380.723 252.836 380.502 253.076 380.203 253.252C379.91 253.428 379.545 253.516 379.107 253.516C378.547 253.516 378.094 253.372 377.747 253.084C377.401 252.796 377.19 252.412 377.115 251.932H377.827C377.897 252.236 378.043 252.473 378.267 252.644C378.491 252.815 378.774 252.9 379.115 252.9C379.537 252.9 379.854 252.775 380.067 252.524C380.281 252.268 380.387 251.932 380.387 251.516C380.387 251.1 380.281 250.78 380.067 250.556C379.854 250.327 379.539 250.212 379.123 250.212C378.841 250.212 378.593 250.281 378.379 250.42C378.171 250.553 378.019 250.737 377.923 250.972H377.235V247.708H380.715V248.348Z" fill="#9A9AB5"/>
<path d="M321.552 268.5L320.224 266.22H319.344V268.5H318.616V262.924H320.416C320.837 262.924 321.192 262.996 321.48 263.14C321.773 263.284 321.992 263.479 322.136 263.724C322.28 263.969 322.352 264.249 322.352 264.564C322.352 264.948 322.24 265.287 322.016 265.58C321.797 265.873 321.467 266.068 321.024 266.164L322.424 268.5H321.552ZM319.344 265.636H320.416C320.811 265.636 321.107 265.54 321.304 265.348C321.501 265.151 321.6 264.889 321.6 264.564C321.6 264.233 321.501 263.977 321.304 263.796C321.112 263.615 320.816 263.524 320.416 263.524H319.344V265.636ZM327.083 266.972C327.083 267.228 327.019 267.473 326.891 267.708C326.763 267.937 326.574 268.129 326.323 268.284C326.078 268.439 325.782 268.527 325.435 268.548V269.196H325.003V268.548C324.518 268.505 324.123 268.351 323.819 268.084C323.515 267.812 323.361 267.468 323.355 267.052H324.131C324.153 267.276 324.235 267.471 324.379 267.636C324.529 267.801 324.737 267.905 325.003 267.948V265.948C324.646 265.857 324.358 265.764 324.139 265.668C323.921 265.572 323.734 265.423 323.579 265.22C323.425 265.017 323.347 264.745 323.347 264.404C323.347 263.972 323.497 263.615 323.795 263.332C324.099 263.049 324.502 262.892 325.003 262.86V262.196H325.435V262.86C325.889 262.897 326.254 263.044 326.531 263.3C326.809 263.551 326.969 263.879 327.011 264.284H326.235C326.209 264.097 326.126 263.929 325.987 263.78C325.849 263.625 325.665 263.524 325.435 263.476V265.428C325.787 265.519 326.073 265.612 326.291 265.708C326.515 265.799 326.702 265.945 326.851 266.148C327.006 266.351 327.083 266.625 327.083 266.972ZM324.091 264.364C324.091 264.625 324.169 264.825 324.323 264.964C324.478 265.103 324.705 265.217 325.003 265.308V263.46C324.726 263.487 324.505 263.577 324.339 263.732C324.174 263.881 324.091 264.092 324.091 264.364ZM325.435 267.956C325.723 267.924 325.947 267.82 326.107 267.644C326.273 267.468 326.355 267.257 326.355 267.012C326.355 266.751 326.275 266.551 326.115 266.412C325.955 266.268 325.729 266.153 325.435 266.068V267.956Z" fill="#9A9AB5"/>
<path d="M333.54 262V260.752H336.036V269.5H334.656V262H333.54ZM338.647 269.584C338.399 269.584 338.191 269.5 338.023 269.332C337.855 269.164 337.771 268.956 337.771 268.708C337.771 268.46 337.855 268.252 338.023 268.084C338.191 267.916 338.399 267.832 338.647 267.832C338.887 267.832 339.091 267.916 339.259 268.084C339.427 268.252 339.511 268.46 339.511 268.708C339.511 268.956 339.427 269.164 339.259 269.332C339.091 269.5 338.887 269.584 338.647 269.584ZM340.81 265.012C340.81 263.628 341.042 262.548 341.506 261.772C341.978 260.988 342.786 260.596 343.93 260.596C345.074 260.596 345.878 260.988 346.342 261.772C346.814 262.548 347.05 263.628 347.05 265.012C347.05 266.412 346.814 267.508 346.342 268.3C345.878 269.084 345.074 269.476 343.93 269.476C342.786 269.476 341.978 269.084 341.506 268.3C341.042 267.508 340.81 266.412 340.81 265.012ZM345.706 265.012C345.706 264.364 345.662 263.816 345.574 263.368C345.494 262.92 345.326 262.556 345.07 262.276C344.814 261.988 344.434 261.844 343.93 261.844C343.426 261.844 343.046 261.988 342.79 262.276C342.534 262.556 342.362 262.92 342.274 263.368C342.194 263.816 342.154 264.364 342.154 265.012C342.154 265.684 342.194 266.248 342.274 266.704C342.354 267.16 342.522 267.528 342.778 267.808C343.042 268.088 343.426 268.228 343.93 268.228C344.434 268.228 344.814 268.088 345.07 267.808C345.334 267.528 345.506 267.16 345.586 266.704C345.666 266.248 345.706 265.684 345.706 265.012ZM348.497 265.012C348.497 263.628 348.729 262.548 349.193 261.772C349.665 260.988 350.473 260.596 351.617 260.596C352.761 260.596 353.565 260.988 354.029 261.772C354.501 262.548 354.737 263.628 354.737 265.012C354.737 266.412 354.501 267.508 354.029 268.3C353.565 269.084 352.761 269.476 351.617 269.476C350.473 269.476 349.665 269.084 349.193 268.3C348.729 267.508 348.497 266.412 348.497 265.012ZM353.393 265.012C353.393 264.364 353.349 263.816 353.261 263.368C353.181 262.92 353.013 262.556 352.757 262.276C352.501 261.988 352.121 261.844 351.617 261.844C351.113 261.844 350.733 261.988 350.477 262.276C350.221 262.556 350.049 262.92 349.961 263.368C349.881 263.816 349.841 264.364 349.841 265.012C349.841 265.684 349.881 266.248 349.961 266.704C350.041 267.16 350.209 267.528 350.465 267.808C350.729 268.088 351.113 268.228 351.617 268.228C352.121 268.228 352.501 268.088 352.757 267.808C353.021 267.528 353.193 267.16 353.273 266.704C353.353 266.248 353.393 265.684 353.393 265.012ZM356.185 265.012C356.185 263.628 356.417 262.548 356.881 261.772C357.353 260.988 358.161 260.596 359.305 260.596C360.449 260.596 361.253 260.988 361.717 261.772C362.189 262.548 362.425 263.628 362.425 265.012C362.425 266.412 362.189 267.508 361.717 268.3C361.253 269.084 360.449 269.476 359.305 269.476C358.161 269.476 357.353 269.084 356.881 268.3C356.417 267.508 356.185 266.412 356.185 265.012ZM361.081 265.012C361.081 264.364 361.037 263.816 360.949 263.368C360.869 262.92 360.701 262.556 360.445 262.276C360.189 261.988 359.809 261.844 359.305 261.844C358.801 261.844 358.421 261.988 358.165 262.276C357.909 262.556 357.737 262.92 357.649 263.368C357.569 263.816 357.529 264.364 357.529 265.012C357.529 265.684 357.569 266.248 357.649 266.704C357.729 267.16 357.897 267.528 358.153 267.808C358.417 268.088 358.801 268.228 359.305 268.228C359.809 268.228 360.189 268.088 360.445 267.808C360.709 267.528 360.881 267.16 360.961 266.704C361.041 266.248 361.081 265.684 361.081 265.012ZM365.552 267.856L364.1 271.168H363.212L364.064 267.856H365.552ZM366.568 265.012C366.568 263.628 366.8 262.548 367.264 261.772C367.736 260.988 368.544 260.596 369.688 260.596C370.832 260.596 371.636 260.988 372.1 261.772C372.572 262.548 372.808 263.628 372.808 265.012C372.808 266.412 372.572 267.508 372.1 268.3C371.636 269.084 370.832 269.476 369.688 269.476C368.544 269.476 367.736 269.084 367.264 268.3C366.8 267.508 366.568 266.412 366.568 265.012ZM371.464 265.012C371.464 264.364 371.42 263.816 371.332 263.368C371.252 262.92 371.084 262.556 370.828 262.276C370.572 261.988 370.192 261.844 369.688 261.844C369.184 261.844 368.804 261.988 368.548 262.276C368.292 262.556 368.12 262.92 368.032 263.368C367.952 263.816 367.912 264.364 367.912 265.012C367.912 265.684 367.952 266.248 368.032 266.704C368.112 267.16 368.28 267.528 368.536 267.808C368.8 268.088 369.184 268.228 369.688 268.228C370.192 268.228 370.572 268.088 370.828 267.808C371.092 267.528 371.264 267.16 371.344 266.704C371.424 266.248 371.464 265.684 371.464 265.012ZM374.255 265.012C374.255 263.628 374.487 262.548 374.951 261.772C375.423 260.988 376.231 260.596 377.375 260.596C378.519 260.596 379.323 260.988 379.787 261.772C380.259 262.548 380.495 263.628 380.495 265.012C380.495 266.412 380.259 267.508 379.787 268.3C379.323 269.084 378.519 269.476 377.375 269.476C376.231 269.476 375.423 269.084 374.951 268.3C374.487 267.508 374.255 266.412 374.255 265.012ZM379.151 265.012C379.151 264.364 379.107 263.816 379.019 263.368C378.939 262.92 378.771 262.556 378.515 262.276C378.259 261.988 377.879 261.844 377.375 261.844C376.871 261.844 376.491 261.988 376.235 262.276C375.979 262.556 375.807 262.92 375.719 263.368C375.639 263.816 375.599 264.364 375.599 265.012C375.599 265.684 375.639 266.248 375.719 266.704C375.799 267.16 375.967 267.528 376.223 267.808C376.487 268.088 376.871 268.228 377.375 268.228C377.879 268.228 378.259 268.088 378.515 267.808C378.779 267.528 378.951 267.16 379.031 266.704C379.111 266.248 379.151 265.684 379.151 265.012Z" fill="white"/>
</g>
<g filter="url(#filter0_d_36_304)">
<rect width="412" height="45" fill="#302D43"/>
<path d="M39.2308 32L30 22.5L39.2308 13M31.2821 22.5H50" stroke="white" stroke-width="3" stroke-miterlimit="10" stroke-linecap="square"/>
<path d="M366.5 25.4062C368.105 25.4062 369.406 24.1051 369.406 22.5C369.406 20.8949 368.105 19.5938 366.5 19.5938C364.895 19.5938 363.594 20.8949 363.594 22.5C363.594 24.1051 364.895 25.4062 366.5 25.4062Z" fill="white"/>
<path d="M376.188 25.4062C377.793 25.4062 379.094 24.1051 379.094 22.5C379.094 20.8949 377.793 19.5938 376.188 19.5938C374.582 19.5938 373.281 20.8949 373.281 22.5C373.281 24.1051 374.582 25.4062 376.188 25.4062Z" fill="white"/>
<path d="M356.812 25.4062C358.418 25.4062 359.719 24.1051 359.719 22.5C359.719 20.8949 358.418 19.5938 356.812 19.5938C355.207 19.5938 353.906 20.8949 353.906 22.5C353.906 24.1051 355.207 25.4062 356.812 25.4062Z" fill="white"/>
</g>
<path d="M110.016 75.4688L102.984 82.5L110.016 89.5312" stroke="#9A9AB5" stroke-width="4" stroke-linecap="round" stroke-linejoin="round"/>
<path d="M164.436 72.49C165.768 72.49 166.932 72.748 167.928 73.264C168.936 73.768 169.71 74.5 170.25 75.46C170.802 76.408 171.078 77.518 171.078 78.79C171.078 80.062 170.802 81.166 170.25 82.102C169.71 83.038 168.936 83.758 167.928 84.262C166.932 84.754 165.768 85 164.436 85H160.35V72.49H164.436ZM164.436 83.326C165.9 83.326 167.022 82.93 167.802 82.138C168.582 81.346 168.972 80.23 168.972 78.79C168.972 77.338 168.582 76.204 167.802 75.388C167.022 74.572 165.9 74.164 164.436 74.164H162.402V83.326H164.436ZM182.202 79.798C182.202 80.17 182.178 80.506 182.13 80.806H174.552C174.612 81.598 174.906 82.234 175.434 82.714C175.962 83.194 176.61 83.434 177.378 83.434C178.482 83.434 179.262 82.972 179.718 82.048H181.932C181.632 82.96 181.086 83.71 180.294 84.298C179.514 84.874 178.542 85.162 177.378 85.162C176.43 85.162 175.578 84.952 174.822 84.532C174.078 84.1 173.49 83.5 173.058 82.732C172.638 81.952 172.428 81.052 172.428 80.032C172.428 79.012 172.632 78.118 173.04 77.35C173.46 76.57 174.042 75.97 174.786 75.55C175.542 75.13 176.406 74.92 177.378 74.92C178.314 74.92 179.148 75.124 179.88 75.532C180.612 75.94 181.182 76.516 181.59 77.26C181.998 77.992 182.202 78.838 182.202 79.798ZM180.06 79.15C180.048 78.394 179.778 77.788 179.25 77.332C178.722 76.876 178.068 76.648 177.288 76.648C176.58 76.648 175.974 76.876 175.47 77.332C174.966 77.776 174.666 78.382 174.57 79.15H180.06ZM186.039 83.326H190.539V85H183.663V83.326L188.181 76.756H183.663V75.082H190.539V76.756L186.039 83.326ZM201.784 79.798C201.784 80.17 201.76 80.506 201.712 80.806H194.134C194.194 81.598 194.488 82.234 195.016 82.714C195.544 83.194 196.192 83.434 196.96 83.434C198.064 83.434 198.844 82.972 199.3 82.048H201.514C201.214 82.96 200.668 83.71 199.876 84.298C199.096 84.874 198.124 85.162 196.96 85.162C196.012 85.162 195.16 84.952 194.404 84.532C193.66 84.1 193.072 83.5 192.64 82.732C192.22 81.952 192.01 81.052 192.01 80.032C192.01 79.012 192.214 78.118 192.622 77.35C193.042 76.57 193.624 75.97 194.368 75.55C195.124 75.13 195.988 74.92 196.96 74.92C197.896 74.92 198.73 75.124 199.462 75.532C200.194 75.94 200.764 76.516 201.172 77.26C201.58 77.992 201.784 78.838 201.784 79.798ZM199.642 79.15C199.63 78.394 199.36 77.788 198.832 77.332C198.304 76.876 197.65 76.648 196.87 76.648C196.162 76.648 195.556 76.876 195.052 77.332C194.548 77.776 194.248 78.382 194.152 79.15H199.642ZM215.809 74.92C216.589 74.92 217.285 75.082 217.897 75.406C218.521 75.73 219.007 76.21 219.355 76.846C219.715 77.482 219.895 78.25 219.895 79.15V85H217.861V79.456C217.861 78.568 217.639 77.89 217.195 77.422C216.751 76.942 216.145 76.702 215.377 76.702C214.609 76.702 213.997 76.942 213.541 77.422C213.097 77.89 212.875 78.568 212.875 79.456V85H210.841V79.456C210.841 78.568 210.619 77.89 210.175 77.422C209.731 76.942 209.125 76.702 208.357 76.702C207.589 76.702 206.977 76.942 206.521 77.422C206.077 77.89 205.855 78.568 205.855 79.456V85H203.803V75.082H205.855V76.216C206.191 75.808 206.617 75.49 207.133 75.262C207.649 75.034 208.201 74.92 208.789 74.92C209.581 74.92 210.289 75.088 210.913 75.424C211.537 75.76 212.017 76.246 212.353 76.882C212.653 76.282 213.121 75.808 213.757 75.46C214.393 75.1 215.077 74.92 215.809 74.92ZM224.558 76.558C224.906 76.078 225.38 75.688 225.98 75.388C226.592 75.076 227.27 74.92 228.014 74.92C228.89 74.92 229.682 75.13 230.39 75.55C231.098 75.97 231.656 76.57 232.064 77.35C232.472 78.118 232.676 79 232.676 79.996C232.676 80.992 232.472 81.886 232.064 82.678C231.656 83.458 231.092 84.07 230.372 84.514C229.664 84.946 228.878 85.162 228.014 85.162C227.246 85.162 226.562 85.012 225.962 84.712C225.374 84.412 224.906 84.028 224.558 83.56V85H222.506V71.68H224.558V76.558ZM230.588 79.996C230.588 79.312 230.444 78.724 230.156 78.232C229.88 77.728 229.508 77.35 229.04 77.098C228.584 76.834 228.092 76.702 227.564 76.702C227.048 76.702 226.556 76.834 226.088 77.098C225.632 77.362 225.26 77.746 224.972 78.25C224.696 78.754 224.558 79.348 224.558 80.032C224.558 80.716 224.696 81.316 224.972 81.832C225.26 82.336 225.632 82.72 226.088 82.984C226.556 83.248 227.048 83.38 227.564 83.38C228.092 83.38 228.584 83.248 229.04 82.984C229.508 82.708 229.88 82.312 230.156 81.796C230.444 81.28 230.588 80.68 230.588 79.996ZM236.757 76.522C237.057 76.018 237.453 75.628 237.945 75.352C238.449 75.064 239.043 74.92 239.727 74.92V77.044H239.205C238.401 77.044 237.789 77.248 237.369 77.656C236.961 78.064 236.757 78.772 236.757 79.78V85H234.705V75.082H236.757V76.522ZM245.916 85.162C244.98 85.162 244.134 84.952 243.378 84.532C242.622 84.1 242.028 83.5 241.596 82.732C241.164 81.952 240.948 81.052 240.948 80.032C240.948 79.024 241.17 78.13 241.614 77.35C242.058 76.57 242.664 75.97 243.432 75.55C244.2 75.13 245.058 74.92 246.006 74.92C246.954 74.92 247.812 75.13 248.58 75.55C249.348 75.97 249.954 76.57 250.398 77.35C250.842 78.13 251.064 79.024 251.064 80.032C251.064 81.04 250.836 81.934 250.38 82.714C249.924 83.494 249.3 84.1 248.508 84.532C247.728 84.952 246.864 85.162 245.916 85.162ZM245.916 83.38C246.444 83.38 246.936 83.254 247.392 83.002C247.86 82.75 248.238 82.372 248.526 81.868C248.814 81.364 248.958 80.752 248.958 80.032C248.958 79.312 248.82 78.706 248.544 78.214C248.268 77.71 247.902 77.332 247.446 77.08C246.99 76.828 246.498 76.702 245.97 76.702C245.442 76.702 244.95 76.828 244.494 77.08C244.05 77.332 243.696 77.71 243.432 78.214C243.168 78.706 243.036 79.312 243.036 80.032C243.036 81.1 243.306 81.928 243.846 82.516C244.398 83.092 245.088 83.38 245.916 83.38Z" fill="white"/>
<path d="M170.629 92.3304C170.956 92.1149 171.339 92 171.731 92H246.311C248.2 92 249.036 94.3778 247.563 95.56L242.577 99.56C242.222 99.8448 241.78 100 241.325 100H165.665C163.681 100 162.908 97.4227 164.564 96.3304L170.629 92.3304Z" fill="#5E60CE"/>
<path d="M300.984 75.4688L308.016 82.5L300.984 89.5312" stroke="#9A9AB5" stroke-width="4" stroke-linecap="round" stroke-linejoin="round"/>
<path d="M100.848 134L97.968 128.996H96.402V134H94.35V121.49H98.67C99.63 121.49 100.44 121.658 101.1 121.994C101.772 122.33 102.27 122.78 102.594 123.344C102.93 123.908 103.098 124.538 103.098 125.234C103.098 126.05 102.858 126.794 102.378 127.466C101.91 128.126 101.184 128.576 100.2 128.816L103.296 134H100.848ZM96.402 127.358H98.67C99.438 127.358 100.014 127.166 100.398 126.782C100.794 126.398 100.992 125.882 100.992 125.234C100.992 124.586 100.8 124.082 100.416 123.722C100.032 123.35 99.45 123.164 98.67 123.164H96.402V127.358ZM114.813 128.798C114.813 129.17 114.789 129.506 114.741 129.806H107.163C107.223 130.598 107.517 131.234 108.045 131.714C108.573 132.194 109.221 132.434 109.989 132.434C111.093 132.434 111.873 131.972 112.329 131.048H114.543C114.243 131.96 113.697 132.71 112.905 133.298C112.125 133.874 111.153 134.162 109.989 134.162C109.041 134.162 108.189 133.952 107.433 133.532C106.689 133.1 106.101 132.5 105.669 131.732C105.249 130.952 105.039 130.052 105.039 129.032C105.039 128.012 105.243 127.118 105.651 126.35C106.071 125.57 106.653 124.97 107.397 124.55C108.153 124.13 109.017 123.92 109.989 123.92C110.925 123.92 111.759 124.124 112.491 124.532C113.223 124.94 113.793 125.516 114.201 126.26C114.609 126.992 114.813 127.838 114.813 128.798ZM112.671 128.15C112.659 127.394 112.389 126.788 111.861 126.332C111.333 125.876 110.679 125.648 109.899 125.648C109.191 125.648 108.585 125.876 108.081 126.332C107.577 126.776 107.277 127.382 107.181 128.15H112.671ZM116.148 129.032C116.148 128.012 116.352 127.118 116.76 126.35C117.18 125.57 117.756 124.97 118.488 124.55C119.22 124.13 120.06 123.92 121.008 123.92C122.208 123.92 123.198 124.208 123.978 124.784C124.77 125.348 125.304 126.158 125.58 127.214H123.366C123.186 126.722 122.898 126.338 122.502 126.062C122.106 125.786 121.608 125.648 121.008 125.648C120.168 125.648 119.496 125.948 118.992 126.548C118.5 127.136 118.254 127.964 118.254 129.032C118.254 130.1 118.5 130.934 118.992 131.534C119.496 132.134 120.168 132.434 121.008 132.434C122.196 132.434 122.982 131.912 123.366 130.868H125.58C125.292 131.876 124.752 132.68 123.96 133.28C123.168 133.868 122.184 134.162 121.008 134.162C120.06 134.162 119.22 133.952 118.488 133.532C117.756 133.1 117.18 132.5 116.76 131.732C116.352 130.952 116.148 130.052 116.148 129.032ZM136.715 128.798C136.715 129.17 136.691 129.506 136.643 129.806H129.065C129.125 130.598 129.419 131.234 129.947 131.714C130.475 132.194 131.123 132.434 131.891 132.434C132.995 132.434 133.775 131.972 134.231 131.048H136.445C136.145 131.96 135.599 132.71 134.807 133.298C134.027 133.874 133.055 134.162 131.891 134.162C130.943 134.162 130.091 133.952 129.335 133.532C128.591 133.1 128.003 132.5 127.571 131.732C127.151 130.952 126.941 130.052 126.941 129.032C126.941 128.012 127.145 127.118 127.553 126.35C127.973 125.57 128.555 124.97 129.299 124.55C130.055 124.13 130.919 123.92 131.891 123.92C132.827 123.92 133.661 124.124 134.393 124.532C135.125 124.94 135.695 125.516 136.103 126.26C136.511 126.992 136.715 127.838 136.715 128.798ZM134.573 128.15C134.561 127.394 134.291 126.788 133.763 126.332C133.235 125.876 132.581 125.648 131.801 125.648C131.093 125.648 130.487 125.876 129.983 126.332C129.479 126.776 129.179 127.382 129.083 128.15H134.573ZM139.779 122.768C139.407 122.768 139.095 122.642 138.843 122.39C138.591 122.138 138.465 121.826 138.465 121.454C138.465 121.082 138.591 120.77 138.843 120.518C139.095 120.266 139.407 120.14 139.779 120.14C140.139 120.14 140.445 120.266 140.697 120.518C140.949 120.77 141.075 121.082 141.075 121.454C141.075 121.826 140.949 122.138 140.697 122.39C140.445 122.642 140.139 122.768 139.779 122.768ZM140.787 124.082V134H138.735V124.082H140.787ZM145.875 125.756V131.246C145.875 131.618 145.959 131.888 146.127 132.056C146.307 132.212 146.607 132.29 147.027 132.29H148.287V134H146.667C145.743 134 145.035 133.784 144.543 133.352C144.051 132.92 143.805 132.218 143.805 131.246V125.756H142.635V124.082H143.805V121.616H145.875V124.082H148.287V125.756H145.875ZM149.494 128.996C149.494 128 149.698 127.118 150.106 126.35C150.526 125.582 151.09 124.988 151.798 124.568C152.518 124.136 153.31 123.92 154.174 123.92C154.954 123.92 155.632 124.076 156.208 124.388C156.796 124.688 157.264 125.066 157.612 125.522V124.082H159.682V134H157.612V132.524C157.264 132.992 156.79 133.382 156.19 133.694C155.59 134.006 154.906 134.162 154.138 134.162C153.286 134.162 152.506 133.946 151.798 133.514C151.09 133.07 150.526 132.458 150.106 131.678C149.698 130.886 149.494 129.992 149.494 128.996ZM157.612 129.032C157.612 128.348 157.468 127.754 157.18 127.25C156.904 126.746 156.538 126.362 156.082 126.098C155.626 125.834 155.134 125.702 154.606 125.702C154.078 125.702 153.586 125.834 153.13 126.098C152.674 126.35 152.302 126.728 152.014 127.232C151.738 127.724 151.6 128.312 151.6 128.996C151.6 129.68 151.738 130.28 152.014 130.796C152.302 131.312 152.674 131.708 153.13 131.984C153.598 132.248 154.09 132.38 154.606 132.38C155.134 132.38 155.626 132.248 156.082 131.984C156.538 131.72 156.904 131.336 157.18 130.832C157.468 130.316 157.612 129.716 157.612 129.032ZM165.977 134.162C165.197 134.162 164.495 134.024 163.871 133.748C163.259 133.46 162.773 133.076 162.413 132.596C162.053 132.104 161.861 131.558 161.837 130.958H163.961C163.997 131.378 164.195 131.732 164.555 132.02C164.927 132.296 165.389 132.434 165.941 132.434C166.517 132.434 166.961 132.326 167.273 132.11C167.597 131.882 167.759 131.594 167.759 131.246C167.759 130.874 167.579 130.598 167.219 130.418C166.871 130.238 166.313 130.04 165.545 129.824C164.801 129.62 164.195 129.422 163.727 129.23C163.259 129.038 162.851 128.744 162.503 128.348C162.167 127.952 161.999 127.43 161.999 126.782C161.999 126.254 162.155 125.774 162.467 125.342C162.779 124.898 163.223 124.55 163.799 124.298C164.387 124.046 165.059 123.92 165.815 123.92C166.943 123.92 167.849 124.208 168.533 124.784C169.229 125.348 169.601 126.122 169.649 127.106H167.597C167.561 126.662 167.381 126.308 167.057 126.044C166.733 125.78 166.295 125.648 165.743 125.648C165.203 125.648 164.789 125.75 164.501 125.954C164.213 126.158 164.069 126.428 164.069 126.764C164.069 127.028 164.165 127.25 164.357 127.43C164.549 127.61 164.783 127.754 165.059 127.862C165.335 127.958 165.743 128.084 166.283 128.24C167.003 128.432 167.591 128.63 168.047 128.834C168.515 129.026 168.917 129.314 169.253 129.698C169.589 130.082 169.763 130.592 169.775 131.228C169.775 131.792 169.619 132.296 169.307 132.74C168.995 133.184 168.551 133.532 167.975 133.784C167.411 134.036 166.745 134.162 165.977 134.162Z" fill="#2EC27E"/>
<path d="M187.104 132L184.864 128.108H183.646V132H182.05V122.27H185.41C186.157 122.27 186.787 122.401 187.3 122.662C187.823 122.923 188.21 123.273 188.462 123.712C188.723 124.151 188.854 124.641 188.854 125.182C188.854 125.817 188.667 126.395 188.294 126.918C187.93 127.431 187.365 127.781 186.6 127.968L189.008 132H187.104ZM183.646 126.834H185.41C186.007 126.834 186.455 126.685 186.754 126.386C187.062 126.087 187.216 125.686 187.216 125.182C187.216 124.678 187.067 124.286 186.768 124.006C186.469 123.717 186.017 123.572 185.41 123.572H183.646V126.834ZM197.462 129.228C197.462 129.695 197.345 130.133 197.112 130.544C196.888 130.955 196.552 131.3 196.104 131.58C195.665 131.86 195.142 132.028 194.536 132.084V133.218H193.626V132.084C192.748 132 192.039 131.725 191.498 131.258C190.956 130.791 190.686 130.175 190.686 129.41H192.394C192.422 129.774 192.538 130.077 192.744 130.32C192.949 130.553 193.243 130.703 193.626 130.768V127.688C193 127.529 192.492 127.371 192.1 127.212C191.708 127.044 191.372 126.783 191.092 126.428C190.821 126.073 190.686 125.588 190.686 124.972C190.686 124.197 190.956 123.558 191.498 123.054C192.039 122.541 192.748 122.242 193.626 122.158V121.024H194.536V122.158C195.357 122.233 196.015 122.494 196.51 122.942C197.014 123.381 197.298 123.987 197.364 124.762H195.656C195.628 124.473 195.516 124.216 195.32 123.992C195.124 123.759 194.862 123.6 194.536 123.516V126.54C195.161 126.689 195.67 126.848 196.062 127.016C196.454 127.175 196.785 127.431 197.056 127.786C197.326 128.131 197.462 128.612 197.462 129.228ZM192.31 124.888C192.31 125.271 192.422 125.569 192.646 125.784C192.879 125.999 193.206 126.171 193.626 126.302V123.474C193.224 123.521 192.902 123.665 192.66 123.908C192.426 124.151 192.31 124.477 192.31 124.888ZM194.536 130.768C194.946 130.703 195.268 130.539 195.502 130.278C195.735 130.007 195.852 129.685 195.852 129.312C195.852 128.939 195.735 128.649 195.502 128.444C195.278 128.229 194.956 128.057 194.536 127.926V130.768Z" fill="#9A9AB5"/>
<path d="M212.136 123.92C212.004 123.368 211.764 122.954 211.416 122.678C211.068 122.402 210.582 122.264 209.958 122.264C209.01 122.264 208.302 122.63 207.834 123.362C207.366 124.082 207.12 125.282 207.096 126.962C207.408 126.434 207.864 126.026 208.464 125.738C209.064 125.45 209.712 125.306 210.408 125.306C211.2 125.306 211.896 125.48 212.496 125.828C213.108 126.164 213.582 126.656 213.918 127.304C214.266 127.952 214.44 128.726 214.44 129.626C214.44 130.466 214.272 131.216 213.936 131.876C213.612 132.536 213.126 133.058 212.478 133.442C211.83 133.814 211.05 134 210.138 134C208.902 134 207.93 133.73 207.222 133.19C206.526 132.638 206.034 131.864 205.746 130.868C205.47 129.872 205.332 128.63 205.332 127.142C205.332 122.75 206.88 120.554 209.976 120.554C211.176 120.554 212.118 120.878 212.802 121.526C213.498 122.174 213.906 122.972 214.026 123.92H212.136ZM209.958 127.034C209.226 127.034 208.602 127.256 208.086 127.7C207.582 128.132 207.33 128.762 207.33 129.59C207.33 130.418 207.564 131.078 208.032 131.57C208.512 132.05 209.178 132.29 210.03 132.29C210.786 132.29 211.38 132.056 211.812 131.588C212.256 131.12 212.478 130.496 212.478 129.716C212.478 128.9 212.262 128.252 211.83 127.772C211.41 127.28 210.786 127.034 209.958 127.034ZM217.727 134.126C217.355 134.126 217.043 134 216.791 133.748C216.539 133.496 216.413 133.184 216.413 132.812C216.413 132.44 216.539 132.128 216.791 131.876C217.043 131.624 217.355 131.498 217.727 131.498C218.087 131.498 218.393 131.624 218.645 131.876C218.897 132.128 219.023 132.44 219.023 132.812C219.023 133.184 218.897 133.496 218.645 133.748C218.393 134 218.087 134.126 217.727 134.126ZM229.287 122.462L224.283 134H222.213L227.271 122.678H220.611V120.932H229.287V122.462ZM231.043 127.268C231.043 125.192 231.391 123.572 232.087 122.408C232.795 121.232 234.007 120.644 235.723 120.644C237.439 120.644 238.645 121.232 239.341 122.408C240.049 123.572 240.403 125.192 240.403 127.268C240.403 129.368 240.049 131.012 239.341 132.2C238.645 133.376 237.439 133.964 235.723 133.964C234.007 133.964 232.795 133.376 232.087 132.2C231.391 131.012 231.043 129.368 231.043 127.268ZM238.387 127.268C238.387 126.296 238.321 125.474 238.189 124.802C238.069 124.13 237.817 123.584 237.433 123.164C237.049 122.732 236.479 122.516 235.723 122.516C234.967 122.516 234.397 122.732 234.013 123.164C233.629 123.584 233.371 124.13 233.239 124.802C233.119 125.474 233.059 126.296 233.059 127.268C233.059 128.276 233.119 129.122 233.239 129.806C233.359 130.49 233.611 131.042 233.995 131.462C234.391 131.882 234.967 132.092 235.723 132.092C236.479 132.092 237.049 131.882 237.433 131.462C237.829 131.042 238.087 130.49 238.207 129.806C238.327 129.122 238.387 128.276 238.387 127.268ZM242.574 127.268C242.574 125.192 242.922 123.572 243.618 122.408C244.326 121.232 245.538 120.644 247.254 120.644C248.97 120.644 250.176 121.232 250.872 122.408C251.58 123.572 251.934 125.192 251.934 127.268C251.934 129.368 251.58 131.012 250.872 132.2C250.176 133.376 248.97 133.964 247.254 133.964C245.538 133.964 244.326 133.376 243.618 132.2C242.922 131.012 242.574 129.368 242.574 127.268ZM249.918 127.268C249.918 126.296 249.852 125.474 249.72 124.802C249.6 124.13 249.348 123.584 248.964 123.164C248.58 122.732 248.01 122.516 247.254 122.516C246.498 122.516 245.928 122.732 245.544 123.164C245.16 123.584 244.902 124.13 244.77 124.802C244.65 125.474 244.59 126.296 244.59 127.268C244.59 128.276 244.65 129.122 244.77 129.806C244.89 130.49 245.142 131.042 245.526 131.462C245.922 131.882 246.498 132.092 247.254 132.092C248.01 132.092 248.58 131.882 248.964 131.462C249.36 131.042 249.618 130.49 249.738 129.806C249.858 129.122 249.918 128.276 249.918 127.268ZM256.625 131.534L254.447 136.502H253.115L254.393 131.534H256.625ZM258.148 127.268C258.148 125.192 258.496 123.572 259.192 122.408C259.9 121.232 261.112 120.644 262.828 120.644C264.544 120.644 265.75 121.232 266.446 122.408C267.154 123.572 267.508 125.192 267.508 127.268C267.508 129.368 267.154 131.012 266.446 132.2C265.75 133.376 264.544 133.964 262.828 133.964C261.112 133.964 259.9 133.376 259.192 132.2C258.496 131.012 258.148 129.368 258.148 127.268ZM265.492 127.268C265.492 126.296 265.426 125.474 265.294 124.802C265.174 124.13 264.922 123.584 264.538 123.164C264.154 122.732 263.584 122.516 262.828 122.516C262.072 122.516 261.502 122.732 261.118 123.164C260.734 123.584 260.476 124.13 260.344 124.802C260.224 125.474 260.164 126.296 260.164 127.268C260.164 128.276 260.224 129.122 260.344 129.806C260.464 130.49 260.716 131.042 261.1 131.462C261.496 131.882 262.072 132.092 262.828 132.092C263.584 132.092 264.154 131.882 264.538 131.462C264.934 131.042 265.192 130.49 265.312 129.806C265.432 129.122 265.492 128.276 265.492 127.268ZM269.68 127.268C269.68 125.192 270.028 123.572 270.724 122.408C271.432 121.232 272.644 120.644 274.36 120.644C276.076 120.644 277.282 121.232 277.978 122.408C278.686 123.572 279.04 125.192 279.04 127.268C279.04 129.368 278.686 131.012 277.978 132.2C277.282 133.376 276.076 133.964 274.36 133.964C272.644 133.964 271.432 133.376 270.724 132.2C270.028 131.012 269.68 129.368 269.68 127.268ZM277.024 127.268C277.024 126.296 276.958 125.474 276.826 124.802C276.706 124.13 276.454 123.584 276.07 123.164C275.686 122.732 275.116 122.516 274.36 122.516C273.604 122.516 273.034 122.732 272.65 123.164C272.266 123.584 272.008 124.13 271.876 124.802C271.756 125.474 271.696 126.296 271.696 127.268C271.696 128.276 271.756 129.122 271.876 129.806C271.996 130.49 272.248 131.042 272.632 131.462C273.028 131.882 273.604 132.092 274.36 132.092C275.116 132.092 275.686 131.882 276.07 131.462C276.466 131.042 276.724 130.49 276.844 129.806C276.964 129.122 277.024 128.276 277.024 127.268Z" fill="white"/>
<path d="M290.048 124.924V125.516H288.528V130.5H287.8V125.516H286.272V124.924H290.048ZM293.472 130.556C292.955 130.556 292.483 130.436 292.056 130.196C291.629 129.951 291.291 129.612 291.04 129.18C290.795 128.743 290.672 128.252 290.672 127.708C290.672 127.164 290.795 126.676 291.04 126.244C291.291 125.807 291.629 125.468 292.056 125.228C292.483 124.983 292.955 124.86 293.472 124.86C293.995 124.86 294.469 124.983 294.896 125.228C295.323 125.468 295.659 125.804 295.904 126.236C296.149 126.668 296.272 127.159 296.272 127.708C296.272 128.257 296.149 128.748 295.904 129.18C295.659 129.612 295.323 129.951 294.896 130.196C294.469 130.436 293.995 130.556 293.472 130.556ZM293.472 129.924C293.861 129.924 294.211 129.833 294.52 129.652C294.835 129.471 295.08 129.212 295.256 128.876C295.437 128.54 295.528 128.151 295.528 127.708C295.528 127.26 295.437 126.871 295.256 126.54C295.08 126.204 294.837 125.945 294.528 125.764C294.219 125.583 293.867 125.492 293.472 125.492C293.077 125.492 292.725 125.583 292.416 125.764C292.107 125.945 291.861 126.204 291.68 126.54C291.504 126.871 291.416 127.26 291.416 127.708C291.416 128.151 291.504 128.54 291.68 128.876C291.861 129.212 292.107 129.471 292.416 129.652C292.731 129.833 293.083 129.924 293.472 129.924ZM300.665 124.924V125.516H299.145V130.5H298.417V125.516H296.889V124.924H300.665ZM304.857 129.26H302.425L301.977 130.5H301.209L303.225 124.956H304.065L306.073 130.5H305.305L304.857 129.26ZM304.649 128.668L303.641 125.852L302.633 128.668H304.649ZM307.68 129.908H309.632V130.5H306.952V124.924H307.68V129.908Z" fill="#9A9AB5"/>
</g>
<defs>
<filter id="filter0_d_36_304" x="-6" y="-4" width="424" height="57" filterUnits="userSpaceOnUse" color-interpolation-filters="sRGB">
<feFlood flood-opacity="0" result="BackgroundImageFix"/>
<feColorMatrix in="SourceAlpha" type="matrix" values="0 0 0 0 0 0 0 0 0 0 0 0 0 0 0 0 0 0 127 0" result="hardAlpha"/>
<feOffset dy="2"/>
<feGaussianBlur stdDeviation="3"/>
<feComposite in2="hardAlpha" operator="out"/>
<feColorMatrix type="matrix" values="0 0 0 0 0 0 0 0 0 0 0 0 0 0 0 0 0 0 0.15 0"/>
<feBlend mode="normal" in2="BackgroundImageFix" result="effect1_dropShadow_36_304"/>
<feBlend mode="normal" in="SourceGraphic" in2="effect1_dropShadow_36_304" result="shape"/>
</filter>
<clipPath id="clip0_36_304">
<rect width="412" height="917" fill="white"/>
</clipPath>
<clipPath id="clip1_36_304">
<rect width="352" height="45" fill="white" transform="translate(30 171)"/>
</clipPath>
<clipPath id="clip2_36_304">
<rect width="352" height="45" fill="white" transform="translate(30 237)"/>
</clipPath>
</defs>
</svg>
